G04*
G04 #@! TF.GenerationSoftware,Altium Limited,Altium Designer,21.8.1 (53)*
G04*
G04 Layer_Color=65535*
%FSLAX42Y42*%
%MOMM*%
G71*
G04*
G04 #@! TF.SameCoordinates,4C7B3126-2604-42B9-8956-4212446E7276*
G04*
G04*
G04 #@! TF.FilePolarity,Positive*
G04*
G01*
G75*
%ADD10C,0.20*%
%ADD11C,0.13*%
%ADD12C,0.10*%
%ADD13C,0.20*%
%ADD14C,0.25*%
%ADD15C,0.15*%
%ADD16C,0.25*%
D10*
X1165Y6429D02*
G03*
X1151Y6444I-7J7D01*
G01*
D02*
G03*
X1165Y6429I7J-7D01*
G01*
X7352Y5248D02*
G03*
X7352Y5248I-10J0D01*
G01*
X6121Y2245D02*
G03*
X6121Y2245I-10J0D01*
G01*
X6121Y3279D02*
G03*
X6121Y3279I-10J0D01*
G01*
X3894Y3421D02*
G03*
X3894Y3421I-10J0D01*
G01*
X6122Y2774D02*
G03*
X6122Y2774I-10J0D01*
G01*
X6107Y4912D02*
G03*
X6107Y4912I-10J0D01*
G01*
X6107Y5392D02*
G03*
X6107Y5392I-10J0D01*
G01*
Y5895D02*
G03*
X6107Y5895I-10J0D01*
G01*
Y6401D02*
G03*
X6107Y6401I-10J0D01*
G01*
Y6910D02*
G03*
X6107Y6910I-10J0D01*
G01*
X2741Y6723D02*
G03*
X2741Y6723I-10J0D01*
G01*
X2509Y4922D02*
G03*
X2509Y4922I-10J0D01*
G01*
X3252Y6724D02*
G03*
X3252Y6724I-10J0D01*
G01*
X6121Y1204D02*
G03*
X6121Y1204I-10J0D01*
G01*
X6817Y6032D02*
G03*
X6817Y6032I-10J0D01*
G01*
X6865Y6156D02*
G03*
X6865Y6156I-10J0D01*
G01*
X4080Y4986D02*
G03*
X4080Y4986I-10J0D01*
G01*
X4037Y5945D02*
G03*
X4037Y5945I-10J0D01*
G01*
X7437Y680D02*
G03*
X7437Y680I-10J0D01*
G01*
X6122Y1732D02*
G03*
X6122Y1732I-10J0D01*
G01*
X2234Y6726D02*
G03*
X2234Y6726I-10J0D01*
G01*
X7500Y5397D02*
X8008D01*
X7500Y6667D02*
X8008D01*
Y5397D02*
Y6667D01*
X7500Y5397D02*
Y6667D01*
X7377Y8022D02*
X7458Y8104D01*
X8090Y7471D01*
X8009Y7390D02*
X8090Y7471D01*
X3530Y5760D02*
Y5770D01*
X4624Y6259D02*
Y6364D01*
X4629Y6399D02*
X4919D01*
Y6444D01*
X4629D02*
X4919D01*
X4629Y6399D02*
Y6444D01*
X4279Y6256D02*
X4289D01*
X5304Y4801D02*
X5354D01*
Y4834D01*
X5321Y4859D02*
Y4876D01*
X5329Y4884D01*
X5354D01*
Y4859D01*
X5346Y4851D01*
X5337Y4859D01*
Y4884D01*
X5312Y4909D02*
X5321D01*
Y4901D01*
Y4918D01*
Y4909D01*
X5346D01*
X5354Y4918D01*
X5321Y4976D02*
Y4951D01*
X5329Y4943D01*
X5346D01*
X5354Y4951D01*
Y4976D01*
X5304Y4993D02*
X5354D01*
X5329D01*
X5321Y5001D01*
Y5018D01*
X5329Y5026D01*
X5354D01*
Y5043D02*
Y5068D01*
X5346Y5076D01*
X5337Y5068D01*
Y5051D01*
X5329Y5043D01*
X5321Y5051D01*
Y5076D01*
Y5093D02*
X5346D01*
X5354Y5101D01*
Y5126D01*
X5321D01*
X5304Y5143D02*
X5354D01*
Y5168D01*
X5346Y5176D01*
X5337D01*
X5329D01*
X5321Y5168D01*
Y5143D01*
D11*
X6543Y7910D02*
G03*
X6543Y7910I-450J0D01*
G01*
X6687Y5523D02*
X7277D01*
Y5073D02*
Y5523D01*
X6687Y5073D02*
X7277D01*
X6687D02*
Y5523D01*
X5456Y2520D02*
X6046D01*
Y2070D02*
Y2520D01*
X5456Y2070D02*
X6046D01*
X5456D02*
Y2520D01*
Y3104D02*
Y3554D01*
Y3104D02*
X6046D01*
Y3554D01*
X5456D02*
X6046D01*
X3229Y3246D02*
Y3696D01*
Y3246D02*
X3819D01*
Y3696D01*
X3229D02*
X3819D01*
X5457Y3049D02*
X6047D01*
Y2599D02*
Y3049D01*
X5457Y2599D02*
X6047D01*
X5457D02*
Y3049D01*
X5442Y4737D02*
Y5187D01*
Y4737D02*
X6032D01*
Y5187D01*
X5442D02*
X6032D01*
X5442Y5217D02*
Y5667D01*
Y5217D02*
X6032D01*
Y5667D01*
X5442D02*
X6032D01*
X5442Y5720D02*
Y6170D01*
Y5720D02*
X6032D01*
Y6170D01*
X5442D02*
X6032D01*
X5442Y6676D02*
X6032D01*
Y6226D02*
Y6676D01*
X5442Y6226D02*
X6032D01*
X5442D02*
Y6676D01*
X5442Y6735D02*
Y7185D01*
Y6735D02*
X6032D01*
Y7185D01*
X5442D02*
X6032D01*
X2456Y6068D02*
X2906D01*
Y6658D01*
X2456D02*
X2906D01*
X2456Y6068D02*
Y6658D01*
X2449Y5090D02*
Y5401D01*
X2586Y5470D02*
X2762D01*
X2899Y5090D02*
Y5401D01*
X2586Y5020D02*
X2762D01*
X2967Y6069D02*
X3417D01*
Y6659D01*
X2967D02*
X3417D01*
X2967Y6069D02*
Y6659D01*
X5456Y1479D02*
X6046D01*
Y1029D02*
Y1479D01*
X5456Y1029D02*
X6046D01*
X5456D02*
Y1479D01*
X6716Y6467D02*
Y6567D01*
X6620Y6467D02*
Y6567D01*
X6892Y5910D02*
X7017D01*
X6892Y6074D02*
X7017D01*
X6798Y6318D02*
Y6494D01*
X7112Y6318D02*
Y6494D01*
X8157Y6181D02*
Y6281D01*
X8061Y6181D02*
Y6281D01*
X8071Y6521D02*
Y6621D01*
X8167Y6521D02*
Y6621D01*
X2776Y5897D02*
X2876D01*
X2776Y5801D02*
X2876D01*
X4029Y5077D02*
Y5177D01*
X3933Y5077D02*
Y5177D01*
X4317Y5072D02*
Y5172D01*
X4413Y5072D02*
Y5172D01*
X4455Y5071D02*
Y5171D01*
X4551Y5071D02*
Y5171D01*
X7391Y798D02*
X7423Y766D01*
X7706Y1113D02*
X7738Y1081D01*
X7558Y752D02*
X7752Y946D01*
X7391Y798D02*
X7426Y833D01*
X7671Y1078D02*
X7706Y1113D01*
X1813Y1998D02*
X1884Y1927D01*
X1745Y1930D02*
X1816Y1859D01*
X4432Y6284D02*
Y6384D01*
X4336Y6284D02*
Y6384D01*
X4233Y6284D02*
Y6384D01*
X4137Y6284D02*
Y6384D01*
X1497Y2163D02*
X1568Y2093D01*
X1565Y2231D02*
X1635Y2161D01*
X7383Y1350D02*
X7454Y1279D01*
X7451Y1418D02*
X7522Y1347D01*
X7190Y1180D02*
X7261Y1109D01*
X7258Y1248D02*
X7329Y1177D01*
X5457Y1557D02*
Y2007D01*
Y1557D02*
X6047D01*
Y2007D01*
X5457D02*
X6047D01*
X1949Y6071D02*
X2399D01*
Y6661D01*
X1949D02*
X2399D01*
X1949Y6071D02*
Y6661D01*
D12*
X520Y7287D02*
X1227Y7994D01*
X637Y6980D02*
X873Y6743D01*
X1771Y7641D01*
X1535Y7878D02*
X1771Y7641D01*
D13*
X7830Y6744D02*
Y6794D01*
X7880Y6744D01*
X7893D01*
X7905Y6757D01*
Y6782D01*
X7893Y6794D01*
X7576Y6744D02*
Y6719D01*
Y6731D01*
X7651D01*
X7639Y6744D01*
X7599Y5342D02*
X7587Y5329D01*
Y5304D01*
X7599Y5292D01*
X7649D01*
X7662Y5304D01*
Y5329D01*
X7649Y5342D01*
X7637D01*
X7624Y5329D01*
Y5292D01*
X7833Y5337D02*
Y5312D01*
Y5324D01*
X7908D01*
X7896Y5337D01*
Y5274D02*
X7908Y5262D01*
Y5237D01*
X7896Y5224D01*
X7846D01*
X7833Y5237D01*
Y5262D01*
X7846Y5274D01*
X7896D01*
D14*
X5493Y7887D02*
X5543D01*
X5518Y7912D02*
Y7862D01*
X6613Y7907D02*
X6663D01*
X5306Y2020D02*
X5381D01*
Y2070D01*
X5331Y2107D02*
Y2132D01*
X5343Y2145D01*
X5381D01*
Y2107D01*
X5368Y2095D01*
X5356Y2107D01*
Y2145D01*
X5318Y2182D02*
X5331D01*
Y2170D01*
Y2195D01*
Y2182D01*
X5368D01*
X5381Y2195D01*
X5331Y2282D02*
Y2245D01*
X5343Y2232D01*
X5368D01*
X5381Y2245D01*
Y2282D01*
X5306Y2307D02*
X5381D01*
X5343D01*
X5331Y2320D01*
Y2345D01*
X5343Y2357D01*
X5381D01*
Y2382D02*
X5331D01*
Y2395D01*
X5343Y2407D01*
X5381D01*
X5343D01*
X5331Y2420D01*
X5343Y2432D01*
X5381D01*
X5331Y2457D02*
X5368D01*
X5381Y2470D01*
Y2507D01*
X5331D01*
X5381Y2532D02*
Y2557D01*
Y2545D01*
X5306D01*
Y2532D01*
X8030Y5497D02*
X8105D01*
Y5459D01*
X8093Y5447D01*
X8068D01*
X8055Y5459D01*
Y5497D01*
X8030Y5422D02*
Y5397D01*
Y5409D01*
X8105D01*
X8093Y5422D01*
X371Y6815D02*
X359Y6803D01*
Y6778D01*
X371Y6765D01*
X384D01*
X396Y6778D01*
Y6803D01*
X409Y6815D01*
X421D01*
X434Y6803D01*
Y6778D01*
X421Y6765D01*
X434Y6890D02*
Y6840D01*
X384Y6890D01*
X371D01*
X359Y6878D01*
Y6853D01*
X371Y6840D01*
X4132Y4997D02*
Y4985D01*
X4157Y4960D01*
X4182Y4985D01*
Y4997D01*
X4157Y4960D02*
Y4922D01*
X4207D02*
X4232D01*
X4219D01*
Y4997D01*
X4207Y4985D01*
X6994Y5787D02*
Y5849D01*
X6982Y5862D01*
X6957D01*
X6944Y5849D01*
Y5787D01*
X6919Y5862D02*
X6894D01*
X6907D01*
Y5787D01*
X6919Y5799D01*
X3013Y5266D02*
X3000Y5279D01*
X2975D01*
X2963Y5266D01*
Y5254D01*
X2975Y5241D01*
X3000D01*
X3013Y5229D01*
Y5216D01*
X3000Y5204D01*
X2975D01*
X2963Y5216D01*
X3038Y5204D02*
X3063D01*
X3050D01*
Y5279D01*
X3038Y5266D01*
X4545Y6467D02*
X4470D01*
Y6505D01*
X4483Y6517D01*
X4508D01*
X4520Y6505D01*
Y6467D01*
Y6492D02*
X4545Y6517D01*
Y6592D02*
Y6542D01*
X4495Y6592D01*
X4483D01*
X4470Y6580D01*
Y6555D01*
X4483Y6542D01*
X5050Y6745D02*
X5125D01*
Y6708D01*
X5113Y6695D01*
X5088D01*
X5075Y6708D01*
Y6745D01*
Y6720D02*
X5050Y6695D01*
Y6670D02*
Y6645D01*
Y6658D01*
X5125D01*
X5113Y6670D01*
X6608Y6325D02*
Y6400D01*
X6645D01*
X6658Y6388D01*
Y6363D01*
X6645Y6350D01*
X6608D01*
X6633D02*
X6658Y6325D01*
X6683Y6388D02*
X6695Y6400D01*
X6720D01*
X6733Y6388D01*
Y6375D01*
X6720Y6363D01*
X6733Y6350D01*
Y6338D01*
X6720Y6325D01*
X6695D01*
X6683Y6338D01*
Y6350D01*
X6695Y6363D01*
X6683Y6375D01*
Y6388D01*
X6695Y6363D02*
X6720D01*
X7311Y1373D02*
X7258Y1426D01*
X7284Y1452D01*
X7302D01*
X7320Y1435D01*
X7320Y1417D01*
X7293Y1390D01*
X7311Y1408D02*
X7346Y1408D01*
X7364Y1426D02*
X7382Y1443D01*
X7373Y1435D01*
X7320Y1488D01*
Y1470D01*
X7364Y1514D02*
Y1532D01*
X7382Y1550D01*
X7399D01*
X7435Y1514D01*
Y1497D01*
X7417Y1479D01*
X7399D01*
X7364Y1514D01*
X7127Y1215D02*
X7074Y1268D01*
X7101Y1294D01*
X7119D01*
X7136Y1276D01*
X7136Y1259D01*
X7110Y1232D01*
X7127Y1250D02*
X7163Y1250D01*
X7172Y1276D02*
X7189D01*
X7207Y1294D01*
Y1312D01*
X7172Y1347D01*
X7154D01*
X7136Y1329D01*
Y1312D01*
X7145Y1303D01*
X7163D01*
X7189Y1329D01*
X1838Y2055D02*
X1891Y2108D01*
X1917Y2082D01*
Y2064D01*
X1900Y2046D01*
X1882Y2046D01*
X1855Y2073D01*
X1873Y2055D02*
X1873Y2020D01*
X1944Y2055D02*
X1979Y2020D01*
X1970Y2011D01*
X1900D01*
X1891Y2002D01*
X1594Y2284D02*
X1647Y2337D01*
X1674Y2310D01*
Y2293D01*
X1656Y2275D01*
X1639Y2275D01*
X1612Y2302D01*
X1630Y2284D02*
X1630Y2249D01*
X1736D02*
X1709Y2257D01*
X1674D01*
X1656Y2240D01*
Y2222D01*
X1674Y2204D01*
X1692D01*
X1700Y2213D01*
X1700Y2231D01*
X1674Y2257D01*
X8053Y6701D02*
Y6776D01*
X8090D01*
X8103Y6764D01*
Y6739D01*
X8090Y6726D01*
X8053D01*
X8078D02*
X8103Y6701D01*
X8178Y6776D02*
X8128D01*
Y6739D01*
X8153Y6751D01*
X8165D01*
X8178Y6739D01*
Y6714D01*
X8165Y6701D01*
X8140D01*
X8128Y6714D01*
X8181Y6106D02*
Y6031D01*
X8144D01*
X8131Y6043D01*
Y6068D01*
X8144Y6081D01*
X8181D01*
X8156D02*
X8131Y6106D01*
X8069D02*
Y6031D01*
X8106Y6068D01*
X8056D01*
X2952Y5807D02*
Y5882D01*
X2990D01*
X3002Y5870D01*
Y5845D01*
X2990Y5832D01*
X2952D01*
X2977D02*
X3002Y5807D01*
X3027Y5870D02*
X3040Y5882D01*
X3065D01*
X3077Y5870D01*
Y5857D01*
X3065Y5845D01*
X3052D01*
X3065D01*
X3077Y5832D01*
Y5820D01*
X3065Y5807D01*
X3040D01*
X3027Y5820D01*
X4801Y6192D02*
X4751D01*
X4739Y6179D01*
Y6154D01*
X4751Y6142D01*
X4801D01*
X4814Y6154D01*
Y6179D01*
X4789Y6167D02*
X4814Y6192D01*
Y6179D02*
X4801Y6192D01*
X4814Y6217D02*
Y6242D01*
Y6229D01*
X4739D01*
X4751Y6217D01*
X5445Y8320D02*
Y8245D01*
X5495D01*
X5570Y8308D02*
X5558Y8320D01*
X5533D01*
X5520Y8308D01*
Y8295D01*
X5533Y8283D01*
X5558D01*
X5570Y8270D01*
Y8258D01*
X5558Y8245D01*
X5533D01*
X5520Y8258D01*
X5595Y8245D02*
X5620D01*
X5608D01*
Y8320D01*
X5595Y8308D01*
X5432Y7337D02*
Y7262D01*
X5482D01*
X5520Y7312D02*
X5545D01*
X5557Y7300D01*
Y7262D01*
X5520D01*
X5507Y7275D01*
X5520Y7287D01*
X5557D01*
X5595Y7325D02*
Y7312D01*
X5582D01*
X5607D01*
X5595D01*
Y7275D01*
X5607Y7262D01*
X5695Y7312D02*
X5657D01*
X5645Y7300D01*
Y7275D01*
X5657Y7262D01*
X5695D01*
X5720Y7337D02*
Y7262D01*
Y7300D01*
X5732Y7312D01*
X5757D01*
X5770Y7300D01*
Y7262D01*
X5845Y7337D02*
Y7262D01*
X5807D01*
X5795Y7275D01*
Y7300D01*
X5807Y7312D01*
X5845D01*
X5870Y7262D02*
X5895D01*
X5882D01*
Y7312D01*
X5870D01*
X5932D02*
X5957Y7262D01*
X5982Y7312D01*
X3539Y6356D02*
X3464D01*
Y6306D01*
X3514Y6268D02*
Y6243D01*
X3501Y6231D01*
X3464D01*
Y6268D01*
X3476Y6281D01*
X3489Y6268D01*
Y6231D01*
X3526Y6193D02*
X3514D01*
Y6206D01*
Y6181D01*
Y6193D01*
X3476D01*
X3464Y6181D01*
X3514Y6093D02*
Y6131D01*
X3501Y6143D01*
X3476D01*
X3464Y6131D01*
Y6093D01*
X3539Y6068D02*
X3464D01*
X3501D01*
X3514Y6056D01*
Y6031D01*
X3501Y6018D01*
X3464D01*
X3476Y5993D02*
X3464Y5981D01*
Y5956D01*
X3476Y5943D01*
X3526D01*
X3539Y5956D01*
Y5981D01*
X3526Y5993D01*
X3514D01*
X3501Y5981D01*
Y5943D01*
X2463Y6860D02*
Y6785D01*
X2513D01*
X2551Y6835D02*
X2576D01*
X2588Y6822D01*
Y6785D01*
X2551D01*
X2538Y6797D01*
X2551Y6810D01*
X2588D01*
X2626Y6847D02*
Y6835D01*
X2613D01*
X2638D01*
X2626D01*
Y6797D01*
X2638Y6785D01*
X2726Y6835D02*
X2688D01*
X2676Y6822D01*
Y6797D01*
X2688Y6785D01*
X2726D01*
X2751Y6860D02*
Y6785D01*
Y6822D01*
X2763Y6835D01*
X2788D01*
X2801Y6822D01*
Y6785D01*
X2826Y6847D02*
X2838Y6860D01*
X2863D01*
X2876Y6847D01*
Y6835D01*
X2863Y6822D01*
X2876Y6810D01*
Y6797D01*
X2863Y6785D01*
X2838D01*
X2826Y6797D01*
Y6810D01*
X2838Y6822D01*
X2826Y6835D01*
Y6847D01*
X2838Y6822D02*
X2863D01*
X5301Y3147D02*
X5376D01*
Y3197D01*
X5326Y3234D02*
Y3259D01*
X5338Y3272D01*
X5376D01*
Y3234D01*
X5363Y3222D01*
X5351Y3234D01*
Y3272D01*
X5313Y3309D02*
X5326D01*
Y3297D01*
Y3322D01*
Y3309D01*
X5363D01*
X5376Y3322D01*
X5326Y3409D02*
Y3372D01*
X5338Y3359D01*
X5363D01*
X5376Y3372D01*
Y3409D01*
X5301Y3434D02*
X5376D01*
X5338D01*
X5326Y3447D01*
Y3472D01*
X5338Y3484D01*
X5376D01*
X5301Y3509D02*
Y3559D01*
X5313D01*
X5363Y3509D01*
X5376D01*
X1898Y6472D02*
X1823D01*
Y6422D01*
X1873Y6385D02*
Y6360D01*
X1860Y6347D01*
X1823D01*
Y6385D01*
X1835Y6397D01*
X1848Y6385D01*
Y6347D01*
X1885Y6310D02*
X1873D01*
Y6322D01*
Y6297D01*
Y6310D01*
X1835D01*
X1823Y6297D01*
X1873Y6210D02*
Y6247D01*
X1860Y6260D01*
X1835D01*
X1823Y6247D01*
Y6210D01*
X1898Y6185D02*
X1823D01*
X1860D01*
X1873Y6172D01*
Y6147D01*
X1860Y6135D01*
X1823D01*
X1898Y6060D02*
X1885Y6085D01*
X1860Y6110D01*
X1835D01*
X1823Y6097D01*
Y6072D01*
X1835Y6060D01*
X1848D01*
X1860Y6072D01*
Y6110D01*
X5294Y2644D02*
X5369D01*
Y2694D01*
X5319Y2731D02*
Y2756D01*
X5331Y2769D01*
X5369D01*
Y2731D01*
X5356Y2719D01*
X5344Y2731D01*
Y2769D01*
X5306Y2806D02*
X5319D01*
Y2794D01*
Y2819D01*
Y2806D01*
X5356D01*
X5369Y2819D01*
X5319Y2906D02*
Y2869D01*
X5331Y2856D01*
X5356D01*
X5369Y2869D01*
Y2906D01*
X5294Y2931D02*
X5369D01*
X5331D01*
X5319Y2944D01*
Y2969D01*
X5331Y2981D01*
X5369D01*
X5294Y3056D02*
Y3006D01*
X5331D01*
X5319Y3031D01*
Y3044D01*
X5331Y3056D01*
X5356D01*
X5369Y3044D01*
Y3019D01*
X5356Y3006D01*
X5297Y5265D02*
X5371D01*
Y5315D01*
X5322Y5352D02*
Y5377D01*
X5334Y5390D01*
X5371D01*
Y5352D01*
X5359Y5340D01*
X5346Y5352D01*
Y5390D01*
X5309Y5427D02*
X5322D01*
Y5415D01*
Y5440D01*
Y5427D01*
X5359D01*
X5371Y5440D01*
X5322Y5527D02*
Y5490D01*
X5334Y5477D01*
X5359D01*
X5371Y5490D01*
Y5527D01*
X5297Y5552D02*
X5371D01*
X5334D01*
X5322Y5565D01*
Y5590D01*
X5334Y5602D01*
X5371D01*
Y5665D02*
X5297D01*
X5334Y5627D01*
Y5677D01*
X3082Y3258D02*
X3157D01*
Y3308D01*
X3107Y3346D02*
Y3371D01*
X3119Y3383D01*
X3157D01*
Y3346D01*
X3144Y3333D01*
X3132Y3346D01*
Y3383D01*
X3094Y3421D02*
X3107D01*
Y3408D01*
Y3433D01*
Y3421D01*
X3144D01*
X3157Y3433D01*
X3107Y3521D02*
Y3483D01*
X3119Y3471D01*
X3144D01*
X3157Y3483D01*
Y3521D01*
X3082Y3546D02*
X3157D01*
X3119D01*
X3107Y3558D01*
Y3583D01*
X3119Y3596D01*
X3157D01*
X3094Y3621D02*
X3082Y3633D01*
Y3658D01*
X3094Y3671D01*
X3107D01*
X3119Y3658D01*
Y3646D01*
Y3658D01*
X3132Y3671D01*
X3144D01*
X3157Y3658D01*
Y3633D01*
X3144Y3621D01*
X5289Y5745D02*
X5364D01*
Y5795D01*
X5314Y5833D02*
Y5858D01*
X5326Y5870D01*
X5364D01*
Y5833D01*
X5351Y5820D01*
X5339Y5833D01*
Y5870D01*
X5301Y5907D02*
X5314D01*
Y5895D01*
Y5920D01*
Y5907D01*
X5351D01*
X5364Y5920D01*
X5314Y6007D02*
Y5970D01*
X5326Y5957D01*
X5351D01*
X5364Y5970D01*
Y6007D01*
X5289Y6032D02*
X5364D01*
X5326D01*
X5314Y6045D01*
Y6070D01*
X5326Y6082D01*
X5364D01*
Y6157D02*
Y6107D01*
X5314Y6157D01*
X5301D01*
X5289Y6145D01*
Y6120D01*
X5301Y6107D01*
X5312Y1567D02*
X5387D01*
Y1617D01*
X5337Y1654D02*
Y1679D01*
X5349Y1691D01*
X5387D01*
Y1654D01*
X5374Y1642D01*
X5362Y1654D01*
Y1691D01*
X5324Y1729D02*
X5337D01*
Y1716D01*
Y1741D01*
Y1729D01*
X5374D01*
X5387Y1741D01*
X5337Y1829D02*
Y1791D01*
X5349Y1779D01*
X5374D01*
X5387Y1791D01*
Y1829D01*
X5312Y1854D02*
X5387D01*
X5349D01*
X5337Y1866D01*
Y1891D01*
X5349Y1904D01*
X5387D01*
Y1929D02*
Y1954D01*
Y1941D01*
X5312D01*
X5324Y1929D01*
X5297Y6291D02*
X5371D01*
Y6341D01*
X5322Y6379D02*
Y6404D01*
X5334Y6416D01*
X5371D01*
Y6379D01*
X5359Y6366D01*
X5346Y6379D01*
Y6416D01*
X5309Y6454D02*
X5322D01*
Y6441D01*
Y6466D01*
Y6454D01*
X5359D01*
X5371Y6466D01*
X5322Y6554D02*
Y6516D01*
X5334Y6504D01*
X5359D01*
X5371Y6516D01*
Y6554D01*
X5297Y6579D02*
X5371D01*
X5334D01*
X5322Y6591D01*
Y6616D01*
X5334Y6629D01*
X5371D01*
X5309Y6654D02*
X5297Y6666D01*
Y6691D01*
X5309Y6704D01*
X5359D01*
X5371Y6691D01*
Y6666D01*
X5359Y6654D01*
X5309D01*
X6990Y6733D02*
X6965D01*
X6978D01*
Y6670D01*
X6965Y6658D01*
X6953D01*
X6940Y6670D01*
X7065Y6658D02*
X7015D01*
X7065Y6708D01*
Y6720D01*
X7053Y6733D01*
X7028D01*
X7015Y6720D01*
X8011Y7193D02*
X7986D01*
X7999D01*
Y7130D01*
X7986Y7118D01*
X7974D01*
X7961Y7130D01*
X8036Y7118D02*
X8061D01*
X8049D01*
Y7193D01*
X8036Y7180D01*
X7665Y1247D02*
Y1172D01*
X7703D01*
X7715Y1184D01*
Y1234D01*
X7703Y1247D01*
X7665D01*
X7740Y1172D02*
X7765D01*
X7753D01*
Y1247D01*
X7740Y1234D01*
X7332Y6399D02*
X7320Y6387D01*
Y6362D01*
X7332Y6349D01*
X7382D01*
X7395Y6362D01*
Y6387D01*
X7382Y6399D01*
X7332Y6424D02*
X7320Y6437D01*
Y6461D01*
X7332Y6474D01*
X7345D01*
X7357Y6461D01*
X7370Y6474D01*
X7382D01*
X7395Y6461D01*
Y6437D01*
X7382Y6424D01*
X7370D01*
X7357Y6437D01*
X7345Y6424D01*
X7332D01*
X7357Y6437D02*
Y6461D01*
X6561Y5988D02*
X6549Y5976D01*
Y5951D01*
X6561Y5938D01*
X6611D01*
X6624Y5951D01*
Y5976D01*
X6611Y5988D01*
X6549Y6013D02*
Y6063D01*
X6561D01*
X6611Y6013D01*
X6624D01*
X4337Y4939D02*
X4325Y4927D01*
Y4902D01*
X4337Y4889D01*
X4387D01*
X4400Y4902D01*
Y4927D01*
X4387Y4939D01*
X4325Y5014D02*
X4337Y4989D01*
X4362Y4964D01*
X4387D01*
X4400Y4977D01*
Y5002D01*
X4387Y5014D01*
X4375D01*
X4362Y5002D01*
Y4964D01*
X3931Y4944D02*
X3918Y4932D01*
Y4907D01*
X3931Y4894D01*
X3981D01*
X3993Y4907D01*
Y4932D01*
X3981Y4944D01*
X3918Y5019D02*
Y4969D01*
X3956D01*
X3943Y4994D01*
Y5007D01*
X3956Y5019D01*
X3981D01*
X3993Y5007D01*
Y4982D01*
X3981Y4969D01*
X4474Y4942D02*
X4462Y4929D01*
Y4904D01*
X4474Y4892D01*
X4524D01*
X4537Y4904D01*
Y4929D01*
X4524Y4942D01*
X4537Y5004D02*
X4462D01*
X4499Y4967D01*
Y5017D01*
X3005Y5682D02*
X2993Y5694D01*
X2968D01*
X2955Y5682D01*
Y5632D01*
X2968Y5619D01*
X2993D01*
X3005Y5632D01*
X3030Y5682D02*
X3043Y5694D01*
X3068D01*
X3080Y5682D01*
Y5669D01*
X3068Y5657D01*
X3055D01*
X3068D01*
X3080Y5644D01*
Y5632D01*
X3068Y5619D01*
X3043D01*
X3030Y5632D01*
X4359Y6499D02*
X4346Y6487D01*
Y6462D01*
X4359Y6449D01*
X4409D01*
X4421Y6462D01*
Y6487D01*
X4409Y6499D01*
X4421Y6574D02*
Y6524D01*
X4371Y6574D01*
X4359D01*
X4346Y6562D01*
Y6537D01*
X4359Y6524D01*
X4158Y6497D02*
X4145Y6484D01*
Y6459D01*
X4158Y6447D01*
X4208D01*
X4220Y6459D01*
Y6484D01*
X4208Y6497D01*
X4220Y6522D02*
Y6547D01*
Y6534D01*
X4145D01*
X4158Y6522D01*
X6633Y5471D02*
X6558D01*
Y5433D01*
X6570Y5421D01*
X6583D01*
X6595Y5433D01*
Y5471D01*
Y5433D01*
X6608Y5421D01*
X6620D01*
X6633Y5433D01*
Y5471D01*
X6558Y5396D02*
X6608D01*
X6633Y5371D01*
X6608Y5346D01*
X6558D01*
X6595D01*
Y5396D01*
X6633Y5321D02*
Y5271D01*
Y5296D01*
X6558D01*
X6633Y5246D02*
Y5196D01*
Y5221D01*
X6558D01*
X5725Y128D02*
X5727Y126D01*
X3756Y3782D02*
Y4782D01*
Y3782D02*
X4756D01*
Y4782D01*
X3756D02*
X4756D01*
X1401Y324D02*
X1598Y126D01*
X3577D01*
Y1926D01*
X4977D01*
X4977Y126D02*
X4977Y1926D01*
X4977Y126D02*
X6952D01*
X8457Y1632D01*
Y3607D01*
X6657D02*
X8457D01*
X6657D02*
Y5007D01*
X8463D01*
Y6982D01*
X6957Y8487D02*
X8463Y6982D01*
X6957Y8488D02*
X6957Y8487D01*
X4982Y8488D02*
X6957D01*
X4982Y6686D02*
Y8488D01*
X3582Y6686D02*
X4982D01*
X3582D02*
Y8488D01*
X1607D02*
X3582D01*
X101Y6983D02*
X1607Y8488D01*
X101Y5008D02*
Y6983D01*
Y5008D02*
X1906D01*
Y3608D02*
Y5008D01*
X106Y3608D02*
X1906D01*
X106Y1633D02*
Y3608D01*
Y1633D02*
X312Y1427D01*
X460Y1576D01*
X1556Y480D01*
X1401Y324D02*
X1556Y480D01*
D15*
X4436Y6088D02*
X4453D01*
X4445D01*
Y6038D01*
X4436D01*
X4453D01*
X4511Y6080D02*
X4503Y6088D01*
X4486D01*
X4478Y6080D01*
Y6046D01*
X4486Y6038D01*
X4503D01*
X4511Y6046D01*
X4528Y6038D02*
X4545D01*
X4536D01*
Y6088D01*
X4528Y6080D01*
X3570Y5712D02*
X3520D01*
Y5674D01*
X3545D01*
X3520D01*
Y5637D01*
X3595Y5712D02*
Y5637D01*
X3632D01*
X3644Y5649D01*
Y5662D01*
X3632Y5674D01*
X3595D01*
X3632D01*
X3644Y5687D01*
Y5699D01*
X3632Y5712D01*
X3595D01*
X3719Y5637D02*
X3669D01*
X3719Y5687D01*
Y5699D01*
X3707Y5712D01*
X3682D01*
X3669Y5699D01*
X4257Y6469D02*
Y6436D01*
X4282D01*
Y6452D01*
Y6436D01*
X4307D01*
X4257Y6486D02*
X4307D01*
Y6511D01*
X4298Y6519D01*
X4290D01*
X4282Y6511D01*
Y6486D01*
Y6511D01*
X4273Y6519D01*
X4265D01*
X4257Y6511D01*
Y6486D01*
X4307Y6536D02*
Y6552D01*
Y6544D01*
X4257D01*
X4265Y6536D01*
D16*
X5314Y918D02*
X5389D01*
Y968D01*
X5339Y1005D02*
Y1030D01*
X5352Y1043D01*
X5389D01*
Y1005D01*
X5377Y993D01*
X5364Y1005D01*
Y1043D01*
X5327Y1080D02*
X5339D01*
Y1068D01*
Y1093D01*
Y1080D01*
X5377D01*
X5389Y1093D01*
X5339Y1180D02*
Y1143D01*
X5352Y1130D01*
X5377D01*
X5389Y1143D01*
Y1180D01*
X5314Y1205D02*
X5389D01*
X5352D01*
X5339Y1218D01*
Y1243D01*
X5352Y1255D01*
X5389D01*
X5339Y1293D02*
Y1318D01*
X5352Y1330D01*
X5389D01*
Y1293D01*
X5377Y1280D01*
X5364Y1293D01*
Y1330D01*
X5314Y1405D02*
X5389D01*
Y1368D01*
X5377Y1355D01*
X5352D01*
X5339Y1368D01*
Y1405D01*
X5314Y1480D02*
X5389D01*
Y1443D01*
X5377Y1430D01*
X5352D01*
X5339Y1443D01*
Y1480D01*
M02*
