G04*
G04 #@! TF.GenerationSoftware,Altium Limited,Altium Designer,21.8.1 (53)*
G04*
G04 Layer_Color=2752767*
%FSLAX42Y42*%
%MOMM*%
G71*
G04*
G04 #@! TF.SameCoordinates,4C7B3126-2604-42B9-8956-4212446E7276*
G04*
G04*
G04 #@! TF.FilePolarity,Positive*
G04*
G01*
G75*
%ADD14C,0.25*%
%ADD90C,0.05*%
%ADD91C,0.07*%
%ADD92C,0.03*%
D14*
X5725Y128D02*
X5727Y126D01*
X3756Y3782D02*
Y4782D01*
Y3782D02*
X4756D01*
Y4782D01*
X3756D02*
X4756D01*
X1401Y324D02*
X1598Y126D01*
X3577D01*
Y1926D01*
X4977D01*
X4977Y126D02*
X4977Y1926D01*
X4977Y126D02*
X6952D01*
X8457Y1632D01*
Y3607D01*
X6657D02*
X8457D01*
X6657D02*
Y5007D01*
X8463D01*
Y6982D01*
X6957Y8487D02*
X8463Y6982D01*
X6957Y8488D02*
X6957Y8487D01*
X4982Y8488D02*
X6957D01*
X4982Y6686D02*
Y8488D01*
X3582Y6686D02*
X4982D01*
X3582D02*
Y8488D01*
X1607D02*
X3582D01*
X101Y6983D02*
X1607Y8488D01*
X101Y5008D02*
Y6983D01*
Y5008D02*
X1906D01*
Y3608D02*
Y5008D01*
X106Y3608D02*
X1906D01*
X106Y1633D02*
Y3608D01*
Y1633D02*
X312Y1427D01*
X460Y1576D01*
X1556Y480D01*
X1401Y324D02*
X1556Y480D01*
D90*
X5487Y636D02*
Y677D01*
X5528D01*
Y636D01*
X5487D01*
X3031Y7937D02*
Y7978D01*
X3072D01*
Y7937D01*
X3031D01*
X7082Y5222D02*
X7061Y5263D01*
X7102D01*
X7082Y5222D01*
X6882D02*
X6861Y5263D01*
X6902D01*
X6882Y5222D01*
X5851Y2220D02*
X5831Y2261D01*
X5872D01*
X5851Y2220D01*
X5651D02*
X5631Y2261D01*
X5672D01*
X5651Y2220D01*
Y3254D02*
X5631Y3294D01*
X5672D01*
X5651Y3254D01*
X5851D02*
X5831Y3294D01*
X5872D01*
X5851Y3254D01*
X3424Y3396D02*
X3404Y3437D01*
X3444D01*
X3424Y3396D01*
X3624D02*
X3604Y3437D01*
X3644D01*
X3624Y3396D01*
X1451Y2017D02*
X1461Y2027D01*
X1471D01*
X1461Y2037D01*
X1471Y2047D01*
X1461D01*
X1451Y2058D01*
X1440Y2047D01*
X1430D01*
X1440Y2037D01*
X1430Y2027D01*
X1440D01*
X1451Y2017D01*
X1630Y1837D02*
X1640Y1847D01*
X1650D01*
X1640Y1858D01*
X1650Y1868D01*
X1640D01*
X1630Y1878D01*
X1620Y1868D01*
X1610D01*
X1620Y1858D01*
X1610Y1847D01*
X1620D01*
X1630Y1837D01*
X1810Y1658D02*
X1820Y1668D01*
X1830D01*
X1820Y1678D01*
X1830Y1688D01*
X1820D01*
X1810Y1698D01*
X1800Y1688D01*
X1789D01*
X1800Y1678D01*
X1789Y1668D01*
X1800D01*
X1810Y1658D01*
X1989Y1478D02*
X2000Y1488D01*
X2010D01*
X2000Y1498D01*
X2010Y1509D01*
X2000D01*
X1989Y1519D01*
X1979Y1509D01*
X1969D01*
X1979Y1498D01*
X1969Y1488D01*
X1979D01*
X1989Y1478D01*
X5852Y2748D02*
X5832Y2789D01*
X5872D01*
X5852Y2748D01*
X5652D02*
X5632Y2789D01*
X5672D01*
X5652Y2748D01*
X5637Y4887D02*
X5617Y4928D01*
X5657D01*
X5637Y4887D01*
X5837D02*
X5817Y4928D01*
X5857D01*
X5837Y4887D01*
X5637Y5367D02*
X5617Y5408D01*
X5657D01*
X5637Y5367D01*
X5837D02*
X5817Y5408D01*
X5857D01*
X5837Y5367D01*
X5637Y5870D02*
X5617Y5911D01*
X5657D01*
X5637Y5870D01*
X5837D02*
X5817Y5911D01*
X5857D01*
X5837Y5870D01*
X5837Y6375D02*
X5817Y6416D01*
X5857D01*
X5837Y6375D01*
X5637D02*
X5617Y6416D01*
X5657D01*
X5637Y6375D01*
Y6884D02*
X5617Y6925D01*
X5657D01*
X5637Y6884D01*
X5837D02*
X5817Y6925D01*
X5857D01*
X5837Y6884D01*
X2736Y6242D02*
X2716Y6283D01*
X2756D01*
X2736Y6242D01*
Y6442D02*
X2716Y6483D01*
X2756D01*
X2736Y6442D01*
X7607Y6520D02*
X7617Y6540D01*
X7607Y6561D01*
X7627Y6551D01*
X7647Y6561D01*
X7637Y6540D01*
X7647Y6520D01*
X7627Y6530D01*
X7607Y6520D01*
X7861D02*
X7871Y6540D01*
X7861Y6561D01*
X7881Y6551D01*
X7901Y6561D01*
X7891Y6540D01*
X7901Y6520D01*
X7881Y6530D01*
X7861Y6520D01*
X7607Y6266D02*
X7617Y6286D01*
X7607Y6307D01*
X7627Y6297D01*
X7647Y6307D01*
X7637Y6286D01*
X7647Y6266D01*
X7627Y6276D01*
X7607Y6266D01*
X7861D02*
X7871Y6286D01*
X7861Y6307D01*
X7881Y6297D01*
X7901Y6307D01*
X7891Y6286D01*
X7901Y6266D01*
X7881Y6276D01*
X7861Y6266D01*
X7607Y6012D02*
X7617Y6032D01*
X7607Y6053D01*
X7627Y6043D01*
X7647Y6053D01*
X7637Y6032D01*
X7647Y6012D01*
X7627Y6022D01*
X7607Y6012D01*
X7861D02*
X7871Y6032D01*
X7861Y6053D01*
X7881Y6043D01*
X7901Y6053D01*
X7891Y6032D01*
X7901Y6012D01*
X7881Y6022D01*
X7861Y6012D01*
X7607Y5758D02*
X7617Y5778D01*
X7607Y5799D01*
X7627Y5789D01*
X7647Y5799D01*
X7637Y5778D01*
X7647Y5758D01*
X7627Y5768D01*
X7607Y5758D01*
X7861D02*
X7871Y5778D01*
X7861Y5799D01*
X7881Y5789D01*
X7901Y5799D01*
X7891Y5778D01*
X7901Y5758D01*
X7881Y5768D01*
X7861Y5758D01*
X7607Y5504D02*
X7617Y5524D01*
X7607Y5545D01*
X7627Y5535D01*
X7647Y5545D01*
X7637Y5524D01*
X7647Y5504D01*
X7627Y5514D01*
X7607Y5504D01*
X7861D02*
X7871Y5524D01*
X7861Y5545D01*
X7881Y5535D01*
X7901Y5545D01*
X7891Y5524D01*
X7901Y5504D01*
X7881Y5514D01*
X7861Y5504D01*
X3247Y6244D02*
X3227Y6285D01*
X3268D01*
X3247Y6244D01*
Y6444D02*
X3227Y6485D01*
X3268D01*
X3247Y6444D01*
X5851Y1179D02*
X5831Y1219D01*
X5872D01*
X5851Y1179D01*
X5651D02*
X5631Y1219D01*
X5672D01*
X5651Y1179D01*
X7274Y7899D02*
Y7889D01*
X7295D01*
Y7899D01*
X7305D01*
Y7919D01*
X7295D01*
Y7930D01*
X7274D01*
Y7919D01*
X7264D01*
Y7899D01*
X7274D01*
X7885Y7288D02*
Y7278D01*
X7906D01*
Y7288D01*
X7916D01*
Y7308D01*
X7906D01*
Y7319D01*
X7885D01*
Y7308D01*
X7875D01*
Y7288D01*
X7885D01*
X7006Y7630D02*
Y7620D01*
X7026D01*
Y7630D01*
X7036D01*
Y7651D01*
X7026D01*
Y7661D01*
X7006D01*
Y7651D01*
X6996D01*
Y7630D01*
X7006D01*
X7617Y7019D02*
Y7009D01*
X7637D01*
Y7019D01*
X7647D01*
Y7040D01*
X7637D01*
Y7050D01*
X7617D01*
Y7040D01*
X7607D01*
Y7019D01*
X7617D01*
X5873Y7889D02*
X5883D01*
X5893Y7899D01*
X5904Y7889D01*
X5914D01*
Y7899D01*
X5904Y7910D01*
X5914Y7920D01*
Y7930D01*
X5904D01*
X5893Y7920D01*
X5883Y7930D01*
X5873D01*
Y7920D01*
X5883Y7910D01*
X5873Y7899D01*
Y7889D01*
X6273D02*
X6283D01*
X6293Y7899D01*
X6304Y7889D01*
X6314D01*
Y7899D01*
X6304Y7910D01*
X6314Y7920D01*
Y7930D01*
X6304D01*
X6293Y7920D01*
X6283Y7930D01*
X6273D01*
Y7920D01*
X6283Y7910D01*
X6273Y7899D01*
Y7889D01*
X5652Y1707D02*
X5632Y1748D01*
X5672D01*
X5652Y1707D01*
X5852D02*
X5832Y1748D01*
X5872D01*
X5852Y1707D01*
X2229Y6246D02*
X2208Y6287D01*
X2249D01*
X2229Y6246D01*
Y6446D02*
X2208Y6487D01*
X2249D01*
X2229Y6446D01*
X7205Y6594D02*
X7225Y6614D01*
X7245Y6594D01*
X7225Y6574D01*
X7205Y6594D01*
X6802Y5857D02*
Y5898D01*
X6843D01*
Y5857D01*
X6802D01*
X6812Y5867D02*
Y5888D01*
X6833D01*
Y5867D01*
X6812D01*
X4165Y6182D02*
Y6223D01*
X4205D01*
Y6182D01*
X4165D01*
X4175Y6193D02*
Y6213D01*
X4195D01*
Y6193D01*
X4175D01*
X4366Y6462D02*
Y6502D01*
X4407D01*
Y6462D01*
X4366D01*
X4376Y6472D02*
Y6492D01*
X4397D01*
Y6472D01*
X4376D01*
X3018Y5588D02*
X3038Y5608D01*
X3058Y5588D01*
X3038Y5568D01*
X3018Y5588D01*
X2499Y5829D02*
X2479Y5870D01*
X2520D01*
X2499Y5829D01*
Y5839D02*
X2489Y5860D01*
X2510D01*
X2499Y5839D01*
X3381Y5738D02*
Y5778D01*
X3421D01*
Y5738D01*
X3381D01*
X3391Y5748D02*
Y5768D01*
X3411D01*
Y5748D01*
X3391D01*
X7399Y6597D02*
Y6637D01*
X7440D01*
Y6597D01*
X7399D01*
X7409Y6607D02*
Y6627D01*
X7429D01*
Y6607D01*
X7409D01*
X6822Y5730D02*
Y5771D01*
X6863D01*
Y5730D01*
X6822D01*
X6833Y5740D02*
Y5761D01*
X6853D01*
Y5740D01*
X6833D01*
X4349Y5624D02*
Y5665D01*
X4390D01*
Y5624D01*
X4349D01*
X4360Y5634D02*
Y5655D01*
X4380D01*
Y5634D01*
X4360D01*
X4248Y5623D02*
Y5664D01*
X4289D01*
Y5623D01*
X4248D01*
X4258Y5633D02*
Y5654D01*
X4279D01*
Y5633D01*
X4258D01*
X4152Y5623D02*
Y5664D01*
X4193D01*
Y5623D01*
X4152D01*
X4162Y5633D02*
Y5654D01*
X4183D01*
Y5633D01*
X4162D01*
X4349Y5721D02*
Y5762D01*
X4390D01*
Y5721D01*
X4349D01*
X4360Y5731D02*
Y5751D01*
X4380D01*
Y5731D01*
X4360D01*
X4246Y5722D02*
Y5763D01*
X4287D01*
Y5722D01*
X4246D01*
X4257Y5732D02*
Y5753D01*
X4277D01*
Y5732D01*
X4257D01*
X4149Y5723D02*
Y5764D01*
X4190D01*
Y5723D01*
X4149D01*
X4160Y5733D02*
Y5754D01*
X4180D01*
Y5733D01*
X4160D01*
X4247Y5823D02*
Y5864D01*
X4287D01*
Y5823D01*
X4247D01*
X4257Y5833D02*
Y5854D01*
X4277D01*
Y5833D01*
X4257D01*
X4349Y5821D02*
Y5862D01*
X4390D01*
Y5821D01*
X4349D01*
X4360Y5831D02*
Y5851D01*
X4380D01*
Y5831D01*
X4360D01*
X4147Y5823D02*
Y5864D01*
X4187D01*
Y5823D01*
X4147D01*
X4157Y5833D02*
Y5854D01*
X4177D01*
Y5833D01*
X4157D01*
D91*
X497Y7103D02*
G03*
X497Y7103I-20J0D01*
G01*
X1431Y8037D02*
G03*
X1431Y8037I-20J0D01*
G01*
X1971Y7228D02*
G03*
X1971Y7228I-20J0D01*
G01*
X1638Y6896D02*
G03*
X1638Y6896I-20J0D01*
G01*
X1306Y6564D02*
G03*
X1306Y6564I-20J0D01*
G01*
X7564Y1144D02*
G03*
X7564Y1144I-20J0D01*
G01*
X5062Y5794D02*
G03*
X5062Y5794I-20J0D01*
G01*
X5070Y5715D02*
G03*
X5070Y5715I-20J0D01*
G01*
D92*
X7554Y1144D02*
G03*
X7554Y1144I-10J0D01*
G01*
X5052Y5794D02*
G03*
X5052Y5794I-10J0D01*
G01*
X5060Y5715D02*
G03*
X5060Y5715I-10J0D01*
G01*
M02*
