G04*
G04 #@! TF.GenerationSoftware,Altium Limited,Altium Designer,21.8.1 (53)*
G04*
G04 Layer_Color=32768*
%FSLAX42Y42*%
%MOMM*%
G71*
G04*
G04 #@! TF.SameCoordinates,4C7B3126-2604-42B9-8956-4212446E7276*
G04*
G04*
G04 #@! TF.FilePolarity,Positive*
G04*
G01*
G75*
%ADD12C,0.10*%
%ADD14C,0.25*%
%ADD89C,0.05*%
D12*
X1105Y8681D02*
X2423Y7363D01*
X-167Y7409D02*
X1105Y8681D01*
X-167Y7409D02*
X1151Y6091D01*
X2423Y7363D01*
X3619Y5747D02*
Y5782D01*
X3602Y5765D02*
X3637D01*
X3550Y5740D02*
X3690D01*
X3550Y5790D02*
X3690D01*
Y5740D02*
Y5790D01*
X3550Y5740D02*
Y5790D01*
X4259Y6276D02*
X4309D01*
X4259Y6416D02*
X4309D01*
X4259Y6276D02*
Y6416D01*
X4309Y6276D02*
Y6416D01*
X4284Y6329D02*
Y6364D01*
X4266Y6346D02*
X4301D01*
D14*
X5725Y128D02*
X5727Y126D01*
X3756Y3782D02*
Y4782D01*
Y3782D02*
X4756D01*
Y4782D01*
X3756D02*
X4756D01*
X1401Y324D02*
X1598Y126D01*
X3577D01*
Y1926D01*
X4977D01*
X4977Y126D02*
X4977Y1926D01*
X4977Y126D02*
X6952D01*
X8457Y1632D01*
Y3607D01*
X6657D02*
X8457D01*
X6657D02*
Y5007D01*
X8463D01*
Y6982D01*
X6957Y8487D02*
X8463Y6982D01*
X6957Y8488D02*
X6957Y8487D01*
X4982Y8488D02*
X6957D01*
X4982Y6686D02*
Y8488D01*
X3582Y6686D02*
X4982D01*
X3582D02*
Y8488D01*
X1607D02*
X3582D01*
X101Y6983D02*
X1607Y8488D01*
X101Y5008D02*
Y6983D01*
Y5008D02*
X1906D01*
Y3608D02*
Y5008D01*
X106Y3608D02*
X1906D01*
X106Y1633D02*
Y3608D01*
Y1633D02*
X312Y1427D01*
X460Y1576D01*
X1556Y480D01*
X1401Y324D02*
X1556Y480D01*
D89*
X6568Y7910D02*
G03*
X6568Y7910I-475J0D01*
G01*
X6662Y5048D02*
Y5548D01*
X7302D01*
Y5048D02*
Y5548D01*
X6662Y5048D02*
X7302D01*
X5431Y2045D02*
Y2545D01*
X6071D01*
Y2045D02*
Y2545D01*
X5431Y2045D02*
X6071D01*
X5431Y3079D02*
X6071D01*
Y3579D01*
X5431D02*
X6071D01*
X5431Y3079D02*
Y3579D01*
X3204Y3221D02*
X3844D01*
Y3721D01*
X3204D02*
X3844D01*
X3204Y3221D02*
Y3721D01*
X1391Y2229D02*
X2181Y1439D01*
X1388Y646D02*
X2181Y1439D01*
X598Y1436D02*
X1388Y646D01*
X598Y1436D02*
X1391Y2229D01*
X5432Y2574D02*
Y3074D01*
X6072D01*
Y2574D02*
Y3074D01*
X5432Y2574D02*
X6072D01*
X5417Y4712D02*
X6057D01*
Y5212D01*
X5417D02*
X6057D01*
X5417Y4712D02*
Y5212D01*
X5417Y5192D02*
X6057D01*
Y5692D01*
X5417D02*
X6057D01*
X5417Y5192D02*
Y5692D01*
X5417Y5695D02*
X6057D01*
Y6195D01*
X5417D02*
X6057D01*
X5417Y5695D02*
Y6195D01*
X5417Y6201D02*
Y6701D01*
X6057D01*
Y6201D02*
Y6701D01*
X5417Y6201D02*
X6057D01*
X5417Y6710D02*
X6057D01*
Y7210D01*
X5417D02*
X6057D01*
X5417Y6710D02*
Y7210D01*
X2931Y6043D02*
Y6683D01*
X2431D02*
X2931D01*
X2431Y6043D02*
Y6683D01*
Y6043D02*
X2931D01*
X2419Y4963D02*
X2929D01*
Y5528D01*
X2419D02*
X2929D01*
X2419Y4963D02*
Y5528D01*
X3442Y6044D02*
Y6684D01*
X2942D02*
X3442D01*
X2942Y6044D02*
Y6684D01*
Y6044D02*
X3442D01*
X5431Y1004D02*
Y1504D01*
X6071D01*
Y1004D02*
Y1504D01*
X5431Y1004D02*
X6071D01*
X7154Y6189D02*
X7297D01*
X7154Y6482D02*
X7297D01*
Y6189D02*
Y6482D01*
X7154Y6189D02*
Y6482D01*
X6743Y6417D02*
Y6617D01*
X6593Y6417D02*
X6743D01*
X6593D02*
Y6617D01*
X6743D01*
X7075Y5905D02*
Y6080D01*
X6835Y5905D02*
Y6080D01*
Y5905D02*
X7075D01*
X6835Y6080D02*
X7075D01*
X6777Y5792D02*
Y6085D01*
X6634Y5792D02*
Y6085D01*
Y5792D02*
X6777D01*
X6634Y6085D02*
X6777D01*
X6805Y6195D02*
Y6293D01*
X6780D02*
X6805D01*
X6780D02*
Y6519D01*
X6805D01*
Y6617D01*
X7105Y6519D02*
Y6617D01*
Y6519D02*
X7130D01*
Y6293D02*
Y6519D01*
X7105Y6293D02*
X7130D01*
X7105Y6195D02*
Y6293D01*
X6805Y6195D02*
X7105D01*
X6805Y6617D02*
X7105D01*
X8184Y6131D02*
Y6331D01*
X8034Y6131D02*
X8184D01*
X8034D02*
Y6331D01*
X8184D01*
X8044Y6471D02*
Y6671D01*
X8194D01*
Y6471D02*
Y6671D01*
X8044Y6471D02*
X8194D01*
X7590Y6875D02*
X8156Y7441D01*
X7427Y8169D02*
X8156Y7441D01*
X6862Y7604D02*
X7427Y8169D01*
X6862Y7604D02*
X7590Y6875D01*
X2921Y5554D02*
Y5746D01*
X2584Y5554D02*
Y5746D01*
X2921D01*
X2584Y5554D02*
X2921D01*
X2926Y5774D02*
Y5924D01*
X2726D02*
X2926D01*
X2726Y5774D02*
Y5924D01*
Y5774D02*
X2926D01*
X4599Y6234D02*
X4949D01*
Y6609D01*
X4599D02*
X4949D01*
X4599Y6234D02*
Y6609D01*
X4962Y6419D02*
Y6612D01*
X5072Y6419D02*
Y6612D01*
X4962D02*
X5072D01*
X4962Y6419D02*
X5072D01*
X4045Y5016D02*
Y5226D01*
X4295D01*
Y5016D02*
Y5226D01*
X4045Y5016D02*
X4295D01*
X3927Y5212D02*
X4035D01*
Y5042D02*
Y5212D01*
X3927Y5042D02*
X4035D01*
X3927D02*
Y5212D01*
X4311Y5037D02*
X4419D01*
X4311D02*
Y5207D01*
X4419D01*
Y5037D02*
Y5207D01*
X4449Y5036D02*
Y5206D01*
Y5036D02*
X4557D01*
Y5206D01*
X4449D02*
X4557D01*
X4004Y5482D02*
Y6007D01*
Y5482D02*
X4529D01*
Y6007D01*
X4004D02*
X4529D01*
X7347Y789D02*
X7489Y648D01*
X7856Y1015D01*
X7715Y1157D02*
X7856Y1015D01*
X7347Y789D02*
X7715Y1157D01*
X1797Y2052D02*
X1938Y1911D01*
X1832Y1805D02*
X1938Y1911D01*
X1691Y1946D02*
X1832Y1805D01*
X1691Y1946D02*
X1797Y2052D01*
X4565Y6250D02*
Y6443D01*
X4455Y6250D02*
Y6443D01*
Y6250D02*
X4565D01*
X4455Y6443D02*
X4565D01*
X4438Y6249D02*
Y6419D01*
X4330D02*
X4438D01*
X4330Y6249D02*
Y6419D01*
Y6249D02*
X4438D01*
X4131Y6419D02*
X4239D01*
Y6249D02*
Y6419D01*
X4131Y6249D02*
X4239D01*
X4131D02*
Y6419D01*
X1442Y2180D02*
X1584Y2038D01*
X1442Y2180D02*
X1548Y2286D01*
X1690Y2144D01*
X1584Y2038D02*
X1690Y2144D01*
X7329Y1366D02*
X7435Y1472D01*
X7329Y1366D02*
X7470Y1225D01*
X7576Y1331D01*
X7435Y1472D02*
X7576Y1331D01*
X7136Y1196D02*
X7242Y1302D01*
X7136Y1196D02*
X7277Y1055D01*
X7383Y1161D01*
X7242Y1302D02*
X7383Y1161D01*
X5432Y1532D02*
X6072D01*
Y2032D01*
X5432D02*
X6072D01*
X5432Y1532D02*
Y2032D01*
X2424Y6046D02*
Y6686D01*
X1924D02*
X2424D01*
X1924Y6046D02*
Y6686D01*
Y6046D02*
X2424D01*
M02*
