G04*
G04 #@! TF.GenerationSoftware,Altium Limited,Altium Designer,21.8.1 (53)*
G04*
G04 Layer_Color=8388736*
%FSLAX42Y42*%
%MOMM*%
G71*
G04*
G04 #@! TF.SameCoordinates,4C7B3126-2604-42B9-8956-4212446E7276*
G04*
G04*
G04 #@! TF.FilePolarity,Negative*
G04*
G01*
G75*
%ADD14C,0.25*%
%ADD39R,0.90X0.90*%
%ADD40R,1.13X1.21*%
%ADD41R,0.80X0.74*%
%ADD42R,0.50X1.14*%
G04:AMPARAMS|DCode=43|XSize=0.85mm|YSize=0.4mm|CornerRadius=0.13mm|HoleSize=0mm|Usage=FLASHONLY|Rotation=0.000|XOffset=0mm|YOffset=0mm|HoleType=Round|Shape=RoundedRectangle|*
%AMROUNDEDRECTD43*
21,1,0.85,0.15,0,0,0.0*
21,1,0.60,0.40,0,0,0.0*
1,1,0.25,0.30,-0.08*
1,1,0.25,-0.30,-0.08*
1,1,0.25,-0.30,0.08*
1,1,0.25,0.30,0.08*
%
%ADD43ROUNDEDRECTD43*%
G04:AMPARAMS|DCode=44|XSize=1.42mm|YSize=0.8mm|CornerRadius=0.25mm|HoleSize=0mm|Usage=FLASHONLY|Rotation=90.000|XOffset=0mm|YOffset=0mm|HoleType=Round|Shape=RoundedRectangle|*
%AMROUNDEDRECTD44*
21,1,1.42,0.30,0,0,90.0*
21,1,0.92,0.80,0,0,90.0*
1,1,0.50,0.15,0.46*
1,1,0.50,0.15,-0.46*
1,1,0.50,-0.15,-0.46*
1,1,0.50,-0.15,0.46*
%
%ADD44ROUNDEDRECTD44*%
G04:AMPARAMS|DCode=45|XSize=0.9mm|YSize=1.4mm|CornerRadius=0mm|HoleSize=0mm|Usage=FLASHONLY|Rotation=135.000|XOffset=0mm|YOffset=0mm|HoleType=Round|Shape=Rectangle|*
%AMROTATEDRECTD45*
4,1,4,0.82,0.18,-0.18,-0.82,-0.82,-0.18,0.18,0.82,0.82,0.18,0.0*
%
%ADD45ROTATEDRECTD45*%

G04:AMPARAMS|DCode=46|XSize=0.96mm|YSize=1.4mm|CornerRadius=0mm|HoleSize=0mm|Usage=FLASHONLY|Rotation=135.000|XOffset=0mm|YOffset=0mm|HoleType=Round|Shape=Rectangle|*
%AMROTATEDRECTD46*
4,1,4,0.84,0.16,-0.16,-0.84,-0.84,-0.16,0.16,0.84,0.84,0.16,0.0*
%
%ADD46ROTATEDRECTD46*%

G04:AMPARAMS|DCode=47|XSize=1mm|YSize=1.4mm|CornerRadius=0mm|HoleSize=0mm|Usage=FLASHONLY|Rotation=135.000|XOffset=0mm|YOffset=0mm|HoleType=Round|Shape=Rectangle|*
%AMROTATEDRECTD47*
4,1,4,0.85,0.14,-0.14,-0.85,-0.85,-0.14,0.14,0.85,0.85,0.14,0.0*
%
%ADD47ROTATEDRECTD47*%

%ADD48R,1.28X1.62*%
%ADD49R,0.70X0.50*%
%ADD50R,0.74X0.80*%
%ADD51R,0.80X1.25*%
%ADD52R,0.80X0.79*%
%ADD53R,0.95X0.90*%
G04:AMPARAMS|DCode=54|XSize=0.8mm|YSize=0.74mm|CornerRadius=0.24mm|HoleSize=0mm|Usage=FLASHONLY|Rotation=180.000|XOffset=0mm|YOffset=0mm|HoleType=Round|Shape=RoundedRectangle|*
%AMROUNDEDRECTD54*
21,1,0.80,0.25,0,0,180.0*
21,1,0.31,0.74,0,0,180.0*
1,1,0.49,-0.16,0.13*
1,1,0.49,0.16,0.13*
1,1,0.49,0.16,-0.13*
1,1,0.49,-0.16,-0.13*
%
%ADD54ROUNDEDRECTD54*%
%ADD55R,3.00X3.00*%
%ADD56R,0.40X1.00*%
%ADD57R,1.00X0.40*%
G04:AMPARAMS|DCode=58|XSize=0.86mm|YSize=0.83mm|CornerRadius=0mm|HoleSize=0mm|Usage=FLASHONLY|Rotation=45.000|XOffset=0mm|YOffset=0mm|HoleType=Round|Shape=Rectangle|*
%AMROTATEDRECTD58*
4,1,4,-0.01,-0.60,-0.60,-0.01,0.01,0.60,0.60,0.01,-0.01,-0.60,0.0*
%
%ADD58ROTATEDRECTD58*%

G04:AMPARAMS|DCode=59|XSize=0.6mm|YSize=1mm|CornerRadius=0mm|HoleSize=0mm|Usage=FLASHONLY|Rotation=45.000|XOffset=0mm|YOffset=0mm|HoleType=Round|Shape=Rectangle|*
%AMROTATEDRECTD59*
4,1,4,0.14,-0.57,-0.57,0.14,-0.14,0.57,0.57,-0.14,0.14,-0.57,0.0*
%
%ADD59ROTATEDRECTD59*%

G04:AMPARAMS|DCode=60|XSize=0.74mm|YSize=0.8mm|CornerRadius=0mm|HoleSize=0mm|Usage=FLASHONLY|Rotation=315.000|XOffset=0mm|YOffset=0mm|HoleType=Round|Shape=Rectangle|*
%AMROTATEDRECTD60*
4,1,4,-0.55,-0.02,0.02,0.55,0.55,0.02,-0.02,-0.55,-0.55,-0.02,0.0*
%
%ADD60ROTATEDRECTD60*%

%ADD61R,0.50X0.70*%
%ADD62C,3.70*%
%ADD63C,2.98*%
%ADD64R,1.57X1.57*%
%ADD65C,1.57*%
%ADD66C,1.57*%
%ADD67P,2.22X4X360.0*%
%ADD68R,1.57X1.57*%
%ADD69R,1.70X1.70*%
%ADD70C,1.70*%
G04:AMPARAMS|DCode=71|XSize=1.6mm|YSize=0.8mm|CornerRadius=0mm|HoleSize=0mm|Usage=FLASHONLY|Rotation=225.000|XOffset=0mm|YOffset=0mm|HoleType=Round|Shape=Round|*
%AMOVALD71*
21,1,0.80,0.80,0.00,0.00,225.0*
1,1,0.80,0.28,0.28*
1,1,0.80,-0.28,-0.28*
%
%ADD71OVALD71*%

%ADD72C,2.20*%
D14*
X5725Y128D02*
X5727Y126D01*
X3756Y3782D02*
Y4782D01*
Y3782D02*
X4756D01*
Y4782D01*
X3756D02*
X4756D01*
X1401Y324D02*
X1598Y126D01*
X3577D01*
Y1926D01*
X4977D01*
X4977Y126D02*
X4977Y1926D01*
X4977Y126D02*
X6952D01*
X8457Y1632D01*
Y3607D01*
X6657D02*
X8457D01*
X6657D02*
Y5007D01*
X8463D01*
Y6982D01*
X6957Y8487D02*
X8463Y6982D01*
X6957Y8488D02*
X6957Y8487D01*
X4982Y8488D02*
X6957D01*
X4982Y6686D02*
Y8488D01*
X3582Y6686D02*
X4982D01*
X3582D02*
Y8488D01*
X1607D02*
X3582D01*
X101Y6983D02*
X1607Y8488D01*
X101Y5008D02*
Y6983D01*
Y5008D02*
X1906D01*
Y3608D02*
Y5008D01*
X106Y3608D02*
X1906D01*
X106Y1633D02*
Y3608D01*
Y1633D02*
X312Y1427D01*
X460Y1576D01*
X1556Y480D01*
X1401Y324D02*
X1556Y480D01*
D39*
X2499Y5468D02*
D03*
Y5022D02*
D03*
X2849D02*
D03*
Y5468D02*
D03*
D40*
X7225Y6264D02*
D03*
Y6406D02*
D03*
X6706Y5867D02*
D03*
Y6009D02*
D03*
D41*
X6668Y6560D02*
D03*
Y6474D02*
D03*
X8109Y6274D02*
D03*
Y6188D02*
D03*
X8119Y6528D02*
D03*
Y6614D02*
D03*
D42*
X6955Y5992D02*
D03*
D43*
X7017Y6032D02*
D03*
Y5992D02*
D03*
Y5952D02*
D03*
X6892D02*
D03*
Y5992D02*
D03*
Y6032D02*
D03*
D44*
X6860Y6281D02*
D03*
X6955D02*
D03*
X7050D02*
D03*
Y6530D02*
D03*
X6860D02*
D03*
D45*
X7280Y7365D02*
D03*
X7351Y7294D02*
D03*
D46*
X7208Y7437D02*
D03*
X7423Y7222D02*
D03*
D47*
X7121Y7524D02*
D03*
X7510Y7135D02*
D03*
D48*
X2842Y5650D02*
D03*
X2663D02*
D03*
D49*
X3655Y5765D02*
D03*
X3585D02*
D03*
D50*
X2783Y5849D02*
D03*
X2869D02*
D03*
D51*
X4774Y6531D02*
D03*
X4869Y6311D02*
D03*
X4679D02*
D03*
D52*
X5016Y6557D02*
D03*
Y6473D02*
D03*
X4510Y6305D02*
D03*
Y6389D02*
D03*
D53*
X4102Y5071D02*
D03*
X4237D02*
D03*
Y5171D02*
D03*
X4102D02*
D03*
D54*
X3981Y5170D02*
D03*
Y5084D02*
D03*
X4365Y5079D02*
D03*
Y5165D02*
D03*
X4503Y5078D02*
D03*
Y5164D02*
D03*
X4384Y6377D02*
D03*
Y6291D02*
D03*
X4185Y6377D02*
D03*
Y6291D02*
D03*
D55*
X4267Y5745D02*
D03*
D56*
X4127Y5945D02*
D03*
X4167D02*
D03*
X4207D02*
D03*
X4247D02*
D03*
X4287D02*
D03*
X4327D02*
D03*
X4367D02*
D03*
X4407D02*
D03*
Y5545D02*
D03*
X4367D02*
D03*
X4327D02*
D03*
X4287D02*
D03*
X4247D02*
D03*
X4207D02*
D03*
X4167D02*
D03*
X4127D02*
D03*
D57*
X4067Y5605D02*
D03*
Y5645D02*
D03*
Y5685D02*
D03*
Y5725D02*
D03*
Y5765D02*
D03*
Y5805D02*
D03*
Y5845D02*
D03*
Y5885D02*
D03*
X4467D02*
D03*
Y5725D02*
D03*
Y5685D02*
D03*
Y5645D02*
D03*
Y5605D02*
D03*
Y5765D02*
D03*
Y5805D02*
D03*
Y5845D02*
D03*
D58*
X7483Y736D02*
D03*
X7768Y1021D02*
D03*
D59*
X7499Y834D02*
D03*
X7547Y882D02*
D03*
X7622Y957D02*
D03*
X7670Y1005D02*
D03*
D60*
X1784Y1959D02*
D03*
X1845Y1898D02*
D03*
X1596Y2132D02*
D03*
X1536Y2192D02*
D03*
X7483Y1318D02*
D03*
X7422Y1379D02*
D03*
X7290Y1148D02*
D03*
X7229Y1209D02*
D03*
D61*
X4284Y6311D02*
D03*
Y6381D02*
D03*
D62*
X5507Y657D02*
D03*
X3051Y7958D02*
D03*
D63*
X477Y7103D02*
D03*
X1411Y8037D02*
D03*
X1950Y7228D02*
D03*
X1618Y6896D02*
D03*
X1286Y6564D02*
D03*
D64*
X7082Y5243D02*
D03*
X5851Y2240D02*
D03*
Y3274D02*
D03*
X3624Y3416D02*
D03*
X5852Y2769D02*
D03*
X5837Y4907D02*
D03*
X5837Y5387D02*
D03*
X5837Y5890D02*
D03*
X5837Y6396D02*
D03*
Y6905D02*
D03*
X5851Y1199D02*
D03*
X5852Y1727D02*
D03*
D65*
X6882Y5243D02*
D03*
X5651Y2240D02*
D03*
Y3274D02*
D03*
X3424Y3416D02*
D03*
X5652Y2769D02*
D03*
X5637Y4907D02*
D03*
X5637Y5387D02*
D03*
X5637Y5890D02*
D03*
X5637Y6396D02*
D03*
Y6905D02*
D03*
X2736Y6263D02*
D03*
X3247Y6264D02*
D03*
X5651Y1199D02*
D03*
X5652Y1727D02*
D03*
X2229Y6266D02*
D03*
D66*
X1451Y2037D02*
D03*
X1630Y1858D02*
D03*
X1810Y1678D02*
D03*
D67*
X1989Y1498D02*
D03*
D68*
X2736Y6463D02*
D03*
X3247Y6464D02*
D03*
X2229Y6466D02*
D03*
D69*
X7627Y6540D02*
D03*
D70*
X7881D02*
D03*
X7627Y6286D02*
D03*
X7881D02*
D03*
X7627Y6032D02*
D03*
X7881D02*
D03*
X7627Y5778D02*
D03*
X7881D02*
D03*
X7627Y5524D02*
D03*
X7881D02*
D03*
D71*
X7285Y7909D02*
D03*
X7896Y7298D02*
D03*
X7016Y7640D02*
D03*
X7627Y7030D02*
D03*
D72*
X5893Y7910D02*
D03*
X6293D02*
D03*
M02*
