G04*
G04 #@! TF.GenerationSoftware,Altium Limited,Altium Designer,21.8.1 (53)*
G04*
G04 Layer_Physical_Order=1*
G04 Layer_Color=255*
%FSLAX42Y42*%
%MOMM*%
G71*
G04*
G04 #@! TF.SameCoordinates,4C7B3126-2604-42B9-8956-4212446E7276*
G04*
G04*
G04 #@! TF.FilePolarity,Positive*
G04*
G01*
G75*
%ADD14C,0.25*%
%ADD15C,0.15*%
%ADD18R,0.93X1.01*%
%ADD19R,0.60X0.54*%
G04:AMPARAMS|DCode=20|XSize=0.65mm|YSize=0.2mm|CornerRadius=0.03mm|HoleSize=0mm|Usage=FLASHONLY|Rotation=0.000|XOffset=0mm|YOffset=0mm|HoleType=Round|Shape=RoundedRectangle|*
%AMROUNDEDRECTD20*
21,1,0.65,0.15,0,0,0.0*
21,1,0.60,0.20,0,0,0.0*
1,1,0.05,0.30,-0.08*
1,1,0.05,-0.30,-0.08*
1,1,0.05,-0.30,0.08*
1,1,0.05,0.30,0.08*
%
%ADD20ROUNDEDRECTD20*%
G04:AMPARAMS|DCode=21|XSize=1.22mm|YSize=0.6mm|CornerRadius=0.15mm|HoleSize=0mm|Usage=FLASHONLY|Rotation=90.000|XOffset=0mm|YOffset=0mm|HoleType=Round|Shape=RoundedRectangle|*
%AMROUNDEDRECTD21*
21,1,1.22,0.30,0,0,90.0*
21,1,0.92,0.60,0,0,90.0*
1,1,0.30,0.15,0.46*
1,1,0.30,0.15,-0.46*
1,1,0.30,-0.15,-0.46*
1,1,0.30,-0.15,0.46*
%
%ADD21ROUNDEDRECTD21*%
G04:AMPARAMS|DCode=22|XSize=0.7mm|YSize=1.2mm|CornerRadius=0mm|HoleSize=0mm|Usage=FLASHONLY|Rotation=135.000|XOffset=0mm|YOffset=0mm|HoleType=Round|Shape=Rectangle|*
%AMROTATEDRECTD22*
4,1,4,0.67,0.18,-0.18,-0.67,-0.67,-0.18,0.18,0.67,0.67,0.18,0.0*
%
%ADD22ROTATEDRECTD22*%

G04:AMPARAMS|DCode=23|XSize=0.76mm|YSize=1.2mm|CornerRadius=0mm|HoleSize=0mm|Usage=FLASHONLY|Rotation=135.000|XOffset=0mm|YOffset=0mm|HoleType=Round|Shape=Rectangle|*
%AMROTATEDRECTD23*
4,1,4,0.69,0.16,-0.16,-0.69,-0.69,-0.16,0.16,0.69,0.69,0.16,0.0*
%
%ADD23ROTATEDRECTD23*%

G04:AMPARAMS|DCode=24|XSize=0.8mm|YSize=1.2mm|CornerRadius=0mm|HoleSize=0mm|Usage=FLASHONLY|Rotation=135.000|XOffset=0mm|YOffset=0mm|HoleType=Round|Shape=Rectangle|*
%AMROTATEDRECTD24*
4,1,4,0.71,0.14,-0.14,-0.71,-0.71,-0.14,0.14,0.71,0.71,0.14,0.0*
%
%ADD24ROTATEDRECTD24*%

%ADD25R,1.08X1.42*%
%ADD26R,0.50X0.30*%
%ADD27R,0.54X0.60*%
%ADD28R,0.60X1.05*%
%ADD29R,0.60X0.59*%
%ADD30R,0.75X0.70*%
G04:AMPARAMS|DCode=31|XSize=0.6mm|YSize=0.54mm|CornerRadius=0.14mm|HoleSize=0mm|Usage=FLASHONLY|Rotation=180.000|XOffset=0mm|YOffset=0mm|HoleType=Round|Shape=RoundedRectangle|*
%AMROUNDEDRECTD31*
21,1,0.60,0.25,0,0,180.0*
21,1,0.31,0.54,0,0,180.0*
1,1,0.29,-0.16,0.13*
1,1,0.29,0.16,0.13*
1,1,0.29,0.16,-0.13*
1,1,0.29,-0.16,-0.13*
%
%ADD31ROUNDEDRECTD31*%
%ADD32R,2.80X2.80*%
%ADD33R,0.20X0.80*%
%ADD34R,0.80X0.20*%
G04:AMPARAMS|DCode=35|XSize=0.66mm|YSize=0.63mm|CornerRadius=0mm|HoleSize=0mm|Usage=FLASHONLY|Rotation=45.000|XOffset=0mm|YOffset=0mm|HoleType=Round|Shape=Rectangle|*
%AMROTATEDRECTD35*
4,1,4,-0.01,-0.46,-0.46,-0.01,0.01,0.46,0.46,0.01,-0.01,-0.46,0.0*
%
%ADD35ROTATEDRECTD35*%

G04:AMPARAMS|DCode=36|XSize=0.4mm|YSize=0.8mm|CornerRadius=0mm|HoleSize=0mm|Usage=FLASHONLY|Rotation=45.000|XOffset=0mm|YOffset=0mm|HoleType=Round|Shape=Rectangle|*
%AMROTATEDRECTD36*
4,1,4,0.14,-0.42,-0.42,0.14,-0.14,0.42,0.42,-0.14,0.14,-0.42,0.0*
%
%ADD36ROTATEDRECTD36*%

G04:AMPARAMS|DCode=37|XSize=0.54mm|YSize=0.6mm|CornerRadius=0mm|HoleSize=0mm|Usage=FLASHONLY|Rotation=315.000|XOffset=0mm|YOffset=0mm|HoleType=Round|Shape=Rectangle|*
%AMROTATEDRECTD37*
4,1,4,-0.40,-0.02,0.02,0.40,0.40,0.02,-0.02,-0.40,-0.40,-0.02,0.0*
%
%ADD37ROTATEDRECTD37*%

%ADD38R,0.30X0.50*%
G04:AMPARAMS|DCode=71|XSize=1.6mm|YSize=0.8mm|CornerRadius=0mm|HoleSize=0mm|Usage=FLASHONLY|Rotation=225.000|XOffset=0mm|YOffset=0mm|HoleType=Round|Shape=Round|*
%AMOVALD71*
21,1,0.80,0.80,0.00,0.00,225.0*
1,1,0.80,0.28,0.28*
1,1,0.80,-0.28,-0.28*
%
%ADD71OVALD71*%

%ADD73R,0.50X0.50*%
%ADD74R,0.30X0.94*%
%ADD75C,3.50*%
%ADD76C,2.78*%
%ADD77R,1.37X1.37*%
%ADD78C,1.37*%
%ADD79C,1.37*%
%ADD80P,1.94X4X360.0*%
%ADD81R,1.37X1.37*%
%ADD82R,1.50X1.50*%
%ADD83C,1.50*%
%ADD84C,2.00*%
%ADD85C,1.00*%
%ADD86C,0.80*%
%ADD87C,0.60*%
%ADD88C,1.27*%
G36*
X6957Y8487D02*
X8463Y6982D01*
Y5007D01*
X6657D01*
Y3607D01*
X8457D01*
Y1632D01*
X6952Y126D01*
X4977D01*
X4977Y1926D01*
X3577D01*
Y126D01*
X1598D01*
X1401Y324D01*
X1556Y480D01*
X460Y1576D01*
X312Y1427D01*
X106Y1633D01*
Y3608D01*
X1906D01*
Y5008D01*
X101D01*
Y6983D01*
X1607Y8488D01*
X3582D01*
Y6686D01*
X4982D01*
Y8488D01*
X6957D01*
X6957Y8487D01*
D02*
G37*
%LPC*%
G36*
X1411Y8192D02*
X1381Y8189D01*
X1352Y8180D01*
X1325Y8165D01*
X1302Y8146D01*
X1283Y8123D01*
X1268Y8096D01*
X1260Y8067D01*
X1257Y8037D01*
X1260Y8007D01*
X1268Y7978D01*
X1283Y7951D01*
X1302Y7928D01*
X1325Y7909D01*
X1352Y7894D01*
X1381Y7885D01*
X1411Y7883D01*
X1441Y7885D01*
X1470Y7894D01*
X1497Y7909D01*
X1520Y7928D01*
X1540Y7951D01*
X1554Y7978D01*
X1563Y8007D01*
X1566Y8037D01*
X1563Y8067D01*
X1554Y8096D01*
X1540Y8123D01*
X1520Y8146D01*
X1497Y8165D01*
X1470Y8180D01*
X1441Y8189D01*
X1411Y8192D01*
D02*
G37*
G36*
X7313Y7994D02*
X7291Y7989D01*
X7273Y7977D01*
X7217Y7921D01*
X7204Y7902D01*
X7200Y7881D01*
X7204Y7859D01*
X7217Y7841D01*
X7235Y7829D01*
X7256Y7825D01*
X7278Y7829D01*
X7296Y7841D01*
X7353Y7898D01*
X7365Y7916D01*
X7369Y7937D01*
X7365Y7959D01*
X7353Y7977D01*
X7334Y7989D01*
X7313Y7994D01*
D02*
G37*
G36*
X6293Y8026D02*
X6263Y8022D01*
X6235Y8010D01*
X6211Y7992D01*
X6193Y7968D01*
X6181Y7940D01*
X6177Y7910D01*
X6181Y7880D01*
X6193Y7852D01*
X6211Y7828D01*
X6235Y7809D01*
X6263Y7798D01*
X6293Y7794D01*
X6323Y7798D01*
X6351Y7809D01*
X6375Y7828D01*
X6394Y7852D01*
X6406Y7880D01*
X6409Y7910D01*
X6406Y7940D01*
X6394Y7968D01*
X6375Y7992D01*
X6351Y8010D01*
X6323Y8022D01*
X6293Y8026D01*
D02*
G37*
G36*
X5893D02*
X5863Y8022D01*
X5835Y8010D01*
X5811Y7992D01*
X5793Y7968D01*
X5781Y7940D01*
X5777Y7910D01*
X5777Y7909D01*
X5777Y7909D01*
X5777Y7877D01*
X5775Y7851D01*
X5773Y7841D01*
X5772Y7832D01*
X5769Y7825D01*
X5767Y7819D01*
X5765Y7815D01*
X5763Y7812D01*
X5762Y7811D01*
X5526Y7575D01*
X5521Y7567D01*
X5519Y7558D01*
Y6725D01*
X5473Y6679D01*
X5468Y6671D01*
X5466Y6662D01*
Y6413D01*
X5388Y6334D01*
X4961D01*
X4959Y6335D01*
X4948Y6335D01*
X4939Y6336D01*
X4931Y6337D01*
X4924Y6338D01*
X4919Y6340D01*
X4916Y6341D01*
X4915Y6342D01*
X4915Y6344D01*
X4914Y6345D01*
Y6379D01*
X4824D01*
Y6244D01*
X4914D01*
Y6278D01*
X4915Y6279D01*
X4915Y6281D01*
X4916Y6282D01*
X4919Y6283D01*
X4924Y6285D01*
X4930Y6286D01*
X4948Y6288D01*
X4959Y6288D01*
X4961Y6289D01*
X5397D01*
X5406Y6290D01*
X5413Y6295D01*
X5496Y6378D01*
Y6100D01*
X5416Y6020D01*
X4986D01*
X4977Y6018D01*
X4970Y6013D01*
X4900Y5944D01*
X4432D01*
X4432Y5944D01*
Y6000D01*
X4392D01*
X4391Y6045D01*
X4390Y6047D01*
Y6079D01*
X4527Y6216D01*
X4532Y6224D01*
X4533Y6228D01*
X4534Y6232D01*
X4535Y6247D01*
X4535Y6252D01*
X4536Y6257D01*
X4537Y6260D01*
X4537Y6260D01*
X4555D01*
Y6344D01*
Y6362D01*
X4619Y6299D01*
X4626Y6294D01*
X4634Y6292D01*
Y6244D01*
X4724D01*
Y6379D01*
X4634D01*
Y6349D01*
X4578Y6405D01*
X4570Y6410D01*
X4565Y6411D01*
X4562Y6413D01*
X4555Y6413D01*
Y6433D01*
X4465D01*
Y6344D01*
Y6260D01*
X4484D01*
X4484Y6260D01*
X4485Y6257D01*
X4486Y6253D01*
X4486Y6241D01*
X4351Y6105D01*
X4346Y6098D01*
X4344Y6089D01*
Y6047D01*
X4343Y6045D01*
X4343Y6000D01*
X4343Y6000D01*
X4342D01*
Y5989D01*
X4342Y5988D01*
X4342Y5987D01*
Y5987D01*
X4341Y5985D01*
X4342Y5983D01*
X4341Y5982D01*
X4342Y5981D01*
Y5900D01*
X4312D01*
Y5982D01*
X4313Y5985D01*
X4313Y5985D01*
X4313Y5985D01*
X4311Y6045D01*
X4310Y6047D01*
Y6225D01*
X4311Y6227D01*
X4311Y6264D01*
X4312Y6271D01*
X4314D01*
Y6283D01*
X4315Y6285D01*
X4314Y6286D01*
X4315Y6287D01*
X4314Y6289D01*
Y6351D01*
X4254D01*
Y6292D01*
X4254Y6292D01*
X4254Y6289D01*
Y6289D01*
X4253Y6287D01*
X4254Y6285D01*
Y6271D01*
X4260D01*
X4261Y6270D01*
X4263Y6238D01*
X4263Y6227D01*
X4264Y6225D01*
Y6047D01*
X4263Y6045D01*
X4263Y6000D01*
X4263Y6000D01*
X4192D01*
X4191Y6036D01*
X4189Y6039D01*
X4188Y6044D01*
X4183Y6051D01*
X4097Y6138D01*
X4089Y6143D01*
X4081Y6144D01*
X3538D01*
X3311Y6371D01*
X3341D01*
Y6522D01*
X3265Y6447D01*
X3247Y6464D01*
X3230Y6447D01*
X3154Y6522D01*
Y6386D01*
X2836D01*
X2829Y6384D01*
Y6521D01*
X2754Y6445D01*
X2678Y6369D01*
X2810D01*
X2799Y6358D01*
X2797Y6358D01*
X2795Y6356D01*
X2793Y6354D01*
X2789Y6353D01*
X2785Y6352D01*
X2779Y6350D01*
X2773Y6349D01*
X2747Y6347D01*
X2736Y6347D01*
X2735Y6347D01*
X2714Y6344D01*
X2694Y6336D01*
X2676Y6322D01*
X2663Y6305D01*
X2655Y6284D01*
X2652Y6263D01*
X2655Y6241D01*
X2663Y6221D01*
X2676Y6203D01*
X2690Y6193D01*
X2335D01*
X2324Y6203D01*
X2324Y6205D01*
X2322Y6207D01*
X2320Y6209D01*
X2319Y6213D01*
X2318Y6217D01*
X2316Y6223D01*
X2315Y6229D01*
X2313Y6255D01*
X2313Y6266D01*
X2313Y6267D01*
X2310Y6288D01*
X2302Y6308D01*
X2288Y6326D01*
X2271Y6339D01*
X2251Y6347D01*
X2229Y6350D01*
X2207Y6347D01*
X2187Y6339D01*
X2169Y6326D01*
X2156Y6308D01*
X2147Y6288D01*
X2145Y6266D01*
X2147Y6244D01*
X2156Y6224D01*
X2169Y6207D01*
X2187Y6193D01*
X2207Y6185D01*
X2228Y6182D01*
X2229Y6182D01*
X2240Y6182D01*
X2249Y6181D01*
X2266Y6180D01*
X2272Y6179D01*
X2278Y6177D01*
X2282Y6176D01*
X2286Y6174D01*
X2288Y6173D01*
X2290Y6171D01*
X2292Y6171D01*
X2309Y6153D01*
X2316Y6148D01*
X2318Y6148D01*
X2325Y6147D01*
X2325Y6147D01*
X3369D01*
X3480Y6035D01*
X3488Y6030D01*
X3489Y6030D01*
X3496Y6028D01*
X3496Y6028D01*
X4018D01*
X4044Y6002D01*
Y5957D01*
X4043Y5955D01*
X4043Y5944D01*
X4042Y5934D01*
X4041Y5926D01*
X4040Y5920D01*
X4039Y5915D01*
X4037Y5912D01*
X4036Y5911D01*
X4035Y5910D01*
X4034Y5910D01*
X4012D01*
Y5870D01*
X3967Y5869D01*
X3965Y5868D01*
X2957D01*
X2956Y5869D01*
X2945Y5869D01*
X2935Y5869D01*
X2927Y5870D01*
X2921Y5872D01*
X2916Y5873D01*
X2913Y5875D01*
X2911Y5876D01*
X2911Y5877D01*
X2911Y5878D01*
Y5894D01*
X2827D01*
Y5824D01*
X2826Y5822D01*
X2826Y5821D01*
X2826Y5820D01*
X2827Y5817D01*
Y5804D01*
X2838D01*
X2839Y5804D01*
X2840Y5803D01*
X2841Y5800D01*
X2842Y5795D01*
X2843Y5788D01*
X2845Y5771D01*
X2845Y5770D01*
X2844Y5760D01*
X2843Y5752D01*
X2842Y5746D01*
X2840Y5741D01*
X2839Y5738D01*
X2838Y5736D01*
X2836Y5736D01*
X2835Y5736D01*
X2773D01*
Y5564D01*
X2816D01*
X2817Y5563D01*
X2819Y5563D01*
X2820Y5561D01*
X2821Y5558D01*
X2823Y5553D01*
X2824Y5547D01*
X2825Y5534D01*
X2825Y5532D01*
X2824Y5524D01*
X2823Y5517D01*
X2822Y5512D01*
X2821Y5509D01*
X2820Y5508D01*
X2809D01*
Y5495D01*
X2808Y5493D01*
X2809Y5491D01*
X2809Y5490D01*
X2809Y5489D01*
Y5447D01*
X2809Y5446D01*
X2809Y5445D01*
X2808Y5443D01*
X2809Y5441D01*
Y5428D01*
X2820D01*
X2821Y5427D01*
X2822Y5424D01*
X2823Y5419D01*
X2824Y5412D01*
X2825Y5394D01*
X2826Y5383D01*
X2826Y5381D01*
Y5109D01*
X2826Y5107D01*
X2825Y5086D01*
X2824Y5078D01*
X2823Y5071D01*
X2822Y5066D01*
X2821Y5063D01*
X2820Y5062D01*
X2809D01*
Y5049D01*
X2808Y5047D01*
X2809Y5045D01*
X2809Y5044D01*
X2809Y5043D01*
Y4982D01*
X2889D01*
Y5043D01*
X2890Y5044D01*
X2890Y5045D01*
X2890Y5047D01*
X2889Y5049D01*
Y5062D01*
X2878D01*
X2878Y5063D01*
X2877Y5066D01*
X2876Y5071D01*
X2875Y5078D01*
X2873Y5096D01*
X2873Y5107D01*
X2872Y5109D01*
Y5381D01*
X2873Y5383D01*
X2874Y5404D01*
X2875Y5412D01*
X2876Y5419D01*
X2877Y5424D01*
X2878Y5427D01*
X2878Y5428D01*
X2889D01*
Y5441D01*
X2890Y5443D01*
X2890Y5445D01*
X2890Y5446D01*
X2889Y5447D01*
Y5489D01*
X2890Y5490D01*
X2890Y5491D01*
X2890Y5493D01*
X2889Y5495D01*
Y5508D01*
X2878D01*
X2878Y5509D01*
X2877Y5512D01*
X2876Y5517D01*
X2875Y5524D01*
X2874Y5536D01*
X2874Y5539D01*
X2875Y5547D01*
X2876Y5553D01*
X2878Y5558D01*
X2879Y5561D01*
X2880Y5563D01*
X2882Y5563D01*
X2883Y5564D01*
X2911D01*
Y5617D01*
X2911Y5617D01*
X2911Y5619D01*
X2913Y5620D01*
X2916Y5621D01*
X2921Y5623D01*
X2927Y5624D01*
X2945Y5626D01*
X2956Y5626D01*
X2957Y5627D01*
X2965D01*
X2966Y5627D01*
X2966Y5625D01*
X2967Y5623D01*
X2968Y5620D01*
X2969Y5617D01*
X2970Y5612D01*
X2971Y5608D01*
X2972Y5595D01*
X2972Y5588D01*
X2973Y5586D01*
X2975Y5571D01*
X2981Y5555D01*
X2991Y5542D01*
X3005Y5531D01*
X3021Y5525D01*
X3038Y5522D01*
X3055Y5525D01*
X3071Y5531D01*
X3084Y5542D01*
X3095Y5555D01*
X3101Y5571D01*
X3103Y5588D01*
X3101Y5605D01*
X3095Y5621D01*
X3084Y5634D01*
X3071Y5645D01*
X3055Y5651D01*
X3040Y5653D01*
X3037Y5654D01*
X3030Y5654D01*
X3018Y5655D01*
X3013Y5656D01*
X3009Y5657D01*
X3006Y5657D01*
X3003Y5658D01*
X3001Y5659D01*
X2999Y5660D01*
X2998Y5662D01*
X2996Y5662D01*
X2992Y5666D01*
X2985Y5671D01*
X2976Y5673D01*
X2957D01*
X2956Y5673D01*
X2944Y5674D01*
X2935Y5674D01*
X2927Y5675D01*
X2921Y5676D01*
X2916Y5678D01*
X2913Y5679D01*
X2911Y5680D01*
X2911Y5682D01*
X2911Y5683D01*
Y5717D01*
X2911Y5718D01*
X2911Y5719D01*
X2911Y5720D01*
X2911Y5723D01*
Y5736D01*
X2899D01*
X2898Y5736D01*
X2898Y5737D01*
X2896Y5740D01*
X2895Y5745D01*
X2894Y5752D01*
X2893Y5768D01*
X2893Y5780D01*
X2894Y5788D01*
X2895Y5795D01*
X2896Y5800D01*
X2898Y5803D01*
X2898Y5804D01*
X2899Y5804D01*
X2911D01*
Y5816D01*
X2912Y5816D01*
X2915Y5817D01*
X2920Y5819D01*
X2927Y5820D01*
X2945Y5821D01*
X2956Y5821D01*
X2957Y5822D01*
X3965D01*
X3967Y5821D01*
X4012Y5821D01*
X4012Y5821D01*
Y5820D01*
Y5790D01*
X3967Y5789D01*
X3965Y5788D01*
X3741D01*
X3740Y5789D01*
X3709Y5789D01*
X3696Y5790D01*
X3695Y5790D01*
Y5795D01*
X3681D01*
X3679Y5796D01*
X3677Y5795D01*
X3565D01*
X3564Y5795D01*
X3562Y5795D01*
D01*
X3560Y5796D01*
X3558Y5795D01*
X3545D01*
Y5788D01*
X3542Y5788D01*
X3511Y5785D01*
X3500Y5785D01*
X3498Y5784D01*
X3466D01*
X3465Y5785D01*
X3463Y5785D01*
X3462Y5786D01*
X3460Y5786D01*
X3458Y5787D01*
X3455Y5788D01*
X3452Y5790D01*
X3449Y5792D01*
X3442Y5797D01*
X3438Y5801D01*
X3435Y5802D01*
X3423Y5810D01*
X3401Y5814D01*
X3380Y5810D01*
X3361Y5798D01*
X3349Y5780D01*
X3345Y5758D01*
X3349Y5737D01*
X3361Y5719D01*
X3380Y5706D01*
X3401Y5702D01*
X3423Y5706D01*
X3441Y5719D01*
X3442Y5721D01*
X3444Y5722D01*
X3447Y5726D01*
X3450Y5729D01*
X3453Y5731D01*
X3455Y5733D01*
X3458Y5735D01*
X3460Y5736D01*
X3461Y5737D01*
X3463Y5737D01*
X3464Y5738D01*
X3466Y5738D01*
X3466Y5738D01*
X3466Y5738D01*
X3468Y5739D01*
X3498D01*
X3500Y5738D01*
X3538Y5737D01*
X3545Y5737D01*
Y5735D01*
X3557D01*
X3558Y5734D01*
X3559Y5734D01*
X3560Y5734D01*
X3562Y5735D01*
X3677D01*
X3679Y5734D01*
X3681Y5735D01*
X3695D01*
Y5739D01*
X3728Y5741D01*
X3739Y5741D01*
X3741Y5742D01*
X3965D01*
X3967Y5741D01*
X4012Y5741D01*
X4012Y5741D01*
Y5740D01*
Y5700D01*
Y5670D01*
X3967Y5669D01*
X3965Y5668D01*
X3951D01*
X3951Y5668D01*
X3944Y5666D01*
X3943Y5666D01*
X3935Y5661D01*
X3935Y5661D01*
X3591Y5316D01*
X3586Y5309D01*
X3584Y5300D01*
Y3830D01*
X1970Y2215D01*
X1657D01*
X1657Y2215D01*
X1650Y2214D01*
X1649Y2214D01*
X1644Y2211D01*
X1641Y2209D01*
X1633Y2202D01*
X1627Y2196D01*
X1621Y2192D01*
X1616Y2188D01*
X1612Y2186D01*
X1609Y2185D01*
X1608Y2185D01*
X1608Y2185D01*
X1607Y2185D01*
X1599Y2193D01*
X1589Y2184D01*
X1587Y2183D01*
X1587Y2182D01*
X1586Y2181D01*
X1585Y2180D01*
X1535Y2130D01*
X1547Y2117D01*
X1547Y2116D01*
X1548Y2115D01*
X1548Y2113D01*
X1547Y2110D01*
X1544Y2106D01*
X1541Y2100D01*
X1530Y2087D01*
X1523Y2080D01*
X1522Y2081D01*
X1510Y2097D01*
X1493Y2110D01*
X1472Y2119D01*
X1451Y2121D01*
X1429Y2119D01*
X1408Y2110D01*
X1391Y2097D01*
X1378Y2079D01*
X1369Y2059D01*
X1366Y2037D01*
X1369Y2015D01*
X1378Y1995D01*
X1391Y1978D01*
X1408Y1964D01*
X1429Y1956D01*
X1451Y1953D01*
X1472Y1956D01*
X1493Y1964D01*
X1510Y1978D01*
X1523Y1995D01*
X1532Y2015D01*
X1534Y2032D01*
X1536Y2033D01*
X1540Y2034D01*
X1548Y2039D01*
X1554Y2045D01*
X1556Y2045D01*
X1571Y2060D01*
X1583Y2070D01*
X1587Y2074D01*
X1590Y2075D01*
X1594Y2070D01*
X1604Y2079D01*
X1606Y2080D01*
X1607Y2082D01*
X1609Y2084D01*
X1609Y2084D01*
X1645Y2120D01*
X1646Y2121D01*
X1647Y2122D01*
X1648Y2122D01*
X1649Y2125D01*
X1658Y2134D01*
X1650Y2142D01*
X1649Y2143D01*
X1649Y2143D01*
X1650Y2144D01*
X1651Y2147D01*
X1653Y2151D01*
X1656Y2156D01*
X1667Y2169D01*
X1668Y2170D01*
X1967D01*
X1835Y2038D01*
X1833Y2037D01*
X1825Y2029D01*
X1818Y2023D01*
X1812Y2018D01*
X1806Y2015D01*
X1802Y2012D01*
X1799Y2011D01*
X1797Y2011D01*
X1796Y2012D01*
X1794Y2012D01*
X1786Y2020D01*
X1777Y2011D01*
X1775Y2010D01*
X1774Y2009D01*
X1773Y2008D01*
X1773Y2007D01*
X1748Y1982D01*
X1737D01*
X1737Y1982D01*
X1729Y1980D01*
X1728Y1980D01*
X1720Y1975D01*
X1720Y1975D01*
X1696Y1951D01*
X1694Y1950D01*
X1692Y1948D01*
X1690Y1947D01*
X1687Y1946D01*
X1682Y1944D01*
X1677Y1943D01*
X1671Y1942D01*
X1663Y1942D01*
X1645Y1942D01*
X1635Y1942D01*
X1633Y1941D01*
X1630Y1942D01*
X1608Y1939D01*
X1588Y1931D01*
X1571Y1917D01*
X1557Y1900D01*
X1549Y1879D01*
X1546Y1858D01*
X1549Y1836D01*
X1557Y1815D01*
X1571Y1798D01*
X1588Y1785D01*
X1608Y1776D01*
X1630Y1773D01*
X1652Y1776D01*
X1672Y1785D01*
X1690Y1798D01*
X1703Y1815D01*
X1711Y1836D01*
X1713Y1851D01*
X1715Y1854D01*
X1716Y1874D01*
X1718Y1891D01*
X1720Y1898D01*
X1721Y1904D01*
X1723Y1908D01*
X1724Y1912D01*
X1726Y1914D01*
X1727Y1916D01*
X1728Y1918D01*
X1745Y1934D01*
X1782Y1897D01*
X1832Y1947D01*
X1833Y1947D01*
X1834Y1949D01*
X1835Y1949D01*
X1836Y1952D01*
X1845Y1961D01*
X1838Y1968D01*
X1838Y1969D01*
X1840Y1972D01*
X1843Y1976D01*
X1859Y1995D01*
X1867Y2003D01*
X1867Y2005D01*
X3401Y3539D01*
Y3528D01*
X3400Y3527D01*
X3400Y3524D01*
X3399Y3521D01*
X3398Y3518D01*
X3396Y3514D01*
X3393Y3509D01*
X3389Y3504D01*
X3372Y3484D01*
X3365Y3477D01*
X3364Y3475D01*
X3351Y3458D01*
X3343Y3438D01*
X3340Y3416D01*
X3343Y3395D01*
X3351Y3374D01*
X3364Y3357D01*
X3382Y3343D01*
X3402Y3335D01*
X3424Y3332D01*
X3446Y3335D01*
X3466Y3343D01*
X3483Y3357D01*
X3497Y3374D01*
X3505Y3395D01*
X3508Y3416D01*
X3505Y3438D01*
X3497Y3458D01*
X3484Y3475D01*
X3483Y3477D01*
X3476Y3484D01*
X3469Y3491D01*
X3459Y3504D01*
X3455Y3509D01*
X3452Y3514D01*
X3450Y3518D01*
X3448Y3521D01*
X3448Y3524D01*
X3448Y3527D01*
X3447Y3528D01*
Y3541D01*
X3692Y3786D01*
X3692Y3786D01*
X3697Y3794D01*
X3698Y3802D01*
Y5269D01*
X3952Y5522D01*
X4055D01*
X4057Y5521D01*
X4068Y5521D01*
X4077Y5520D01*
X4085Y5519D01*
X4092Y5518D01*
X4097Y5516D01*
X4100Y5515D01*
X4101Y5514D01*
X4101Y5513D01*
X4102Y5512D01*
Y5504D01*
X4095Y5501D01*
X4091Y5490D01*
Y5274D01*
X3901D01*
X3890Y5269D01*
X3885Y5258D01*
Y4966D01*
X3890Y4954D01*
X3901Y4949D01*
X4445D01*
X4456Y4954D01*
X4461Y4966D01*
Y5014D01*
X4461Y5015D01*
X4468Y5016D01*
X4472Y5019D01*
X4475Y5020D01*
X4484Y5028D01*
X4490Y5034D01*
X4492Y5035D01*
X4493Y5036D01*
X4519D01*
X4530Y5038D01*
X4540Y5045D01*
X4546Y5054D01*
X4549Y5066D01*
Y5091D01*
X4546Y5102D01*
X4540Y5112D01*
X4530Y5119D01*
X4519Y5121D01*
X4487D01*
X4476Y5119D01*
X4466Y5112D01*
X4461Y5105D01*
Y5138D01*
X4466Y5131D01*
X4476Y5124D01*
X4487Y5122D01*
X4519D01*
X4530Y5124D01*
X4540Y5131D01*
X4546Y5140D01*
X4549Y5152D01*
Y5177D01*
X4548Y5181D01*
X4548Y5183D01*
X4547Y5185D01*
X4546Y5188D01*
X4546Y5189D01*
X4546Y5191D01*
X4542Y5197D01*
X4539Y5203D01*
X4536Y5209D01*
X4533Y5215D01*
X4531Y5221D01*
X4530Y5227D01*
X4528Y5233D01*
X4528Y5239D01*
X4527Y5245D01*
X4527Y5252D01*
X4526Y5254D01*
Y5260D01*
X4524Y5269D01*
X4519Y5276D01*
X4390Y5405D01*
X5314D01*
X5347Y5373D01*
Y1741D01*
X5348Y1733D01*
X5353Y1725D01*
X5628Y1450D01*
Y1311D01*
X5628Y1309D01*
X5627Y1306D01*
X5627Y1304D01*
X5625Y1301D01*
X5623Y1296D01*
X5620Y1292D01*
X5616Y1286D01*
X5599Y1267D01*
X5592Y1259D01*
X5591Y1258D01*
X5578Y1241D01*
X5570Y1221D01*
X5567Y1199D01*
X5570Y1177D01*
X5578Y1157D01*
X5592Y1139D01*
X5609Y1126D01*
X5629Y1118D01*
X5651Y1115D01*
X5673Y1118D01*
X5693Y1126D01*
X5711Y1139D01*
X5724Y1157D01*
X5732Y1177D01*
X5735Y1199D01*
X5732Y1221D01*
X5724Y1241D01*
X5711Y1258D01*
X5711Y1259D01*
X5703Y1267D01*
X5697Y1274D01*
X5686Y1286D01*
X5682Y1292D01*
X5679Y1296D01*
X5677Y1301D01*
X5676Y1304D01*
X5675Y1306D01*
X5675Y1309D01*
X5674Y1311D01*
Y1460D01*
X5672Y1469D01*
X5667Y1476D01*
X5393Y1751D01*
Y2175D01*
X5629Y1938D01*
Y1839D01*
X5628Y1838D01*
X5628Y1835D01*
X5628Y1832D01*
X5626Y1829D01*
X5624Y1825D01*
X5621Y1820D01*
X5617Y1815D01*
X5600Y1795D01*
X5593Y1787D01*
X5592Y1786D01*
X5579Y1769D01*
X5571Y1749D01*
X5568Y1727D01*
X5571Y1705D01*
X5579Y1685D01*
X5593Y1668D01*
X5610Y1654D01*
X5630Y1646D01*
X5652Y1643D01*
X5674Y1646D01*
X5694Y1654D01*
X5712Y1668D01*
X5725Y1685D01*
X5733Y1705D01*
X5736Y1727D01*
X5733Y1749D01*
X5725Y1769D01*
X5712Y1786D01*
X5712Y1787D01*
X5704Y1795D01*
X5698Y1802D01*
X5687Y1815D01*
X5683Y1820D01*
X5680Y1825D01*
X5678Y1829D01*
X5677Y1832D01*
X5676Y1835D01*
X5676Y1838D01*
X5675Y1839D01*
Y1948D01*
X5675Y1948D01*
X5674Y1955D01*
X5673Y1956D01*
X5668Y1964D01*
X5430Y2203D01*
Y2690D01*
X5629Y2490D01*
Y2352D01*
X5628Y2351D01*
X5628Y2348D01*
X5628Y2345D01*
X5626Y2342D01*
X5624Y2338D01*
X5621Y2333D01*
X5617Y2328D01*
X5600Y2309D01*
X5593Y2301D01*
X5592Y2300D01*
X5592Y2300D01*
X5578Y2282D01*
X5570Y2262D01*
X5567Y2240D01*
X5570Y2219D01*
X5578Y2198D01*
X5592Y2181D01*
X5609Y2167D01*
X5629Y2159D01*
X5651Y2156D01*
X5673Y2159D01*
X5693Y2167D01*
X5711Y2181D01*
X5724Y2198D01*
X5732Y2219D01*
X5735Y2240D01*
X5732Y2262D01*
X5724Y2282D01*
X5712Y2298D01*
X5711Y2300D01*
X5704Y2307D01*
X5698Y2314D01*
X5687Y2327D01*
X5683Y2333D01*
X5680Y2338D01*
X5678Y2342D01*
X5677Y2345D01*
X5676Y2348D01*
X5676Y2351D01*
X5675Y2352D01*
Y2499D01*
X5675Y2499D01*
X5674Y2507D01*
X5673Y2508D01*
X5668Y2516D01*
X5460Y2724D01*
Y3142D01*
X5629Y2972D01*
Y2881D01*
X5628Y2879D01*
X5628Y2876D01*
X5628Y2874D01*
X5626Y2870D01*
X5624Y2866D01*
X5621Y2861D01*
X5617Y2856D01*
X5600Y2836D01*
X5593Y2829D01*
X5592Y2827D01*
X5579Y2811D01*
X5571Y2790D01*
X5568Y2769D01*
X5571Y2747D01*
X5579Y2727D01*
X5593Y2709D01*
X5610Y2696D01*
X5630Y2687D01*
X5652Y2684D01*
X5674Y2687D01*
X5694Y2696D01*
X5712Y2709D01*
X5725Y2727D01*
X5733Y2747D01*
X5736Y2769D01*
X5733Y2790D01*
X5725Y2811D01*
X5712Y2827D01*
X5712Y2829D01*
X5704Y2836D01*
X5698Y2843D01*
X5687Y2856D01*
X5683Y2861D01*
X5680Y2866D01*
X5678Y2870D01*
X5677Y2874D01*
X5676Y2876D01*
X5676Y2879D01*
X5675Y2881D01*
Y2981D01*
X5675Y2981D01*
X5674Y2989D01*
X5673Y2990D01*
X5668Y2998D01*
X5668Y2998D01*
X5490Y3176D01*
Y3523D01*
X5628Y3385D01*
X5628Y3385D01*
X5627Y3382D01*
X5627Y3379D01*
X5625Y3376D01*
X5623Y3372D01*
X5620Y3367D01*
X5616Y3362D01*
X5599Y3342D01*
X5592Y3334D01*
X5591Y3333D01*
X5578Y3316D01*
X5570Y3296D01*
X5567Y3274D01*
X5570Y3252D01*
X5578Y3232D01*
X5592Y3215D01*
X5609Y3201D01*
X5629Y3193D01*
X5651Y3190D01*
X5673Y3193D01*
X5693Y3201D01*
X5711Y3215D01*
X5724Y3232D01*
X5732Y3252D01*
X5735Y3274D01*
X5732Y3296D01*
X5724Y3316D01*
X5711Y3333D01*
X5711Y3334D01*
X5703Y3342D01*
X5697Y3349D01*
X5686Y3361D01*
X5682Y3367D01*
X5679Y3372D01*
X5677Y3376D01*
X5676Y3379D01*
X5675Y3382D01*
X5675Y3385D01*
X5674Y3386D01*
Y3394D01*
X5672Y3403D01*
X5667Y3410D01*
X5667Y3410D01*
X5520Y3558D01*
Y5274D01*
X5614Y5179D01*
Y5019D01*
X5613Y5018D01*
X5613Y5015D01*
X5612Y5012D01*
X5611Y5009D01*
X5609Y5005D01*
X5606Y5000D01*
X5602Y4995D01*
X5585Y4975D01*
X5578Y4968D01*
X5577Y4966D01*
X5564Y4949D01*
X5556Y4929D01*
X5553Y4907D01*
X5556Y4886D01*
X5564Y4865D01*
X5577Y4848D01*
X5595Y4834D01*
X5615Y4826D01*
X5637Y4823D01*
X5659Y4826D01*
X5679Y4834D01*
X5696Y4848D01*
X5710Y4865D01*
X5718Y4886D01*
X5721Y4907D01*
X5718Y4929D01*
X5710Y4949D01*
X5697Y4966D01*
X5696Y4968D01*
X5689Y4975D01*
X5682Y4982D01*
X5672Y4995D01*
X5668Y5000D01*
X5665Y5005D01*
X5663Y5009D01*
X5662Y5012D01*
X5661Y5015D01*
X5661Y5018D01*
X5660Y5019D01*
Y5189D01*
X5660Y5189D01*
X5658Y5197D01*
X5653Y5205D01*
X5555Y5303D01*
Y5370D01*
X5556Y5366D01*
X5564Y5345D01*
X5577Y5328D01*
X5595Y5314D01*
X5615Y5306D01*
X5637Y5303D01*
X5659Y5306D01*
X5679Y5314D01*
X5696Y5328D01*
X5710Y5345D01*
X5718Y5366D01*
X5721Y5387D01*
X5718Y5409D01*
X5710Y5429D01*
X5697Y5446D01*
X5696Y5448D01*
X5689Y5455D01*
X5682Y5462D01*
X5672Y5475D01*
X5668Y5480D01*
X5665Y5485D01*
X5663Y5489D01*
X5662Y5492D01*
X5661Y5495D01*
X5661Y5498D01*
X5660Y5499D01*
Y5707D01*
X5658Y5715D01*
X5653Y5723D01*
X5473Y5903D01*
X5531D01*
X5532Y5902D01*
X5536Y5902D01*
X5538Y5901D01*
X5540Y5900D01*
X5542Y5899D01*
X5544Y5897D01*
X5546Y5894D01*
X5548Y5890D01*
X5550Y5885D01*
X5553Y5878D01*
X5555Y5871D01*
X5555Y5871D01*
X5555Y5870D01*
X5556Y5869D01*
X5556Y5868D01*
X5564Y5848D01*
X5577Y5831D01*
X5595Y5817D01*
X5615Y5809D01*
X5637Y5806D01*
X5659Y5809D01*
X5679Y5817D01*
X5696Y5831D01*
X5710Y5848D01*
X5718Y5868D01*
X5721Y5890D01*
X5718Y5912D01*
X5710Y5932D01*
X5696Y5950D01*
X5679Y5963D01*
X5659Y5972D01*
X5637Y5974D01*
X5615Y5972D01*
X5614Y5971D01*
X5612Y5971D01*
X5612Y5971D01*
X5612Y5971D01*
X5542Y5950D01*
X5540Y5949D01*
X5540Y5949D01*
X5539Y5949D01*
X5539Y5949D01*
X5538Y5949D01*
X5463D01*
X5653Y6139D01*
X5658Y6146D01*
X5660Y6155D01*
Y6284D01*
X5661Y6285D01*
X5661Y6288D01*
X5661Y6291D01*
X5663Y6294D01*
X5665Y6298D01*
X5668Y6303D01*
X5672Y6308D01*
X5689Y6328D01*
X5696Y6335D01*
X5697Y6337D01*
X5710Y6354D01*
X5718Y6374D01*
X5721Y6396D01*
X5718Y6417D01*
X5710Y6438D01*
X5696Y6455D01*
X5679Y6469D01*
X5659Y6477D01*
X5637Y6480D01*
X5615Y6477D01*
X5595Y6469D01*
X5577Y6455D01*
X5564Y6438D01*
X5556Y6417D01*
X5553Y6396D01*
X5556Y6374D01*
X5564Y6354D01*
X5577Y6337D01*
X5578Y6335D01*
X5585Y6328D01*
X5591Y6321D01*
X5602Y6308D01*
X5606Y6303D01*
X5609Y6298D01*
X5611Y6294D01*
X5612Y6291D01*
X5613Y6288D01*
X5613Y6285D01*
X5614Y6284D01*
Y6165D01*
X5542Y6093D01*
Y6638D01*
X5653Y6748D01*
X5653Y6748D01*
X5658Y6756D01*
X5660Y6765D01*
Y6793D01*
X5661Y6794D01*
X5661Y6797D01*
X5661Y6800D01*
X5663Y6803D01*
X5665Y6807D01*
X5668Y6812D01*
X5672Y6817D01*
X5689Y6837D01*
X5696Y6844D01*
X5697Y6846D01*
X5710Y6863D01*
X5718Y6883D01*
X5721Y6905D01*
X5718Y6926D01*
X5710Y6947D01*
X5696Y6964D01*
X5679Y6977D01*
X5659Y6986D01*
X5637Y6989D01*
X5615Y6986D01*
X5595Y6977D01*
X5577Y6964D01*
X5565Y6948D01*
Y7549D01*
X5795Y7778D01*
X5796Y7779D01*
X5799Y7781D01*
X5803Y7783D01*
X5809Y7786D01*
X5816Y7788D01*
X5825Y7789D01*
X5835Y7791D01*
X5876Y7793D01*
X5892Y7793D01*
X5893Y7794D01*
X5893Y7794D01*
X5923Y7798D01*
X5951Y7809D01*
X5975Y7828D01*
X5994Y7852D01*
X6006Y7880D01*
X6009Y7910D01*
X6006Y7940D01*
X5994Y7968D01*
X5975Y7992D01*
X5951Y8010D01*
X5923Y8022D01*
X5893Y8026D01*
D02*
G37*
G36*
X3051Y8149D02*
X3014Y8145D01*
X2978Y8134D01*
X2945Y8116D01*
X2916Y8093D01*
X2892Y8064D01*
X2875Y8031D01*
X2864Y7995D01*
X2860Y7958D01*
X2864Y7920D01*
X2875Y7885D01*
X2892Y7852D01*
X2916Y7823D01*
X2945Y7799D01*
X2978Y7781D01*
X3014Y7770D01*
X3051Y7767D01*
X3088Y7770D01*
X3124Y7781D01*
X3157Y7799D01*
X3186Y7823D01*
X3210Y7852D01*
X3228Y7885D01*
X3238Y7920D01*
X3242Y7958D01*
X3238Y7995D01*
X3228Y8031D01*
X3210Y8064D01*
X3186Y8093D01*
X3157Y8116D01*
X3124Y8134D01*
X3088Y8145D01*
X3051Y8149D01*
D02*
G37*
G36*
X7044Y7725D02*
X7023Y7721D01*
X7005Y7708D01*
X6948Y7652D01*
X6936Y7634D01*
X6932Y7612D01*
X6936Y7591D01*
X6948Y7573D01*
X6966Y7560D01*
X6988Y7556D01*
X7009Y7560D01*
X7027Y7573D01*
X7084Y7629D01*
X7096Y7647D01*
X7100Y7669D01*
X7096Y7690D01*
X7084Y7708D01*
X7066Y7721D01*
X7044Y7725D01*
D02*
G37*
G36*
X7924Y7383D02*
X7902Y7378D01*
X7884Y7366D01*
X7828Y7310D01*
X7815Y7291D01*
X7811Y7270D01*
X7815Y7249D01*
X7828Y7230D01*
X7846Y7218D01*
X7867Y7214D01*
X7889Y7218D01*
X7907Y7230D01*
X7963Y7287D01*
X7976Y7305D01*
X7980Y7327D01*
X7976Y7348D01*
X7963Y7366D01*
X7945Y7378D01*
X7924Y7383D01*
D02*
G37*
G36*
X1950Y7383D02*
X1920Y7380D01*
X1891Y7371D01*
X1864Y7357D01*
X1841Y7338D01*
X1822Y7314D01*
X1808Y7288D01*
X1799Y7259D01*
X1796Y7228D01*
X1799Y7198D01*
X1808Y7169D01*
X1822Y7143D01*
X1841Y7119D01*
X1864Y7100D01*
X1891Y7086D01*
X1920Y7077D01*
X1950Y7074D01*
X1980Y7077D01*
X2009Y7086D01*
X2036Y7100D01*
X2060Y7119D01*
X2079Y7143D01*
X2093Y7169D01*
X2102Y7198D01*
X2105Y7228D01*
X2102Y7259D01*
X2093Y7288D01*
X2079Y7314D01*
X2060Y7338D01*
X2036Y7357D01*
X2009Y7371D01*
X1980Y7380D01*
X1950Y7383D01*
D02*
G37*
G36*
X7135Y7616D02*
X7029Y7510D01*
X7099Y7440D01*
X6974Y7314D01*
X6969Y7303D01*
Y6731D01*
X6645D01*
X6634Y6729D01*
X6630Y6727D01*
X6625Y6723D01*
X6625Y6723D01*
X6508Y6606D01*
X6502Y6597D01*
X6500Y6586D01*
X6500Y6586D01*
Y6350D01*
X6338Y6188D01*
X6332Y6179D01*
X6329Y6168D01*
X6329Y6168D01*
Y2377D01*
X6329Y2377D01*
X6332Y2367D01*
X6338Y2357D01*
X7201Y1494D01*
Y1337D01*
X7200Y1336D01*
X7200Y1317D01*
X7198Y1283D01*
X7196Y1269D01*
X7194Y1256D01*
X7191Y1245D01*
X7188Y1236D01*
X7184Y1228D01*
X7181Y1222D01*
X7177Y1217D01*
X7176Y1215D01*
X7167Y1207D01*
X7177Y1197D01*
X7178Y1195D01*
X7178Y1195D01*
X7179Y1194D01*
X7180Y1194D01*
X7227Y1147D01*
X7277Y1198D01*
X7279Y1199D01*
X7280Y1200D01*
X7281Y1200D01*
X7282Y1202D01*
X7290Y1211D01*
X7282Y1220D01*
X7281Y1221D01*
X7277Y1227D01*
X7273Y1232D01*
X7270Y1240D01*
X7267Y1249D01*
X7264Y1260D01*
X7262Y1273D01*
X7258Y1321D01*
X7258Y1340D01*
X7257Y1341D01*
X7258Y1343D01*
X7257Y1343D01*
Y1504D01*
X7372Y1389D01*
X7360Y1377D01*
X7386Y1351D01*
X7386Y1351D01*
X7386Y1351D01*
Y1169D01*
X7386Y1169D01*
X7388Y1159D01*
X7394Y1149D01*
X7565Y979D01*
X7558Y971D01*
X7636Y894D01*
X7684Y942D01*
X7684Y942D01*
X7732Y990D01*
X7767Y954D01*
X7794Y981D01*
X7797Y982D01*
X7806Y988D01*
X7812Y997D01*
X7813Y1000D01*
X7835Y1022D01*
X7803Y1054D01*
X7802Y1057D01*
X7801Y1061D01*
X7800Y1063D01*
X7799Y1065D01*
X7795Y1066D01*
X7792Y1069D01*
X7789Y1069D01*
X7788Y1069D01*
X7769Y1088D01*
X7761Y1079D01*
X7760Y1080D01*
X7726Y1109D01*
X7713Y1123D01*
X7711Y1123D01*
X7591Y1243D01*
X7591Y1245D01*
X7577Y1258D01*
X7556Y1282D01*
X7549Y1291D01*
X7543Y1300D01*
X7539Y1306D01*
X7537Y1311D01*
X7537Y1312D01*
X7537Y1313D01*
X7544Y1320D01*
X7535Y1330D01*
X7534Y1332D01*
X7532Y1333D01*
X7531Y1334D01*
X7530Y1334D01*
X7485Y1380D01*
X7443Y1337D01*
Y1340D01*
X7443Y1341D01*
X7483Y1381D01*
X7424Y1441D01*
X7412Y1429D01*
X6427Y2415D01*
Y6138D01*
X6542Y6253D01*
X6726D01*
X6728Y6252D01*
X6747Y6252D01*
X6763Y6251D01*
X6778Y6249D01*
X6790Y6247D01*
X6799Y6244D01*
X6806Y6241D01*
X6811Y6238D01*
X6813Y6235D01*
X6814Y6233D01*
X6815Y6228D01*
X6816Y6227D01*
X6816Y6224D01*
X6823Y6214D01*
X6833Y6207D01*
X6845Y6205D01*
X6875D01*
X6886Y6207D01*
X6896Y6214D01*
X6903Y6224D01*
X6905Y6235D01*
Y6327D01*
X6903Y6339D01*
X6896Y6349D01*
X6886Y6356D01*
X6875Y6358D01*
X6845D01*
X6833Y6356D01*
X6823Y6349D01*
X6816Y6339D01*
X6816Y6336D01*
X6815Y6334D01*
X6814Y6330D01*
X6813Y6328D01*
X6811Y6325D01*
X6806Y6322D01*
X6799Y6319D01*
X6790Y6316D01*
X6778Y6314D01*
X6747Y6311D01*
X6728Y6310D01*
X6726Y6310D01*
X6539D01*
X6548Y6318D01*
X6554Y6327D01*
X6556Y6338D01*
Y6575D01*
X6656Y6675D01*
X6969D01*
Y6457D01*
X6974Y6445D01*
X6985Y6440D01*
X7164D01*
Y6437D01*
X7163Y6436D01*
X7163Y6434D01*
X7161Y6433D01*
X7158Y6432D01*
X7153Y6430D01*
X7147Y6429D01*
X7129Y6427D01*
X7119Y6427D01*
X7117Y6426D01*
X6752D01*
X6752Y6426D01*
X6731Y6448D01*
X6724Y6457D01*
X6718Y6465D01*
X6714Y6471D01*
X6713Y6474D01*
Y6488D01*
X6713Y6490D01*
X6713Y6491D01*
X6713Y6493D01*
X6713Y6493D01*
Y6507D01*
X6767D01*
X6769Y6507D01*
X6780Y6506D01*
X6790Y6506D01*
X6798Y6505D01*
X6804Y6504D01*
X6809Y6502D01*
X6812Y6501D01*
X6814Y6500D01*
X6814Y6498D01*
X6814Y6498D01*
Y6484D01*
X6816Y6473D01*
X6823Y6463D01*
X6833Y6456D01*
X6845Y6454D01*
X6875D01*
X6886Y6456D01*
X6896Y6463D01*
X6903Y6473D01*
X6905Y6484D01*
Y6576D01*
X6903Y6588D01*
X6896Y6598D01*
X6886Y6605D01*
X6875Y6607D01*
X6845D01*
X6833Y6605D01*
X6823Y6598D01*
X6816Y6588D01*
X6814Y6576D01*
Y6563D01*
X6814Y6563D01*
X6814Y6561D01*
X6812Y6560D01*
X6809Y6559D01*
X6804Y6557D01*
X6798Y6556D01*
X6780Y6554D01*
X6769Y6554D01*
X6767Y6553D01*
X6713D01*
Y6602D01*
X6623D01*
Y6518D01*
X6680D01*
X6682Y6516D01*
X6623D01*
Y6432D01*
X6651D01*
X6652Y6432D01*
X6653Y6432D01*
X6655Y6431D01*
X6656Y6432D01*
X6671D01*
X6673Y6431D01*
X6680Y6426D01*
X6688Y6421D01*
X6707Y6404D01*
X6718Y6393D01*
X6720Y6392D01*
X6725Y6387D01*
X6732Y6382D01*
X6741Y6380D01*
X7117D01*
X7119Y6380D01*
X7130Y6379D01*
X7139Y6379D01*
X7147Y6378D01*
X7153Y6376D01*
X7158Y6375D01*
X7161Y6374D01*
X7163Y6373D01*
X7163Y6371D01*
X7164Y6370D01*
Y6348D01*
X7087D01*
X7086Y6349D01*
X7076Y6356D01*
X7065Y6358D01*
X7035D01*
X7023Y6356D01*
X7013Y6349D01*
X7013Y6348D01*
X7004D01*
X7003Y6348D01*
X7002Y6348D01*
X6998Y6346D01*
X6994Y6344D01*
X6991Y6349D01*
X6981Y6356D01*
X6970Y6358D01*
X6940D01*
X6928Y6356D01*
X6918Y6349D01*
X6911Y6339D01*
X6909Y6327D01*
Y6235D01*
X6910Y6231D01*
X6909Y6230D01*
X6911Y6227D01*
X6911Y6224D01*
X6912Y6223D01*
X6912Y6221D01*
X6916Y6215D01*
X6919Y6209D01*
X6922Y6203D01*
X6924Y6198D01*
X6926Y6192D01*
X6928Y6186D01*
X6929Y6179D01*
X6930Y6173D01*
X6931Y6167D01*
X6931Y6160D01*
X6932Y6158D01*
Y6101D01*
X6931Y6099D01*
X6930Y6069D01*
X6929Y6056D01*
X6929Y6054D01*
X6925D01*
Y6041D01*
X6924Y6039D01*
X6925Y6037D01*
Y5977D01*
X6922Y5978D01*
X6862D01*
X6855Y5976D01*
X6854Y5975D01*
X6845D01*
X6845Y5975D01*
X6838Y5974D01*
X6837Y5974D01*
X6829Y5969D01*
X6808Y5947D01*
X6803Y5940D01*
X6802Y5935D01*
X6800Y5932D01*
X6800Y5930D01*
X6800Y5929D01*
X6800Y5929D01*
X6797Y5927D01*
X6797Y5927D01*
X6797Y5927D01*
X6783Y5918D01*
X6783Y5917D01*
X6775Y5910D01*
X6772Y5908D01*
X6771Y5907D01*
X6769Y5907D01*
X6768Y5908D01*
X6768Y5910D01*
X6767Y5911D01*
Y5933D01*
X6644D01*
Y5802D01*
X6767D01*
Y5844D01*
X6768Y5845D01*
X6768Y5847D01*
X6769Y5848D01*
X6771Y5848D01*
X6772Y5847D01*
X6779Y5842D01*
X6782Y5838D01*
X6783Y5838D01*
X6801Y5826D01*
X6822Y5821D01*
X6844Y5826D01*
X6852Y5831D01*
X6856Y5832D01*
X6865Y5838D01*
X6872Y5843D01*
X6875Y5845D01*
X6878Y5846D01*
X6880Y5847D01*
X6882Y5847D01*
X6883Y5848D01*
X6885Y5848D01*
X6887Y5848D01*
X6910D01*
X6919Y5850D01*
X6926Y5855D01*
X6969Y5898D01*
X6969Y5898D01*
X6974Y5905D01*
X6975Y5910D01*
X6977Y5913D01*
X6977Y5919D01*
X6979Y5912D01*
X6981Y5904D01*
X6985Y5887D01*
X6986Y5879D01*
X6988Y5866D01*
X6901Y5780D01*
X6900Y5780D01*
X6898Y5780D01*
X6896Y5781D01*
X6894Y5782D01*
X6892Y5783D01*
X6890Y5784D01*
X6887Y5786D01*
X6885Y5788D01*
X6883Y5790D01*
X6882Y5791D01*
X6864Y5802D01*
X6843Y5807D01*
X6821Y5802D01*
X6803Y5790D01*
X6791Y5772D01*
X6787Y5751D01*
X6791Y5729D01*
X6803Y5711D01*
X6821Y5699D01*
X6843Y5694D01*
X6864Y5699D01*
X6882Y5711D01*
X6883Y5711D01*
X6885Y5713D01*
X6887Y5715D01*
X6890Y5717D01*
X6892Y5718D01*
X6894Y5719D01*
X6896Y5720D01*
X6898Y5721D01*
X6900Y5721D01*
X6902Y5722D01*
X6905Y5722D01*
X6907Y5722D01*
X6912D01*
X6912Y5722D01*
X6923Y5724D01*
X6932Y5731D01*
X6934Y5732D01*
Y5308D01*
X6924Y5315D01*
X6903Y5324D01*
X6882Y5327D01*
X6860Y5324D01*
X6839Y5315D01*
X6822Y5302D01*
X6809Y5285D01*
X6800Y5264D01*
X6797Y5243D01*
X6800Y5221D01*
X6809Y5201D01*
X6822Y5183D01*
X6839Y5170D01*
X6860Y5161D01*
X6882Y5158D01*
X6903Y5161D01*
X6924Y5170D01*
X6934Y5177D01*
Y5073D01*
X6938Y5061D01*
X6950Y5056D01*
X7328D01*
X7339Y5061D01*
X7344Y5073D01*
Y6332D01*
X7339Y6344D01*
X7328Y6348D01*
X7287D01*
Y6378D01*
X7289Y6379D01*
X7292Y6380D01*
X7297Y6381D01*
X7312Y6382D01*
X7321Y6382D01*
X7324Y6384D01*
X7329Y6385D01*
X7337Y6390D01*
X7436Y6489D01*
X7436Y6489D01*
X7441Y6496D01*
X7441Y6498D01*
X7442Y6505D01*
X7442Y6505D01*
Y6551D01*
X7443Y6552D01*
X7443Y6554D01*
X7443Y6556D01*
X7444Y6557D01*
X7445Y6559D01*
X7446Y6561D01*
X7448Y6564D01*
X7450Y6567D01*
X7455Y6573D01*
X7459Y6577D01*
X7459Y6577D01*
X7471Y6595D01*
X7475Y6617D01*
X7471Y6638D01*
X7459Y6657D01*
X7441Y6669D01*
X7419Y6673D01*
X7398Y6669D01*
X7380Y6657D01*
X7368Y6638D01*
X7363Y6617D01*
X7368Y6595D01*
X7379Y6578D01*
X7380Y6577D01*
X7387Y6570D01*
X7389Y6567D01*
X7391Y6564D01*
X7393Y6561D01*
X7394Y6559D01*
X7395Y6557D01*
X7395Y6556D01*
X7396Y6554D01*
X7396Y6552D01*
X7396Y6551D01*
Y6514D01*
X7352Y6470D01*
Y7044D01*
X7423Y7116D01*
X7496Y7043D01*
X7602Y7149D01*
X7529Y7222D01*
X7586Y7278D01*
X7591Y7290D01*
X7586Y7301D01*
X7285Y7602D01*
X7273Y7607D01*
X7262Y7602D01*
X7205Y7546D01*
X7135Y7616D01*
D02*
G37*
G36*
X477Y7257D02*
X447Y7254D01*
X418Y7246D01*
X391Y7231D01*
X368Y7212D01*
X349Y7189D01*
X334Y7162D01*
X326Y7133D01*
X323Y7103D01*
X326Y7073D01*
X334Y7044D01*
X349Y7017D01*
X368Y6994D01*
X391Y6974D01*
X418Y6960D01*
X447Y6951D01*
X477Y6948D01*
X507Y6951D01*
X536Y6960D01*
X563Y6974D01*
X586Y6994D01*
X606Y7017D01*
X620Y7044D01*
X629Y7073D01*
X632Y7103D01*
X629Y7133D01*
X620Y7162D01*
X606Y7189D01*
X586Y7212D01*
X563Y7231D01*
X536Y7246D01*
X507Y7254D01*
X477Y7257D01*
D02*
G37*
G36*
X7655Y7114D02*
X7634Y7110D01*
X7615Y7097D01*
X7559Y7041D01*
X7547Y7023D01*
X7542Y7001D01*
X7547Y6980D01*
X7559Y6962D01*
X7577Y6949D01*
X7599Y6945D01*
X7620Y6949D01*
X7638Y6962D01*
X7695Y7018D01*
X7707Y7036D01*
X7711Y7058D01*
X7707Y7079D01*
X7695Y7097D01*
X7677Y7110D01*
X7655Y7114D01*
D02*
G37*
G36*
X5895Y6998D02*
X5779D01*
X5837Y6940D01*
X5895Y6998D01*
D02*
G37*
G36*
X5744Y6963D02*
Y6847D01*
X5802Y6905D01*
X5744Y6963D01*
D02*
G37*
G36*
X5930Y6963D02*
X5872Y6905D01*
X5930Y6847D01*
Y6963D01*
D02*
G37*
G36*
X5837Y6869D02*
X5779Y6811D01*
X5895D01*
X5837Y6869D01*
D02*
G37*
G36*
X1618Y7051D02*
X1588Y7048D01*
X1559Y7039D01*
X1532Y7025D01*
X1509Y7005D01*
X1490Y6982D01*
X1475Y6955D01*
X1466Y6926D01*
X1463Y6896D01*
X1466Y6866D01*
X1475Y6837D01*
X1490Y6810D01*
X1509Y6787D01*
X1532Y6768D01*
X1559Y6753D01*
X1588Y6745D01*
X1618Y6742D01*
X1648Y6745D01*
X1677Y6753D01*
X1704Y6768D01*
X1727Y6787D01*
X1746Y6810D01*
X1761Y6837D01*
X1770Y6866D01*
X1772Y6896D01*
X1770Y6926D01*
X1761Y6955D01*
X1746Y6982D01*
X1727Y7005D01*
X1704Y7025D01*
X1677Y7039D01*
X1648Y7048D01*
X1618Y7051D01*
D02*
G37*
G36*
X4987Y6603D02*
X4985Y6602D01*
X4971D01*
Y6590D01*
X4971Y6589D01*
X4971Y6588D01*
X4969Y6587D01*
X4966Y6585D01*
X4961Y6584D01*
X4955Y6583D01*
X4937Y6581D01*
X4926Y6581D01*
X4925Y6580D01*
X4866D01*
X4864Y6581D01*
X4843Y6582D01*
X4835Y6582D01*
X4829Y6584D01*
X4824Y6585D01*
X4820Y6586D01*
X4819Y6587D01*
X4819Y6587D01*
Y6599D01*
X4806D01*
X4804Y6600D01*
X4802Y6599D01*
X4801Y6600D01*
X4800Y6599D01*
X4729D01*
Y6464D01*
X4819D01*
Y6524D01*
X4820Y6525D01*
X4820Y6526D01*
X4821Y6527D01*
X4824Y6529D01*
X4829Y6530D01*
X4835Y6531D01*
X4853Y6533D01*
X4864Y6533D01*
X4866Y6534D01*
X4925D01*
X4926Y6533D01*
X4938Y6533D01*
X4947Y6533D01*
X4955Y6532D01*
X4961Y6530D01*
X4966Y6529D01*
X4969Y6528D01*
X4971Y6527D01*
X4971Y6526D01*
X4971Y6524D01*
Y6513D01*
X4985D01*
X4987Y6512D01*
X4988Y6512D01*
X4989Y6512D01*
X4990Y6513D01*
X5061D01*
Y6602D01*
X4990D01*
X4989Y6602D01*
X4988Y6602D01*
X4987Y6603D01*
D02*
G37*
G36*
X7691Y6640D02*
X7562D01*
X7627Y6576D01*
X7691Y6640D01*
D02*
G37*
G36*
X2287Y6560D02*
X2171D01*
X2229Y6502D01*
X2287Y6560D01*
D02*
G37*
G36*
X3305Y6558D02*
X3189D01*
X3247Y6500D01*
X3305Y6558D01*
D02*
G37*
G36*
X2794Y6556D02*
X2678D01*
X2736Y6498D01*
X2794Y6556D01*
D02*
G37*
G36*
X7881Y6631D02*
X7857Y6628D01*
X7835Y6619D01*
X7817Y6605D01*
X7802Y6586D01*
X7793Y6564D01*
X7790Y6540D01*
X7793Y6517D01*
X7802Y6495D01*
X7817Y6476D01*
X7835Y6462D01*
X7857Y6453D01*
X7881Y6450D01*
X7904Y6453D01*
X7926Y6462D01*
X7945Y6476D01*
X7946Y6476D01*
X7954Y6485D01*
X7962Y6492D01*
X7976Y6504D01*
X7982Y6508D01*
X7988Y6512D01*
X7992Y6514D01*
X7996Y6516D01*
X7999Y6516D01*
X8002Y6517D01*
X8003Y6517D01*
X8027D01*
X8029Y6517D01*
X8040Y6516D01*
X8049Y6516D01*
X8057Y6515D01*
X8064Y6514D01*
X8069Y6512D01*
X8072Y6511D01*
X8073Y6510D01*
X8073Y6510D01*
X8073Y6508D01*
X8074Y6507D01*
Y6486D01*
X8164D01*
Y6570D01*
X8091D01*
X8089Y6571D01*
X8087Y6570D01*
X8084D01*
X8084Y6570D01*
X8084Y6570D01*
X8074D01*
Y6566D01*
X8040Y6564D01*
X8029Y6564D01*
X8027Y6563D01*
X8003D01*
X8002Y6564D01*
X7999Y6564D01*
X7996Y6565D01*
X7992Y6567D01*
X7988Y6569D01*
X7982Y6573D01*
X7976Y6577D01*
X7954Y6596D01*
X7946Y6604D01*
X7945Y6605D01*
X7926Y6619D01*
X7904Y6628D01*
X7881Y6631D01*
D02*
G37*
G36*
X7727Y6605D02*
X7662Y6540D01*
X7727Y6476D01*
Y6605D01*
D02*
G37*
G36*
X7527Y6605D02*
Y6476D01*
X7591Y6540D01*
X7527Y6605D01*
D02*
G37*
G36*
X7627Y6505D02*
X7562Y6440D01*
X7691D01*
X7627Y6505D01*
D02*
G37*
G36*
X5895Y6489D02*
X5779D01*
X5837Y6431D01*
X5895Y6489D01*
D02*
G37*
G36*
X1286Y6718D02*
X1256Y6715D01*
X1227Y6706D01*
X1200Y6692D01*
X1176Y6673D01*
X1157Y6650D01*
X1143Y6623D01*
X1134Y6594D01*
X1131Y6564D01*
X1134Y6534D01*
X1143Y6505D01*
X1157Y6478D01*
X1176Y6455D01*
X1200Y6435D01*
X1227Y6421D01*
X1256Y6412D01*
X1286Y6409D01*
X1316Y6412D01*
X1345Y6421D01*
X1371Y6435D01*
X1395Y6455D01*
X1414Y6478D01*
X1428Y6505D01*
X1437Y6534D01*
X1440Y6564D01*
X1437Y6594D01*
X1428Y6623D01*
X1414Y6650D01*
X1395Y6673D01*
X1371Y6692D01*
X1345Y6706D01*
X1316Y6715D01*
X1286Y6718D01*
D02*
G37*
G36*
X2135Y6524D02*
Y6408D01*
X2193Y6466D01*
X2135Y6524D01*
D02*
G37*
G36*
X2322Y6524D02*
X2264Y6466D01*
X2322Y6408D01*
Y6524D01*
D02*
G37*
G36*
X2642Y6521D02*
Y6405D01*
X2701Y6463D01*
X2642Y6521D01*
D02*
G37*
G36*
X2229Y6431D02*
X2171Y6373D01*
X2287D01*
X2229Y6431D01*
D02*
G37*
G36*
X5744Y6454D02*
Y6338D01*
X5802Y6396D01*
X5744Y6454D01*
D02*
G37*
G36*
X5930Y6454D02*
X5872Y6396D01*
X5930Y6338D01*
Y6454D01*
D02*
G37*
G36*
X4387Y6538D02*
X4365Y6534D01*
X4347Y6522D01*
X4335Y6504D01*
X4331Y6482D01*
X4335Y6461D01*
X4345Y6446D01*
X4346Y6444D01*
X4349Y6440D01*
X4355Y6433D01*
X4357Y6430D01*
X4358Y6427D01*
X4359Y6427D01*
X4358Y6424D01*
X4357Y6418D01*
X4356Y6418D01*
X4347Y6411D01*
X4344Y6408D01*
X4344Y6408D01*
X4343Y6406D01*
X4342Y6406D01*
X4342Y6404D01*
X4340Y6402D01*
X4339Y6397D01*
X4339Y6396D01*
X4339Y6396D01*
X4338Y6390D01*
Y6365D01*
X4340Y6353D01*
X4347Y6344D01*
X4356Y6337D01*
X4368Y6335D01*
X4399D01*
X4411Y6337D01*
X4420Y6344D01*
X4427Y6353D01*
X4429Y6365D01*
Y6390D01*
X4428Y6394D01*
X4429Y6395D01*
X4427Y6398D01*
X4427Y6402D01*
X4427Y6402D01*
X4426Y6404D01*
X4423Y6410D01*
X4420Y6415D01*
X4417Y6421D01*
X4415Y6426D01*
X4414Y6429D01*
X4415Y6431D01*
X4421Y6437D01*
X4425Y6441D01*
X4425Y6442D01*
X4426Y6442D01*
X4438Y6461D01*
X4443Y6482D01*
X4438Y6504D01*
X4426Y6522D01*
X4408Y6534D01*
X4387Y6538D01*
D02*
G37*
G36*
X5837Y6360D02*
X5779Y6302D01*
X5895D01*
X5837Y6360D01*
D02*
G37*
G36*
X7881Y6377D02*
X7857Y6374D01*
X7835Y6365D01*
X7817Y6351D01*
X7802Y6332D01*
X7793Y6310D01*
X7790Y6286D01*
X7793Y6263D01*
X7802Y6241D01*
X7817Y6222D01*
X7835Y6208D01*
X7857Y6199D01*
X7881Y6196D01*
X7904Y6199D01*
X7926Y6208D01*
X7945Y6222D01*
X7946Y6222D01*
X7954Y6231D01*
X7962Y6238D01*
X7976Y6250D01*
X7982Y6254D01*
X7988Y6258D01*
X7992Y6260D01*
X7996Y6262D01*
X7999Y6262D01*
X8002Y6263D01*
X8003Y6263D01*
X8018D01*
X8019Y6263D01*
X8030Y6262D01*
X8040Y6262D01*
X8048Y6261D01*
X8054Y6260D01*
X8059Y6258D01*
X8062Y6257D01*
X8063Y6256D01*
X8064Y6254D01*
X8064Y6253D01*
Y6232D01*
X8154D01*
Y6316D01*
X8082D01*
X8080Y6317D01*
X8077Y6316D01*
X8075D01*
X8074Y6316D01*
X8074Y6316D01*
X8064D01*
Y6312D01*
X8031Y6310D01*
X8020Y6310D01*
X8018Y6309D01*
X8003D01*
X8002Y6310D01*
X7999Y6310D01*
X7996Y6311D01*
X7992Y6313D01*
X7988Y6315D01*
X7982Y6319D01*
X7976Y6323D01*
X7954Y6342D01*
X7946Y6350D01*
X7945Y6351D01*
X7926Y6365D01*
X7904Y6374D01*
X7881Y6377D01*
D02*
G37*
G36*
X7627D02*
X7603Y6374D01*
X7581Y6365D01*
X7563Y6351D01*
X7548Y6332D01*
X7539Y6310D01*
X7536Y6286D01*
X7539Y6263D01*
X7548Y6241D01*
X7563Y6222D01*
X7581Y6208D01*
X7603Y6199D01*
X7627Y6196D01*
X7650Y6199D01*
X7672Y6208D01*
X7691Y6222D01*
X7705Y6241D01*
X7715Y6263D01*
X7718Y6286D01*
X7715Y6310D01*
X7705Y6332D01*
X7691Y6351D01*
X7672Y6365D01*
X7650Y6374D01*
X7627Y6377D01*
D02*
G37*
G36*
X4201Y6334D02*
X4169D01*
X4158Y6332D01*
X4148Y6325D01*
X4142Y6315D01*
X4140Y6304D01*
Y6279D01*
X4140Y6274D01*
X4140Y6273D01*
X4141Y6270D01*
X4142Y6267D01*
X4142Y6267D01*
X4142Y6265D01*
X4146Y6258D01*
X4150Y6253D01*
X4151Y6249D01*
X4149Y6246D01*
X4146Y6243D01*
X4145Y6242D01*
X4133Y6224D01*
X4129Y6203D01*
X4133Y6181D01*
X4145Y6163D01*
X4164Y6151D01*
X4185Y6147D01*
X4207Y6151D01*
X4225Y6163D01*
X4237Y6181D01*
X4241Y6203D01*
X4237Y6224D01*
X4225Y6242D01*
X4225Y6242D01*
X4219Y6249D01*
X4221Y6253D01*
X4224Y6258D01*
X4228Y6265D01*
X4228Y6267D01*
X4228Y6267D01*
X4229Y6270D01*
X4230Y6273D01*
X4230Y6274D01*
X4231Y6279D01*
Y6304D01*
X4228Y6315D01*
X4222Y6325D01*
X4212Y6332D01*
X4201Y6334D01*
D02*
G37*
G36*
X7881Y6123D02*
X7857Y6120D01*
X7835Y6111D01*
X7817Y6097D01*
X7802Y6078D01*
X7793Y6056D01*
X7790Y6032D01*
X7793Y6009D01*
X7802Y5987D01*
X7817Y5968D01*
X7835Y5954D01*
X7857Y5945D01*
X7881Y5942D01*
X7904Y5945D01*
X7926Y5954D01*
X7945Y5968D01*
X7959Y5987D01*
X7969Y6009D01*
X7972Y6032D01*
X7969Y6056D01*
X7959Y6078D01*
X7945Y6097D01*
X7926Y6111D01*
X7904Y6120D01*
X7881Y6123D01*
D02*
G37*
G36*
X7627D02*
X7603Y6120D01*
X7581Y6111D01*
X7563Y6097D01*
X7548Y6078D01*
X7539Y6056D01*
X7536Y6032D01*
X7539Y6009D01*
X7548Y5987D01*
X7563Y5968D01*
X7581Y5954D01*
X7603Y5945D01*
X7627Y5942D01*
X7650Y5945D01*
X7672Y5954D01*
X7691Y5968D01*
X7705Y5987D01*
X7715Y6009D01*
X7718Y6032D01*
X7715Y6056D01*
X7705Y6078D01*
X7691Y6097D01*
X7672Y6111D01*
X7650Y6120D01*
X7627Y6123D01*
D02*
G37*
G36*
X5895Y5984D02*
X5779D01*
X5837Y5926D01*
X5895Y5984D01*
D02*
G37*
G36*
X5744Y5948D02*
Y5832D01*
X5802Y5890D01*
X5744Y5948D01*
D02*
G37*
G36*
X5930Y5948D02*
X5872Y5890D01*
X5930Y5832D01*
Y5948D01*
D02*
G37*
G36*
X5837Y5855D02*
X5779Y5797D01*
X5895D01*
X5837Y5855D01*
D02*
G37*
G36*
X7881Y5869D02*
X7857Y5866D01*
X7835Y5857D01*
X7817Y5843D01*
X7802Y5824D01*
X7793Y5802D01*
X7790Y5778D01*
X7793Y5755D01*
X7802Y5733D01*
X7817Y5714D01*
X7835Y5700D01*
X7857Y5691D01*
X7881Y5688D01*
X7904Y5691D01*
X7926Y5700D01*
X7945Y5714D01*
X7959Y5733D01*
X7969Y5755D01*
X7972Y5778D01*
X7969Y5802D01*
X7959Y5824D01*
X7945Y5843D01*
X7926Y5857D01*
X7904Y5866D01*
X7881Y5869D01*
D02*
G37*
G36*
X7627D02*
X7603Y5866D01*
X7581Y5857D01*
X7563Y5843D01*
X7548Y5824D01*
X7539Y5802D01*
X7536Y5778D01*
X7539Y5755D01*
X7548Y5733D01*
X7563Y5714D01*
X7581Y5700D01*
X7603Y5691D01*
X7627Y5688D01*
X7650Y5691D01*
X7672Y5700D01*
X7691Y5714D01*
X7705Y5733D01*
X7715Y5755D01*
X7718Y5778D01*
X7715Y5802D01*
X7705Y5824D01*
X7691Y5843D01*
X7672Y5857D01*
X7650Y5866D01*
X7627Y5869D01*
D02*
G37*
G36*
X7881Y5615D02*
X7857Y5612D01*
X7835Y5603D01*
X7817Y5589D01*
X7802Y5570D01*
X7793Y5548D01*
X7790Y5524D01*
X7793Y5501D01*
X7802Y5479D01*
X7817Y5460D01*
X7835Y5446D01*
X7857Y5437D01*
X7881Y5434D01*
X7904Y5437D01*
X7926Y5446D01*
X7945Y5460D01*
X7959Y5479D01*
X7969Y5501D01*
X7972Y5524D01*
X7969Y5548D01*
X7959Y5570D01*
X7945Y5589D01*
X7926Y5603D01*
X7904Y5612D01*
X7881Y5615D01*
D02*
G37*
G36*
X7627D02*
X7603Y5612D01*
X7581Y5603D01*
X7563Y5589D01*
X7548Y5570D01*
X7539Y5548D01*
X7536Y5524D01*
X7539Y5501D01*
X7548Y5479D01*
X7563Y5460D01*
X7581Y5446D01*
X7603Y5437D01*
X7627Y5434D01*
X7650Y5437D01*
X7672Y5446D01*
X7691Y5460D01*
X7705Y5479D01*
X7715Y5501D01*
X7718Y5524D01*
X7715Y5548D01*
X7705Y5570D01*
X7691Y5589D01*
X7672Y5603D01*
X7650Y5612D01*
X7627Y5615D01*
D02*
G37*
G36*
X5895Y5481D02*
X5779D01*
X5837Y5423D01*
X5895Y5481D01*
D02*
G37*
G36*
X5744Y5445D02*
Y5329D01*
X5802Y5387D01*
X5744Y5445D01*
D02*
G37*
G36*
X5930Y5445D02*
X5872Y5387D01*
X5930Y5329D01*
Y5445D01*
D02*
G37*
G36*
X5837Y5352D02*
X5779Y5294D01*
X5895D01*
X5837Y5352D01*
D02*
G37*
G36*
X5895Y5001D02*
X5779D01*
X5837Y4943D01*
X5895Y5001D01*
D02*
G37*
G36*
X2733Y5973D02*
X2416D01*
X2404Y5968D01*
X2399Y5956D01*
Y4922D01*
X2404Y4911D01*
X2416Y4906D01*
X2733D01*
X2745Y4911D01*
X2749Y4922D01*
Y5956D01*
X2745Y5968D01*
X2733Y5973D01*
D02*
G37*
G36*
X5744Y4965D02*
Y4849D01*
X5802Y4907D01*
X5744Y4965D01*
D02*
G37*
G36*
X5930Y4965D02*
X5872Y4907D01*
X5930Y4849D01*
Y4965D01*
D02*
G37*
G36*
X5837Y4872D02*
X5779Y4814D01*
X5895D01*
X5837Y4872D01*
D02*
G37*
G36*
X4756Y4798D02*
X3756D01*
X3745Y4793D01*
X3740Y4782D01*
Y3782D01*
X3745Y3770D01*
X3756Y3766D01*
X4756D01*
X4768Y3770D01*
X4773Y3782D01*
Y4782D01*
X4768Y4793D01*
X4756Y4798D01*
D02*
G37*
G36*
X3682Y3510D02*
X3566D01*
X3624Y3452D01*
X3682Y3510D01*
D02*
G37*
G36*
X3531Y3474D02*
Y3358D01*
X3589Y3416D01*
X3531Y3474D01*
D02*
G37*
G36*
X3717Y3474D02*
X3659Y3416D01*
X3717Y3358D01*
Y3474D01*
D02*
G37*
G36*
X3624Y3381D02*
X3566Y3323D01*
X3682D01*
X3624Y3381D01*
D02*
G37*
G36*
X5909Y3367D02*
X5793D01*
X5851Y3309D01*
X5909Y3367D01*
D02*
G37*
G36*
X5758Y3332D02*
Y3216D01*
X5816Y3274D01*
X5758Y3332D01*
D02*
G37*
G36*
X5945Y3332D02*
X5887Y3274D01*
X5945Y3216D01*
Y3332D01*
D02*
G37*
G36*
X5851Y3239D02*
X5793Y3181D01*
X5909D01*
X5851Y3239D01*
D02*
G37*
G36*
X5910Y2862D02*
X5794D01*
X5852Y2804D01*
X5910Y2862D01*
D02*
G37*
G36*
X5759Y2827D02*
Y2711D01*
X5817Y2769D01*
X5759Y2827D01*
D02*
G37*
G36*
X5946Y2827D02*
X5888Y2769D01*
X5946Y2711D01*
Y2827D01*
D02*
G37*
G36*
X5852Y2733D02*
X5794Y2675D01*
X5910D01*
X5852Y2733D01*
D02*
G37*
G36*
X5909Y2334D02*
X5793D01*
X5851Y2276D01*
X5909Y2334D01*
D02*
G37*
G36*
X5758Y2298D02*
Y2182D01*
X5816Y2240D01*
X5758Y2298D01*
D02*
G37*
G36*
X5945Y2298D02*
X5887Y2240D01*
X5945Y2182D01*
Y2298D01*
D02*
G37*
G36*
X5851Y2205D02*
X5793Y2147D01*
X5909D01*
X5851Y2205D01*
D02*
G37*
G36*
X5910Y1821D02*
X5794D01*
X5852Y1763D01*
X5910Y1821D01*
D02*
G37*
G36*
X1785Y1769D02*
X1763Y1760D01*
X1743Y1745D01*
X1728Y1725D01*
X1719Y1703D01*
X1785D01*
X1785Y1769D01*
D02*
G37*
G36*
X1835Y1769D02*
X1835Y1703D01*
X1901D01*
X1891Y1725D01*
X1876Y1745D01*
X1857Y1760D01*
X1835Y1769D01*
D02*
G37*
G36*
X5759Y1785D02*
Y1669D01*
X5817Y1727D01*
X5759Y1785D01*
D02*
G37*
G36*
X5946Y1785D02*
X5888Y1727D01*
X5946Y1669D01*
Y1785D01*
D02*
G37*
G36*
X5852Y1692D02*
X5794Y1634D01*
X5910D01*
X5852Y1692D01*
D02*
G37*
G36*
X1835Y1653D02*
X1835Y1587D01*
X1857Y1596D01*
X1876Y1611D01*
X1891Y1631D01*
X1901Y1653D01*
X1835D01*
D02*
G37*
G36*
X1719D02*
X1728Y1631D01*
X1743Y1611D01*
X1763Y1596D01*
X1785Y1587D01*
Y1653D01*
X1719D01*
D02*
G37*
G36*
X1989Y1616D02*
X1871Y1498D01*
X1989Y1380D01*
X2107Y1498D01*
X1989Y1616D01*
D02*
G37*
G36*
X5909Y1292D02*
X5793D01*
X5851Y1234D01*
X5909Y1292D01*
D02*
G37*
G36*
X5758Y1257D02*
Y1141D01*
X5816Y1199D01*
X5758Y1257D01*
D02*
G37*
G36*
X5945Y1257D02*
X5887Y1199D01*
X5945Y1141D01*
Y1257D01*
D02*
G37*
G36*
X5851Y1164D02*
X5793Y1105D01*
X5909D01*
X5851Y1164D01*
D02*
G37*
G36*
X7292Y1210D02*
X7228Y1146D01*
X7288Y1087D01*
X7295Y1094D01*
X7488Y901D01*
X7483Y896D01*
X7483Y896D01*
X7435Y848D01*
X7482Y801D01*
X7416Y735D01*
X7482Y669D01*
X7549Y737D01*
X7514Y772D01*
X7562Y820D01*
X7562Y820D01*
X7610Y868D01*
X7532Y946D01*
X7528Y941D01*
X7335Y1134D01*
X7351Y1150D01*
X7292Y1210D01*
D02*
G37*
G36*
X5507Y848D02*
X5470Y844D01*
X5434Y833D01*
X5401Y815D01*
X5372Y792D01*
X5348Y763D01*
X5331Y730D01*
X5320Y694D01*
X5316Y657D01*
X5320Y619D01*
X5331Y584D01*
X5348Y551D01*
X5372Y522D01*
X5401Y498D01*
X5434Y480D01*
X5470Y469D01*
X5507Y466D01*
X5544Y469D01*
X5580Y480D01*
X5613Y498D01*
X5642Y522D01*
X5666Y551D01*
X5684Y584D01*
X5694Y619D01*
X5698Y657D01*
X5694Y694D01*
X5684Y730D01*
X5666Y763D01*
X5642Y792D01*
X5613Y815D01*
X5580Y833D01*
X5544Y844D01*
X5507Y848D01*
D02*
G37*
%LPD*%
G36*
X5892Y7810D02*
X5876Y7810D01*
X5833Y7807D01*
X5822Y7805D01*
X5812Y7803D01*
X5803Y7801D01*
X5796Y7798D01*
X5790Y7795D01*
X5786Y7791D01*
X5775Y7802D01*
X5779Y7806D01*
X5782Y7812D01*
X5785Y7820D01*
X5787Y7828D01*
X5789Y7838D01*
X5791Y7849D01*
X5793Y7876D01*
X5793Y7909D01*
X5892Y7810D01*
D02*
G37*
G36*
X5677Y6848D02*
X5659Y6827D01*
X5655Y6821D01*
X5651Y6815D01*
X5648Y6810D01*
X5646Y6805D01*
X5645Y6800D01*
X5644Y6796D01*
X5629D01*
X5629Y6800D01*
X5628Y6805D01*
X5626Y6810D01*
X5623Y6815D01*
X5619Y6821D01*
X5615Y6827D01*
X5604Y6841D01*
X5597Y6848D01*
X5589Y6856D01*
X5685D01*
X5677Y6848D01*
D02*
G37*
G36*
X5577Y6846D02*
X5578Y6844D01*
X5585Y6837D01*
X5591Y6830D01*
X5602Y6817D01*
X5606Y6812D01*
X5609Y6807D01*
X5611Y6803D01*
X5612Y6800D01*
X5613Y6797D01*
X5613Y6794D01*
X5614Y6793D01*
Y6774D01*
X5565Y6725D01*
Y6861D01*
X5577Y6846D01*
D02*
G37*
G36*
X4540Y6399D02*
X4541Y6398D01*
X4542Y6398D01*
X4543Y6397D01*
X4545Y6397D01*
X4548Y6397D01*
X4554Y6396D01*
X4561Y6396D01*
Y6381D01*
X4557Y6381D01*
X4545Y6381D01*
X4543Y6380D01*
X4542Y6380D01*
X4541Y6379D01*
X4540Y6379D01*
X4540Y6378D01*
Y6399D01*
X4540Y6399D01*
D02*
G37*
G36*
X3329Y6288D02*
X3328Y6288D01*
X3328Y6289D01*
X3327Y6290D01*
X3329Y6288D01*
D02*
G37*
G36*
X5685Y6347D02*
X5677Y6339D01*
X5659Y6318D01*
X5655Y6312D01*
X5651Y6306D01*
X5648Y6301D01*
X5646Y6296D01*
X5645Y6291D01*
X5644Y6287D01*
X5629Y6287D01*
X5629Y6291D01*
X5628Y6296D01*
X5626Y6301D01*
X5623Y6306D01*
X5619Y6312D01*
X5615Y6318D01*
X5604Y6332D01*
X5597Y6339D01*
X5589Y6347D01*
X5685Y6347D01*
D02*
G37*
G36*
X4899Y6337D02*
X4901Y6333D01*
X4904Y6330D01*
X4908Y6327D01*
X4914Y6325D01*
X4920Y6323D01*
X4928Y6321D01*
X4937Y6320D01*
X4947Y6319D01*
X4959Y6319D01*
Y6304D01*
X4947Y6304D01*
X4928Y6302D01*
X4920Y6300D01*
X4914Y6298D01*
X4908Y6296D01*
X4904Y6293D01*
X4901Y6290D01*
X4899Y6286D01*
X4899Y6281D01*
Y6341D01*
X4899Y6337D01*
D02*
G37*
G36*
X2818Y6334D02*
X2816Y6331D01*
X2813Y6327D01*
X2811Y6322D01*
X2809Y6316D01*
X2807Y6309D01*
X2806Y6302D01*
X2805Y6284D01*
X2804Y6274D01*
X2804Y6263D01*
X2737Y6331D01*
X2747Y6331D01*
X2775Y6333D01*
X2783Y6334D01*
X2789Y6336D01*
X2795Y6338D01*
X2800Y6340D01*
X2804Y6342D01*
X2808Y6345D01*
X2818Y6334D01*
D02*
G37*
G36*
X3314Y6281D02*
X3315Y6279D01*
X3316Y6277D01*
X3318Y6276D01*
X3319Y6275D01*
X3321Y6274D01*
X3324Y6273D01*
X3326Y6272D01*
X3329Y6272D01*
X3332Y6272D01*
Y6257D01*
X3329Y6257D01*
X3326Y6256D01*
X3324Y6256D01*
X3321Y6255D01*
X3319Y6254D01*
X3318Y6253D01*
X3316Y6251D01*
X3315Y6250D01*
X3314Y6248D01*
X3313Y6245D01*
Y6283D01*
X3314Y6281D01*
D02*
G37*
G36*
X4529Y6275D02*
X4527Y6274D01*
X4525Y6272D01*
X4523Y6269D01*
X4521Y6265D01*
X4520Y6260D01*
X4519Y6255D01*
X4518Y6248D01*
X4518Y6233D01*
X4503D01*
X4503Y6241D01*
X4502Y6255D01*
X4501Y6260D01*
X4499Y6265D01*
X4498Y6269D01*
X4496Y6272D01*
X4494Y6274D01*
X4492Y6275D01*
X4489Y6276D01*
X4532D01*
X4529Y6275D01*
D02*
G37*
G36*
X4298Y6286D02*
X4297Y6284D01*
X4296Y6281D01*
X4296Y6277D01*
X4295Y6265D01*
X4294Y6227D01*
X4279D01*
X4279Y6238D01*
X4277Y6272D01*
X4276Y6277D01*
X4274Y6281D01*
X4273Y6284D01*
X4271Y6286D01*
X4269Y6287D01*
X4299D01*
X4298Y6286D01*
D02*
G37*
G36*
X3371Y6193D02*
X3291D01*
X3307Y6205D01*
X3320Y6222D01*
X3326Y6237D01*
X3371Y6193D01*
D02*
G37*
G36*
X3205Y6337D02*
X3188Y6324D01*
X3174Y6306D01*
X3166Y6286D01*
X3163Y6264D01*
X3166Y6243D01*
X3174Y6222D01*
X3188Y6205D01*
X3204Y6193D01*
X2782D01*
X2795Y6203D01*
X2809Y6221D01*
X2817Y6241D01*
X2820Y6262D01*
X2820Y6263D01*
X2821Y6274D01*
X2821Y6283D01*
X2822Y6300D01*
X2823Y6306D01*
X2825Y6312D01*
X2826Y6316D01*
X2828Y6320D01*
X2829Y6322D01*
X2831Y6324D01*
X2831Y6326D01*
X2845Y6340D01*
X3212D01*
X3205Y6337D01*
D02*
G37*
G36*
X2297Y6255D02*
X2299Y6227D01*
X2300Y6219D01*
X2302Y6213D01*
X2304Y6207D01*
X2306Y6202D01*
X2308Y6198D01*
X2311Y6194D01*
X2301Y6184D01*
X2297Y6187D01*
X2293Y6189D01*
X2288Y6191D01*
X2282Y6193D01*
X2275Y6195D01*
X2268Y6196D01*
X2250Y6197D01*
X2240Y6198D01*
X2229Y6198D01*
X2297Y6265D01*
X2297Y6255D01*
D02*
G37*
G36*
X4377Y5985D02*
X4357D01*
X4358Y5985D01*
X4358Y5987D01*
X4358Y5990D01*
X4359Y6000D01*
X4359Y6045D01*
X4374D01*
X4377Y5985D01*
D02*
G37*
G36*
X4297D02*
X4277D01*
X4278Y5985D01*
X4278Y5987D01*
X4278Y5990D01*
X4279Y6000D01*
X4279Y6045D01*
X4294D01*
X4297Y5985D01*
D02*
G37*
G36*
X4177D02*
X4157D01*
X4158Y5985D01*
X4158Y5987D01*
X4158Y5989D01*
X4159Y5997D01*
X4159Y6035D01*
X4174D01*
X4177Y5985D01*
D02*
G37*
G36*
X4134Y6009D02*
X4136Y5986D01*
X4136Y5985D01*
X4137Y5985D01*
X4117D01*
X4118Y5985D01*
X4118Y5986D01*
X4118Y5987D01*
X4119Y5989D01*
X4119Y5996D01*
X4119Y6015D01*
X4134D01*
X4134Y6009D01*
D02*
G37*
G36*
X4103Y6007D02*
X4103Y6000D01*
X4102D01*
Y5988D01*
X4101Y5987D01*
X4101Y5986D01*
X4101Y5985D01*
X4102Y5982D01*
Y5910D01*
X4100D01*
X4099Y5910D01*
X4098Y5911D01*
X4097Y5912D01*
X4095Y5915D01*
X4094Y5920D01*
X4092Y5926D01*
X4091Y5944D01*
X4091Y5955D01*
X4090Y5957D01*
Y6012D01*
X4088Y6021D01*
X4086Y6024D01*
X4103Y6007D01*
D02*
G37*
G36*
X4075Y5943D02*
X4076Y5924D01*
X4078Y5916D01*
X4080Y5909D01*
X4082Y5904D01*
X4085Y5900D01*
X4089Y5897D01*
X4093Y5895D01*
X4097Y5894D01*
X4037D01*
X4041Y5895D01*
X4045Y5897D01*
X4048Y5900D01*
X4051Y5904D01*
X4054Y5909D01*
X4056Y5916D01*
X4057Y5924D01*
X4058Y5933D01*
X4059Y5943D01*
X4059Y5955D01*
X4074D01*
X4075Y5943D01*
D02*
G37*
G36*
X4507Y5894D02*
X4509Y5894D01*
X4512Y5893D01*
X4522Y5893D01*
X4567Y5892D01*
Y5877D01*
X4507Y5875D01*
Y5895D01*
X4507Y5894D01*
D02*
G37*
G36*
X5597Y5921D02*
X5602Y5918D01*
X5599Y5918D01*
X5597Y5918D01*
X5595Y5917D01*
X5595Y5917D01*
X5593Y5914D01*
X5593Y5913D01*
X5594Y5912D01*
X5595Y5910D01*
X5597Y5908D01*
X5589D01*
X5570Y5875D01*
X5568Y5883D01*
X5566Y5890D01*
X5563Y5897D01*
X5560Y5903D01*
X5556Y5907D01*
X5552Y5911D01*
X5548Y5914D01*
X5544Y5917D01*
X5539Y5918D01*
X5533Y5918D01*
X5543Y5933D01*
X5544Y5934D01*
X5546Y5934D01*
X5617Y5956D01*
X5597Y5921D01*
D02*
G37*
G36*
X4507Y5854D02*
X4509Y5854D01*
X4512Y5853D01*
X4522Y5853D01*
X4567Y5852D01*
Y5837D01*
X4507Y5835D01*
Y5855D01*
X4507Y5854D01*
D02*
G37*
G36*
X4027Y5835D02*
X4027Y5836D01*
X4025Y5836D01*
X4022Y5836D01*
X4012Y5837D01*
X3967Y5837D01*
Y5852D01*
X4027Y5855D01*
Y5835D01*
D02*
G37*
G36*
X4507Y5814D02*
X4509Y5814D01*
X4512Y5813D01*
X4522Y5813D01*
X4567Y5812D01*
Y5797D01*
X4507Y5795D01*
Y5815D01*
X4507Y5814D01*
D02*
G37*
G36*
X5042Y5764D02*
X5038Y5764D01*
X5031Y5763D01*
X5028Y5762D01*
X5025Y5762D01*
X5023Y5761D01*
X5020Y5760D01*
X5018Y5758D01*
X5016Y5757D01*
X5014Y5755D01*
X5003Y5766D01*
X5005Y5768D01*
X5006Y5770D01*
X5008Y5772D01*
X5009Y5774D01*
X5010Y5777D01*
X5011Y5780D01*
X5011Y5783D01*
X5012Y5786D01*
X5012Y5790D01*
X5012Y5793D01*
X5042Y5764D01*
D02*
G37*
G36*
X4507Y5774D02*
X4509Y5774D01*
X4512Y5773D01*
X4522Y5773D01*
X4567Y5772D01*
Y5757D01*
X4507Y5755D01*
Y5775D01*
X4507Y5774D01*
D02*
G37*
G36*
X4027Y5755D02*
X4027Y5756D01*
X4025Y5756D01*
X4022Y5756D01*
X4012Y5757D01*
X3967Y5757D01*
Y5772D01*
X4027Y5775D01*
Y5755D01*
D02*
G37*
G36*
X3680Y5778D02*
X3682Y5777D01*
X3685Y5776D01*
X3689Y5775D01*
X3694Y5774D01*
X3709Y5773D01*
X3739Y5772D01*
Y5757D01*
X3728Y5757D01*
X3689Y5755D01*
X3685Y5754D01*
X3682Y5753D01*
X3680Y5751D01*
X3679Y5750D01*
Y5780D01*
X3680Y5778D01*
D02*
G37*
G36*
X3560Y5750D02*
X3559Y5751D01*
X3557Y5752D01*
X3554Y5752D01*
X3550Y5753D01*
X3538Y5753D01*
X3500Y5754D01*
Y5769D01*
X3511Y5769D01*
X3545Y5772D01*
X3550Y5773D01*
X3554Y5774D01*
X3557Y5776D01*
X3559Y5778D01*
X3560Y5780D01*
Y5750D01*
D02*
G37*
G36*
X4996Y5790D02*
X4995Y5788D01*
X4995Y5786D01*
X4995Y5784D01*
X4994Y5782D01*
X4994Y5781D01*
X4993Y5779D01*
X4993Y5779D01*
X4992Y5778D01*
X4991Y5777D01*
X4991Y5775D01*
X4963Y5748D01*
X4952D01*
X4953Y5749D01*
X4996Y5791D01*
X4996Y5790D01*
D02*
G37*
G36*
X3432Y5785D02*
X3440Y5779D01*
X3444Y5776D01*
X3448Y5774D01*
X3451Y5772D01*
X3454Y5771D01*
X3458Y5770D01*
X3461Y5769D01*
X3464Y5769D01*
X3465Y5754D01*
X3462Y5754D01*
X3459Y5753D01*
X3455Y5752D01*
X3452Y5751D01*
X3449Y5749D01*
X3446Y5746D01*
X3442Y5744D01*
X3439Y5740D01*
X3435Y5737D01*
X3432Y5733D01*
X3427Y5788D01*
X3432Y5785D01*
D02*
G37*
G36*
X2896Y5871D02*
X2897Y5867D01*
X2900Y5863D01*
X2905Y5860D01*
X2910Y5858D01*
X2917Y5856D01*
X2925Y5854D01*
X2934Y5853D01*
X2944Y5853D01*
X2955Y5852D01*
Y5837D01*
X2944Y5837D01*
X2925Y5836D01*
X2917Y5835D01*
X2910Y5833D01*
X2905Y5831D01*
X2901Y5829D01*
X2898Y5826D01*
X2896Y5823D01*
X2895Y5820D01*
X2892Y5819D01*
X2888Y5817D01*
X2885Y5814D01*
X2883Y5810D01*
X2881Y5805D01*
X2879Y5798D01*
X2878Y5790D01*
X2877Y5781D01*
X2876Y5768D01*
X2878Y5750D01*
X2879Y5742D01*
X2881Y5735D01*
X2883Y5730D01*
X2885Y5726D01*
X2888Y5723D01*
X2892Y5721D01*
X2895Y5720D01*
X2839Y5720D01*
X2843Y5721D01*
X2847Y5722D01*
X2850Y5725D01*
X2853Y5730D01*
X2855Y5735D01*
X2857Y5742D01*
X2859Y5750D01*
X2860Y5759D01*
X2861Y5769D01*
X2861Y5771D01*
X2861Y5771D01*
X2859Y5790D01*
X2858Y5798D01*
X2856Y5805D01*
X2854Y5810D01*
X2852Y5814D01*
X2849Y5817D01*
X2846Y5819D01*
X2842Y5820D01*
X2895D01*
X2895Y5875D01*
X2896Y5871D01*
D02*
G37*
G36*
X4507Y5734D02*
X4509Y5734D01*
X4512Y5733D01*
X4522Y5733D01*
X4567Y5732D01*
Y5717D01*
X4507Y5715D01*
Y5735D01*
X4507Y5734D01*
D02*
G37*
G36*
X5003Y5721D02*
X5002Y5718D01*
X5000Y5713D01*
X4999Y5711D01*
X4998Y5710D01*
X4997Y5709D01*
X4997Y5708D01*
X4996Y5708D01*
X4988D01*
X4989Y5709D01*
X5004Y5723D01*
X5003Y5721D01*
D02*
G37*
G36*
X5041Y5686D02*
X5037Y5687D01*
X5034Y5688D01*
X5031Y5688D01*
X5029Y5688D01*
X5026Y5688D01*
X5024Y5687D01*
X5021Y5686D01*
X5019Y5685D01*
X5017Y5684D01*
X5015Y5682D01*
X5008Y5696D01*
X5009Y5697D01*
X5010Y5699D01*
X5012Y5701D01*
X5013Y5704D01*
X5014Y5706D01*
X5017Y5712D01*
X5018Y5716D01*
X5021Y5723D01*
X5041Y5686D01*
D02*
G37*
G36*
X4507Y5694D02*
X4509Y5694D01*
X4512Y5693D01*
X4522Y5693D01*
X4567Y5692D01*
Y5677D01*
X4507Y5675D01*
Y5695D01*
X4507Y5694D01*
D02*
G37*
G36*
X5509Y5754D02*
Y5570D01*
X5417Y5662D01*
X5409Y5667D01*
X5401Y5669D01*
X5024D01*
X5024Y5669D01*
X5026Y5670D01*
X5027Y5671D01*
X5027Y5671D01*
X5028Y5671D01*
X5028Y5672D01*
X5029Y5672D01*
X5030Y5672D01*
X5031Y5672D01*
X5032Y5672D01*
X5034Y5671D01*
X5036Y5671D01*
X5040Y5671D01*
X5050Y5669D01*
X5067Y5673D01*
X5082Y5683D01*
X5092Y5697D01*
X5095Y5715D01*
X5092Y5733D01*
X5082Y5747D01*
X5068Y5757D01*
X5074Y5761D01*
X5084Y5776D01*
X5088Y5794D01*
X5084Y5811D01*
X5074Y5826D01*
X5070Y5829D01*
X5434D01*
X5509Y5754D01*
D02*
G37*
G36*
X4507Y5654D02*
X4509Y5654D01*
X4516Y5654D01*
X4567Y5653D01*
Y5638D01*
X4507Y5635D01*
Y5655D01*
X4507Y5654D01*
D02*
G37*
G36*
X4027Y5635D02*
X4027Y5636D01*
X4025Y5636D01*
X4022Y5636D01*
X4012Y5637D01*
X3967Y5637D01*
Y5652D01*
X4027Y5655D01*
Y5635D01*
D02*
G37*
G36*
X2896Y5675D02*
X2897Y5672D01*
X2900Y5668D01*
X2905Y5665D01*
X2910Y5663D01*
X2917Y5661D01*
X2925Y5659D01*
X2934Y5658D01*
X2944Y5657D01*
X2955Y5657D01*
Y5642D01*
X2944Y5642D01*
X2925Y5640D01*
X2917Y5639D01*
X2910Y5636D01*
X2905Y5634D01*
X2900Y5631D01*
X2897Y5628D01*
X2896Y5624D01*
X2895Y5620D01*
Y5680D01*
X2896Y5675D01*
D02*
G37*
G36*
X4507Y5614D02*
X4509Y5614D01*
X4512Y5613D01*
X4522Y5613D01*
X4567Y5612D01*
Y5597D01*
X4507Y5595D01*
Y5615D01*
X4507Y5614D01*
D02*
G37*
G36*
X4027Y5595D02*
X4027Y5595D01*
X4025Y5596D01*
X4022Y5596D01*
X3998Y5597D01*
X3967Y5597D01*
Y5612D01*
X4027Y5615D01*
Y5595D01*
D02*
G37*
G36*
X2990Y5647D02*
X2993Y5645D01*
X2996Y5643D01*
X3001Y5642D01*
X3005Y5641D01*
X3011Y5640D01*
X3017Y5639D01*
X3030Y5638D01*
X3037Y5638D01*
X2988Y5588D01*
X2988Y5596D01*
X2987Y5609D01*
X2986Y5615D01*
X2985Y5620D01*
X2984Y5625D01*
X2982Y5629D01*
X2981Y5633D01*
X2979Y5636D01*
X2976Y5639D01*
X2987Y5649D01*
X2990Y5647D01*
D02*
G37*
G36*
X5444Y5527D02*
Y5450D01*
X5333Y5561D01*
X5326Y5566D01*
X5317Y5568D01*
X4479D01*
X4477Y5569D01*
X4466Y5569D01*
X4457Y5569D01*
X4449Y5570D01*
X4442Y5572D01*
X4437Y5573D01*
X4434Y5575D01*
X4433Y5576D01*
X4433Y5577D01*
X4432Y5578D01*
Y5580D01*
X4504D01*
X4507Y5579D01*
X4507Y5579D01*
X4507Y5579D01*
X4567Y5581D01*
X4569Y5582D01*
X5389D01*
X5444Y5527D01*
D02*
G37*
G36*
X3998Y5580D02*
X4012Y5580D01*
Y5580D01*
X4020D01*
X4021Y5580D01*
X4023Y5580D01*
X4024Y5579D01*
X4025Y5580D01*
X4027Y5579D01*
X4029Y5580D01*
X4032Y5580D01*
X4032Y5580D01*
X4102D01*
Y5578D01*
X4101Y5577D01*
X4101Y5576D01*
X4100Y5575D01*
X4097Y5573D01*
X4092Y5572D01*
X4086Y5570D01*
X4068Y5569D01*
X4057Y5569D01*
X4055Y5568D01*
X3954D01*
X3967Y5581D01*
X3998Y5580D01*
D02*
G37*
G36*
X4417Y5571D02*
X4419Y5567D01*
X4422Y5563D01*
X4426Y5560D01*
X4432Y5558D01*
X4438Y5556D01*
X4446Y5554D01*
X4455Y5553D01*
X4465Y5553D01*
X4477Y5552D01*
Y5537D01*
X4465Y5537D01*
X4446Y5535D01*
X4438Y5534D01*
X4432Y5532D01*
X4426Y5529D01*
X4422Y5526D01*
X4419Y5523D01*
X4417Y5519D01*
X4417Y5515D01*
Y5575D01*
X4417Y5571D01*
D02*
G37*
G36*
X4117Y5515D02*
X4117Y5519D01*
X4115Y5523D01*
X4112Y5526D01*
X4108Y5529D01*
X4102Y5532D01*
X4096Y5534D01*
X4088Y5535D01*
X4079Y5536D01*
X4069Y5537D01*
X4057Y5537D01*
Y5552D01*
X4069Y5553D01*
X4088Y5554D01*
X4096Y5556D01*
X4102Y5558D01*
X4108Y5560D01*
X4112Y5563D01*
X4115Y5567D01*
X4117Y5571D01*
X4117Y5575D01*
Y5515D01*
D02*
G37*
G36*
X2875Y5578D02*
X2871Y5577D01*
X2868Y5574D01*
X2865Y5569D01*
X2862Y5564D01*
X2860Y5557D01*
X2859Y5550D01*
X2858Y5541D01*
X2857Y5536D01*
X2858Y5522D01*
X2860Y5514D01*
X2861Y5508D01*
X2863Y5502D01*
X2865Y5498D01*
X2868Y5495D01*
X2871Y5493D01*
X2874Y5493D01*
X2825D01*
X2828Y5493D01*
X2831Y5495D01*
X2833Y5498D01*
X2836Y5502D01*
X2838Y5508D01*
X2839Y5514D01*
X2840Y5522D01*
X2841Y5531D01*
X2841Y5534D01*
X2840Y5550D01*
X2838Y5557D01*
X2836Y5564D01*
X2834Y5569D01*
X2831Y5574D01*
X2827Y5577D01*
X2824Y5578D01*
X2819Y5579D01*
X2879D01*
X2875Y5578D01*
D02*
G37*
G36*
X4336Y5505D02*
X4336Y5504D01*
X4335Y5503D01*
X4335Y5502D01*
X4335Y5499D01*
X4335Y5494D01*
X4334Y5483D01*
X4319D01*
X4319Y5487D01*
X4318Y5503D01*
X4318Y5504D01*
X4318Y5505D01*
X4317Y5505D01*
X4337D01*
X4336Y5505D01*
D02*
G37*
G36*
X4296Y5505D02*
X4296Y5504D01*
X4295Y5503D01*
X4295Y5500D01*
X4295Y5495D01*
X4294Y5476D01*
X4279D01*
X4279Y5482D01*
X4278Y5504D01*
X4278Y5505D01*
X4277Y5505D01*
X4297D01*
X4296Y5505D01*
D02*
G37*
G36*
X4217Y5445D02*
X4201D01*
X4201Y5457D01*
X4199Y5503D01*
X4198Y5505D01*
X4197Y5505D01*
X4217D01*
X4217Y5445D01*
D02*
G37*
G36*
X4176Y5505D02*
X4176Y5503D01*
X4175Y5500D01*
X4175Y5490D01*
X4174Y5445D01*
X4159D01*
X4157Y5505D01*
X4177D01*
X4176Y5505D01*
D02*
G37*
G36*
X5645Y5492D02*
X5646Y5487D01*
X5648Y5482D01*
X5651Y5477D01*
X5655Y5471D01*
X5659Y5465D01*
X5670Y5451D01*
X5677Y5444D01*
X5685Y5436D01*
X5589D01*
X5597Y5444D01*
X5615Y5465D01*
X5619Y5471D01*
X5623Y5477D01*
X5626Y5482D01*
X5628Y5487D01*
X5629Y5492D01*
X5629Y5496D01*
X5644D01*
X5645Y5492D01*
D02*
G37*
G36*
X5414Y5416D02*
Y5414D01*
X5353Y5475D01*
X5345Y5480D01*
X5337Y5481D01*
X4411D01*
X4403Y5490D01*
X4432D01*
Y5511D01*
X4433Y5513D01*
X4433Y5514D01*
X4434Y5515D01*
X4437Y5516D01*
X4442Y5518D01*
X4448Y5519D01*
X4466Y5521D01*
X4477Y5521D01*
X4479Y5522D01*
X5307D01*
X5414Y5416D01*
D02*
G37*
G36*
X5614Y5697D02*
Y5499D01*
X5613Y5498D01*
X5613Y5495D01*
X5612Y5492D01*
X5611Y5489D01*
X5609Y5485D01*
X5606Y5480D01*
X5602Y5475D01*
X5585Y5455D01*
X5578Y5448D01*
X5577Y5446D01*
X5564Y5429D01*
X5556Y5409D01*
X5555Y5404D01*
Y5756D01*
X5614Y5697D01*
D02*
G37*
G36*
X2871Y5443D02*
X2868Y5441D01*
X2865Y5438D01*
X2863Y5434D01*
X2861Y5428D01*
X2860Y5422D01*
X2858Y5414D01*
X2858Y5405D01*
X2857Y5383D01*
X2842D01*
X2842Y5395D01*
X2840Y5414D01*
X2839Y5422D01*
X2838Y5428D01*
X2836Y5434D01*
X2833Y5438D01*
X2831Y5441D01*
X2828Y5443D01*
X2825Y5443D01*
X2874D01*
X2871Y5443D01*
D02*
G37*
G36*
X4217Y5255D02*
X4219Y5235D01*
X4220Y5228D01*
X4222Y5221D01*
X4225Y5215D01*
X4228Y5211D01*
X4231Y5208D01*
X4235Y5206D01*
X4239Y5206D01*
X4200Y5206D01*
X4201Y5207D01*
X4201Y5208D01*
X4201Y5211D01*
X4201Y5266D01*
X4217D01*
X4217Y5255D01*
D02*
G37*
G36*
X4479Y5251D02*
X4479Y5245D01*
X4479Y5239D01*
X4478Y5233D01*
X4476Y5227D01*
X4475Y5221D01*
X4473Y5215D01*
X4470Y5209D01*
X4467Y5203D01*
X4464Y5197D01*
X4461Y5192D01*
Y5258D01*
X4456Y5269D01*
X4445Y5274D01*
X4283D01*
Y5447D01*
X4479Y5251D01*
D02*
G37*
G36*
X4511Y5244D02*
X4511Y5237D01*
X4512Y5230D01*
X4514Y5223D01*
X4516Y5216D01*
X4518Y5209D01*
X4521Y5202D01*
X4524Y5196D01*
X4528Y5189D01*
X4532Y5183D01*
X4474D01*
X4478Y5189D01*
X4482Y5196D01*
X4485Y5202D01*
X4488Y5209D01*
X4490Y5216D01*
X4492Y5223D01*
X4494Y5230D01*
X4495Y5237D01*
X4495Y5244D01*
X4496Y5251D01*
X4511D01*
X4511Y5244D01*
D02*
G37*
G36*
X4275Y5191D02*
X4277Y5188D01*
X4280Y5184D01*
X4284Y5181D01*
X4290Y5179D01*
X4296Y5177D01*
X4303Y5176D01*
X4306Y5176D01*
X4313Y5178D01*
X4320Y5180D01*
X4326Y5182D01*
X4332Y5185D01*
X4338Y5188D01*
X4343Y5191D01*
Y5139D01*
X4338Y5143D01*
X4332Y5146D01*
X4325Y5149D01*
X4319Y5151D01*
X4312Y5154D01*
X4305Y5155D01*
X4302Y5156D01*
X4296Y5155D01*
X4290Y5153D01*
X4284Y5150D01*
X4280Y5148D01*
X4277Y5144D01*
X4275Y5141D01*
X4275Y5137D01*
Y5158D01*
X4275Y5158D01*
Y5173D01*
X4275Y5173D01*
Y5196D01*
X4275Y5191D01*
D02*
G37*
G36*
X4267Y5600D02*
X4262D01*
Y5507D01*
X4261Y5505D01*
X4262Y5504D01*
X4261Y5502D01*
X4262Y5501D01*
X4262Y5501D01*
Y5490D01*
X4263D01*
X4263Y5481D01*
X4263Y5476D01*
X4265Y5472D01*
X4266Y5467D01*
X4267Y5465D01*
Y5258D01*
X4445D01*
Y5060D01*
X4408D01*
X4399Y5058D01*
X4392Y5053D01*
X4387Y5046D01*
X4385Y5037D01*
X4387Y5028D01*
X4392Y5021D01*
X4399Y5016D01*
X4408Y5014D01*
X4445D01*
Y4966D01*
X3901D01*
Y5258D01*
X4107D01*
Y5490D01*
X4141D01*
X4143Y5445D01*
X4144Y5443D01*
Y5221D01*
X4050D01*
Y5121D01*
Y5112D01*
X4046Y5111D01*
X4043Y5110D01*
X4043Y5110D01*
X4037Y5112D01*
X4032Y5114D01*
X4026Y5116D01*
X4021Y5118D01*
X4016Y5120D01*
X4011Y5124D01*
X4009Y5124D01*
X4008Y5124D01*
X4005Y5125D01*
X4002Y5126D01*
X4001Y5126D01*
X3997Y5127D01*
X3965D01*
X3954Y5124D01*
X3944Y5118D01*
X3938Y5108D01*
X3935Y5097D01*
Y5071D01*
X3938Y5060D01*
X3944Y5050D01*
X3954Y5044D01*
X3965Y5041D01*
X3997D01*
X4001Y5042D01*
X4002Y5042D01*
X4005Y5043D01*
X4008Y5044D01*
X4009Y5044D01*
X4011Y5044D01*
X4016Y5047D01*
X4021Y5050D01*
X4026Y5052D01*
X4032Y5054D01*
X4037Y5056D01*
X4040Y5057D01*
X4045Y5056D01*
X4048Y5054D01*
X4049Y5053D01*
X4050Y5052D01*
X4050Y5051D01*
Y5021D01*
X4155D01*
Y5071D01*
X4155Y5071D01*
X4155Y5072D01*
Y5073D01*
X4156Y5075D01*
X4155Y5078D01*
Y5080D01*
X4156Y5081D01*
X4158Y5084D01*
X4161Y5088D01*
X4177Y5107D01*
X4184Y5114D01*
X4185Y5117D01*
Y5021D01*
X4290D01*
Y5121D01*
Y5133D01*
X4291Y5134D01*
X4291Y5135D01*
X4292Y5136D01*
X4295Y5138D01*
X4300Y5139D01*
X4302Y5139D01*
X4308Y5138D01*
X4313Y5136D01*
X4319Y5134D01*
X4324Y5132D01*
X4329Y5129D01*
X4335Y5125D01*
X4337Y5125D01*
X4337Y5125D01*
X4341Y5124D01*
X4343Y5123D01*
X4344Y5123D01*
X4349Y5123D01*
X4380D01*
X4392Y5125D01*
X4401Y5131D01*
X4408Y5141D01*
X4410Y5152D01*
Y5178D01*
X4408Y5189D01*
X4401Y5199D01*
X4392Y5205D01*
X4380Y5208D01*
X4349D01*
X4344Y5207D01*
X4343Y5207D01*
X4341Y5206D01*
X4337Y5205D01*
X4337Y5205D01*
X4335Y5205D01*
X4330Y5202D01*
X4325Y5199D01*
X4320Y5197D01*
X4315Y5195D01*
X4309Y5193D01*
X4303Y5192D01*
X4300Y5193D01*
X4295Y5194D01*
X4292Y5196D01*
X4291Y5196D01*
X4291Y5198D01*
X4290Y5199D01*
Y5221D01*
X4242D01*
X4241Y5222D01*
X4240Y5222D01*
X4240Y5222D01*
X4239Y5224D01*
X4237Y5227D01*
X4236Y5232D01*
X4235Y5238D01*
X4233Y5256D01*
X4233Y5266D01*
X4232Y5268D01*
Y5443D01*
X4233Y5445D01*
X4233Y5505D01*
X4233Y5505D01*
X4233Y5505D01*
X4232Y5507D01*
Y5543D01*
X4232Y5543D01*
Y5600D01*
X4122D01*
Y5620D01*
Y5660D01*
Y5667D01*
X4267D01*
Y5600D01*
D02*
G37*
G36*
X4172Y5125D02*
X4165Y5118D01*
X4148Y5098D01*
X4144Y5093D01*
X4141Y5089D01*
X4139Y5085D01*
X4139Y5081D01*
X4139Y5079D01*
X4140Y5076D01*
X4115Y5106D01*
X4117Y5105D01*
X4119Y5104D01*
X4122Y5105D01*
X4126Y5107D01*
X4130Y5109D01*
X4135Y5113D01*
X4141Y5117D01*
X4154Y5129D01*
X4162Y5136D01*
X4172Y5125D01*
D02*
G37*
G36*
X4008Y5106D02*
X4014Y5103D01*
X4020Y5100D01*
X4026Y5098D01*
X4033Y5096D01*
X4040Y5094D01*
X4044Y5094D01*
X4044Y5094D01*
X4050Y5095D01*
X4056Y5097D01*
X4060Y5099D01*
X4063Y5101D01*
X4065Y5103D01*
X4065Y5106D01*
X4065Y5092D01*
X4071Y5091D01*
Y5076D01*
X4065Y5076D01*
X4066Y5054D01*
X4065Y5058D01*
X4063Y5062D01*
X4060Y5065D01*
X4056Y5068D01*
X4050Y5071D01*
X4044Y5073D01*
X4040Y5074D01*
X4040Y5074D01*
X4033Y5072D01*
X4026Y5070D01*
X4020Y5067D01*
X4014Y5065D01*
X4008Y5062D01*
X4002Y5058D01*
Y5110D01*
X4008Y5106D01*
D02*
G37*
G36*
X4492Y5052D02*
X4491Y5052D01*
X4489Y5052D01*
X4487Y5051D01*
X4485Y5050D01*
X4483Y5049D01*
X4480Y5046D01*
X4473Y5040D01*
X4464Y5032D01*
X4453Y5042D01*
X4458Y5047D01*
X4470Y5061D01*
X4472Y5064D01*
X4473Y5066D01*
X4474Y5068D01*
X4474Y5069D01*
X4473Y5070D01*
X4492Y5052D01*
D02*
G37*
G36*
X2857Y5095D02*
X2858Y5076D01*
X2860Y5068D01*
X2861Y5062D01*
X2863Y5056D01*
X2865Y5052D01*
X2868Y5049D01*
X2871Y5047D01*
X2874Y5047D01*
X2825D01*
X2828Y5047D01*
X2831Y5049D01*
X2833Y5052D01*
X2836Y5056D01*
X2838Y5062D01*
X2839Y5068D01*
X2840Y5076D01*
X2841Y5085D01*
X2842Y5107D01*
X2857D01*
X2857Y5095D01*
D02*
G37*
G36*
X5644Y5016D02*
X5645Y5012D01*
X5646Y5007D01*
X5648Y5002D01*
X5651Y4997D01*
X5655Y4991D01*
X5659Y4985D01*
X5670Y4971D01*
X5677Y4964D01*
X5685Y4956D01*
X5589Y4956D01*
X5597Y4964D01*
X5615Y4985D01*
X5619Y4991D01*
X5623Y4997D01*
X5626Y5002D01*
X5628Y5007D01*
X5629Y5012D01*
X5629Y5016D01*
X5644Y5016D01*
D02*
G37*
G36*
X3432Y3521D02*
X3433Y3516D01*
X3435Y3511D01*
X3438Y3506D01*
X3442Y3500D01*
X3446Y3494D01*
X3457Y3480D01*
X3464Y3473D01*
X3472Y3465D01*
X3376D01*
X3384Y3473D01*
X3402Y3494D01*
X3406Y3500D01*
X3410Y3506D01*
X3413Y3511D01*
X3415Y3516D01*
X3416Y3521D01*
X3416Y3525D01*
X3431D01*
X3432Y3521D01*
D02*
G37*
G36*
X5659Y3379D02*
X5660Y3374D01*
X5662Y3369D01*
X5665Y3364D01*
X5669Y3358D01*
X5673Y3352D01*
X5685Y3338D01*
X5691Y3331D01*
X5699Y3323D01*
X5603D01*
X5611Y3331D01*
X5629Y3352D01*
X5634Y3358D01*
X5637Y3364D01*
X5640Y3369D01*
X5642Y3374D01*
X5643Y3379D01*
X5644Y3383D01*
X5659D01*
X5659Y3379D01*
D02*
G37*
G36*
X5660Y2873D02*
X5661Y2869D01*
X5663Y2864D01*
X5666Y2858D01*
X5670Y2852D01*
X5674Y2846D01*
X5686Y2833D01*
X5692Y2825D01*
X5700Y2817D01*
X5604D01*
X5612Y2825D01*
X5630Y2846D01*
X5635Y2852D01*
X5638Y2858D01*
X5641Y2864D01*
X5643Y2869D01*
X5644Y2873D01*
X5645Y2878D01*
X5660D01*
X5660Y2873D01*
D02*
G37*
G36*
X5660Y2349D02*
X5660Y2345D01*
X5661Y2340D01*
X5663Y2335D01*
X5666Y2330D01*
X5670Y2324D01*
X5674Y2318D01*
X5685Y2304D01*
X5692Y2296D01*
X5700Y2288D01*
X5604Y2290D01*
X5612Y2297D01*
X5630Y2318D01*
X5634Y2324D01*
X5638Y2330D01*
X5641Y2335D01*
X5643Y2340D01*
X5644Y2345D01*
X5645Y2349D01*
X5660Y2349D01*
D02*
G37*
G36*
X1663Y2187D02*
X1655Y2179D01*
X1644Y2166D01*
X1639Y2159D01*
X1636Y2154D01*
X1634Y2149D01*
X1633Y2144D01*
X1633Y2140D01*
X1634Y2137D01*
X1636Y2134D01*
X1599Y2172D01*
X1602Y2169D01*
X1605Y2168D01*
X1609Y2168D01*
X1614Y2169D01*
X1619Y2171D01*
X1624Y2174D01*
X1630Y2179D01*
X1637Y2184D01*
X1644Y2190D01*
X1652Y2198D01*
X1663Y2187D01*
D02*
G37*
G36*
X1594Y2092D02*
X1592Y2093D01*
X1590Y2093D01*
X1587Y2092D01*
X1583Y2090D01*
X1578Y2087D01*
X1573Y2083D01*
X1560Y2072D01*
X1544Y2057D01*
X1534Y2068D01*
X1542Y2076D01*
X1554Y2091D01*
X1558Y2097D01*
X1562Y2103D01*
X1564Y2109D01*
X1565Y2114D01*
X1564Y2119D01*
X1563Y2123D01*
X1560Y2126D01*
X1594Y2092D01*
D02*
G37*
G36*
X1511Y2069D02*
X1513Y2068D01*
X1514Y2067D01*
X1516Y2065D01*
X1518Y2065D01*
X1520Y2064D01*
X1523Y2063D01*
X1525Y2063D01*
X1528Y2062D01*
X1532Y2062D01*
Y2047D01*
X1529Y2047D01*
X1527Y2047D01*
X1525Y2046D01*
X1524Y2046D01*
X1522Y2045D01*
X1521Y2044D01*
X1520Y2043D01*
X1520Y2041D01*
X1519Y2039D01*
X1519Y2038D01*
X1510Y2071D01*
X1511Y2069D01*
D02*
G37*
G36*
X1855Y2015D02*
X1847Y2006D01*
X1830Y1986D01*
X1826Y1980D01*
X1823Y1975D01*
X1822Y1970D01*
X1821Y1967D01*
X1822Y1963D01*
X1824Y1961D01*
X1786Y1999D01*
X1790Y1996D01*
X1794Y1995D01*
X1798Y1994D01*
X1803Y1995D01*
X1809Y1997D01*
X1815Y2001D01*
X1821Y2005D01*
X1829Y2011D01*
X1836Y2017D01*
X1844Y2025D01*
X1855Y2015D01*
D02*
G37*
G36*
X1715Y1927D02*
X1712Y1923D01*
X1710Y1919D01*
X1708Y1914D01*
X1706Y1908D01*
X1704Y1902D01*
X1702Y1894D01*
X1700Y1876D01*
X1699Y1855D01*
X1635Y1926D01*
X1645Y1925D01*
X1664Y1926D01*
X1672Y1926D01*
X1680Y1927D01*
X1686Y1929D01*
X1692Y1930D01*
X1697Y1932D01*
X1701Y1935D01*
X1705Y1938D01*
X1715Y1927D01*
D02*
G37*
G36*
X5660Y1832D02*
X5661Y1827D01*
X5663Y1822D01*
X5666Y1817D01*
X5670Y1811D01*
X5674Y1805D01*
X5686Y1791D01*
X5692Y1784D01*
X5700Y1776D01*
X5604D01*
X5612Y1784D01*
X5630Y1805D01*
X5635Y1811D01*
X5638Y1817D01*
X5641Y1822D01*
X5643Y1827D01*
X5644Y1832D01*
X5645Y1836D01*
X5660D01*
X5660Y1832D01*
D02*
G37*
G36*
X5659Y1304D02*
X5660Y1299D01*
X5662Y1294D01*
X5665Y1288D01*
X5669Y1283D01*
X5673Y1276D01*
X5685Y1263D01*
X5691Y1255D01*
X5699Y1248D01*
X5603D01*
X5611Y1255D01*
X5629Y1276D01*
X5634Y1283D01*
X5637Y1288D01*
X5640Y1294D01*
X5642Y1299D01*
X5643Y1304D01*
X5644Y1308D01*
X5659D01*
X5659Y1304D01*
D02*
G37*
G36*
X7443Y6584D02*
X7437Y6577D01*
X7434Y6573D01*
X7432Y6570D01*
X7430Y6566D01*
X7429Y6563D01*
X7428Y6560D01*
X7427Y6557D01*
X7427Y6554D01*
X7412D01*
X7412Y6557D01*
X7411Y6560D01*
X7410Y6563D01*
X7409Y6566D01*
X7407Y6570D01*
X7404Y6573D01*
X7402Y6577D01*
X7399Y6580D01*
X7391Y6588D01*
X7447D01*
X7443Y6584D01*
D02*
G37*
G36*
X6830Y6500D02*
X6829Y6505D01*
X6827Y6508D01*
X6824Y6512D01*
X6820Y6515D01*
X6815Y6517D01*
X6808Y6519D01*
X6800Y6521D01*
X6791Y6522D01*
X6781Y6523D01*
X6770Y6523D01*
Y6538D01*
X6781Y6538D01*
X6800Y6540D01*
X6808Y6541D01*
X6815Y6544D01*
X6820Y6546D01*
X6824Y6549D01*
X6827Y6552D01*
X6829Y6556D01*
X6830Y6560D01*
Y6500D01*
D02*
G37*
G36*
X7574Y7290D02*
X7336Y7051D01*
Y6457D01*
X7287D01*
Y6471D01*
X7164D01*
Y6457D01*
X6985D01*
Y7303D01*
X7273Y7591D01*
X7574Y7290D01*
D02*
G37*
G36*
X7312Y6430D02*
X7312Y6430D01*
X7304Y6430D01*
X7298Y6431D01*
X7292Y6432D01*
X7289Y6433D01*
X7287Y6434D01*
Y6440D01*
X7322D01*
X7312Y6430D01*
D02*
G37*
G36*
X6695Y6486D02*
X6694Y6482D01*
X6694Y6476D01*
X6696Y6470D01*
X6700Y6463D01*
X6705Y6455D01*
X6711Y6447D01*
X6719Y6437D01*
X6740Y6415D01*
X6729Y6405D01*
X6718Y6416D01*
X6698Y6433D01*
X6689Y6440D01*
X6681Y6445D01*
X6674Y6448D01*
X6668Y6450D01*
X6663Y6451D01*
X6658Y6450D01*
X6655Y6447D01*
X6697Y6490D01*
X6695Y6486D01*
D02*
G37*
G36*
X7271Y6427D02*
X7273Y6424D01*
X7275Y6422D01*
X7279Y6420D01*
X7283Y6418D01*
X7289Y6416D01*
X7295Y6415D01*
X7303Y6414D01*
X7311Y6414D01*
X7320Y6413D01*
Y6398D01*
X7311Y6398D01*
X7295Y6397D01*
X7289Y6396D01*
X7283Y6394D01*
X7279Y6392D01*
X7275Y6390D01*
X7273Y6388D01*
X7271Y6385D01*
X7271Y6381D01*
Y6430D01*
X7271Y6427D01*
D02*
G37*
G36*
X7179Y6373D02*
X7178Y6378D01*
X7177Y6381D01*
X7174Y6385D01*
X7169Y6388D01*
X7164Y6390D01*
X7157Y6392D01*
X7150Y6394D01*
X7141Y6395D01*
X7130Y6396D01*
X7119Y6396D01*
Y6411D01*
X7130Y6411D01*
X7150Y6413D01*
X7157Y6414D01*
X7164Y6416D01*
X7169Y6419D01*
X7174Y6422D01*
X7177Y6425D01*
X7178Y6429D01*
X7179Y6433D01*
Y6373D01*
D02*
G37*
G36*
X6831Y6231D02*
X6830Y6238D01*
X6827Y6244D01*
X6822Y6250D01*
X6814Y6255D01*
X6805Y6259D01*
X6794Y6263D01*
X6780Y6265D01*
X6765Y6267D01*
X6747Y6268D01*
X6728Y6269D01*
Y6294D01*
X6747Y6294D01*
X6780Y6298D01*
X6794Y6300D01*
X6805Y6304D01*
X6814Y6308D01*
X6822Y6313D01*
X6827Y6318D01*
X6830Y6325D01*
X6831Y6332D01*
Y6231D01*
D02*
G37*
G36*
X6979Y6223D02*
X6976Y6217D01*
X6972Y6210D01*
X6970Y6203D01*
X6967Y6196D01*
X6965Y6189D01*
X6964Y6182D01*
X6963Y6175D01*
X6962Y6168D01*
X6962Y6160D01*
X6947D01*
X6947Y6168D01*
X6946Y6175D01*
X6945Y6182D01*
X6944Y6189D01*
X6942Y6196D01*
X6939Y6203D01*
X6937Y6210D01*
X6933Y6217D01*
X6930Y6223D01*
X6926Y6230D01*
X6983D01*
X6979Y6223D01*
D02*
G37*
G36*
X6962Y6088D02*
X6965Y6049D01*
X6966Y6045D01*
X6967Y6042D01*
X6968Y6040D01*
X6969Y6039D01*
X6940D01*
X6941Y6040D01*
X6942Y6042D01*
X6943Y6045D01*
X6944Y6049D01*
X6945Y6054D01*
X6946Y6069D01*
X6947Y6099D01*
X6962D01*
X6962Y6088D01*
D02*
G37*
G36*
X6967Y5945D02*
X6966Y5944D01*
X6964Y5943D01*
X6963Y5941D01*
X6962Y5938D01*
X6962Y5934D01*
X6961Y5930D01*
X6961Y5925D01*
X6960Y5914D01*
X6945D01*
X6945Y5920D01*
X6944Y5938D01*
X6943Y5941D01*
X6943Y5943D01*
X6942Y5944D01*
X6941Y5945D01*
X6940Y5946D01*
X6969D01*
X6967Y5945D01*
D02*
G37*
G36*
X6832Y5929D02*
X6832Y5926D01*
X6832Y5924D01*
X6833Y5922D01*
X6834Y5920D01*
X6835Y5918D01*
X6836Y5917D01*
X6837Y5916D01*
X6838Y5914D01*
X6840Y5913D01*
X6808Y5915D01*
X6810Y5916D01*
X6811Y5917D01*
X6812Y5918D01*
X6814Y5919D01*
X6814Y5921D01*
X6815Y5922D01*
X6816Y5924D01*
X6816Y5926D01*
X6817Y5929D01*
X6817Y5931D01*
X6832D01*
X6832Y5929D01*
D02*
G37*
G36*
X6855Y5928D02*
X6862Y5927D01*
X6922D01*
X6928Y5928D01*
X6929Y5922D01*
X6901Y5894D01*
X6890D01*
X6889Y5895D01*
X6888Y5895D01*
X6888Y5895D01*
X6886Y5895D01*
X6884Y5895D01*
X6883Y5896D01*
X6882Y5897D01*
X6880Y5898D01*
X6878Y5899D01*
X6876Y5901D01*
X6873Y5904D01*
X6871Y5907D01*
X6868Y5911D01*
X6866Y5912D01*
X6862Y5917D01*
X6852Y5924D01*
X6852Y5924D01*
X6850Y5925D01*
X6854Y5929D01*
X6855Y5928D01*
D02*
G37*
G36*
X7046Y5935D02*
X7037Y5908D01*
X7035Y5899D01*
X7031Y5881D01*
X7031Y5873D01*
X7030Y5856D01*
X7004D01*
X7004Y5864D01*
X7003Y5881D01*
X7001Y5890D01*
X6997Y5908D01*
X6995Y5917D01*
X6988Y5935D01*
X6985Y5945D01*
X7049D01*
X7046Y5935D01*
D02*
G37*
G36*
X6752Y5903D02*
X6754Y5899D01*
X6757Y5896D01*
X6761Y5893D01*
X6767Y5891D01*
X6773Y5889D01*
X6775Y5890D01*
X6779Y5892D01*
X6782Y5895D01*
X6786Y5898D01*
X6794Y5906D01*
Y5886D01*
X6800Y5885D01*
X6812Y5885D01*
Y5870D01*
X6800Y5870D01*
X6794Y5869D01*
Y5850D01*
X6790Y5853D01*
X6782Y5860D01*
X6779Y5863D01*
X6775Y5865D01*
X6773Y5866D01*
X6767Y5864D01*
X6761Y5862D01*
X6757Y5859D01*
X6754Y5856D01*
X6752Y5852D01*
X6752Y5848D01*
Y5908D01*
X6752Y5903D01*
D02*
G37*
G36*
X6858Y5897D02*
X6861Y5893D01*
X6864Y5890D01*
X6868Y5887D01*
X6871Y5884D01*
X6874Y5882D01*
X6877Y5881D01*
X6880Y5880D01*
X6883Y5879D01*
X6886Y5879D01*
X6884Y5864D01*
X6881Y5864D01*
X6878Y5863D01*
X6875Y5862D01*
X6872Y5861D01*
X6868Y5859D01*
X6864Y5857D01*
X6856Y5852D01*
X6846Y5845D01*
X6855Y5901D01*
X6858Y5897D01*
D02*
G37*
G36*
X6874Y5776D02*
X6877Y5773D01*
X6881Y5771D01*
X6884Y5769D01*
X6887Y5767D01*
X6891Y5766D01*
X6894Y5765D01*
X6897Y5764D01*
X6901Y5763D01*
X6905Y5763D01*
Y5738D01*
X6901Y5738D01*
X6897Y5737D01*
X6894Y5736D01*
X6891Y5735D01*
X6887Y5734D01*
X6884Y5732D01*
X6881Y5730D01*
X6877Y5728D01*
X6874Y5725D01*
X6871Y5723D01*
Y5779D01*
X6874Y5776D01*
D02*
G37*
G36*
X7328Y5073D02*
X6950D01*
Y5194D01*
X6959Y5210D01*
X6965Y5232D01*
Y5254D01*
X6959Y5275D01*
X6950Y5291D01*
Y5749D01*
X7037Y5836D01*
X7037Y5836D01*
X7043Y5845D01*
X7045Y5852D01*
X7046Y5855D01*
X7047Y5871D01*
X7048Y5879D01*
X7051Y5896D01*
X7052Y5903D01*
X7061Y5930D01*
X7064Y5939D01*
X7064Y5942D01*
X7066Y5945D01*
X7065Y5947D01*
Y5960D01*
X7064Y5967D01*
X7060Y5972D01*
X7064Y5978D01*
X7065Y5985D01*
Y6000D01*
X7064Y6007D01*
X7060Y6013D01*
X7054Y6016D01*
X7047Y6018D01*
X6987D01*
X6985Y6020D01*
Y6037D01*
X6985Y6039D01*
X6985Y6041D01*
Y6054D01*
X6981D01*
X6978Y6088D01*
X6978Y6099D01*
X6977Y6101D01*
Y6158D01*
X6978Y6160D01*
X6978Y6167D01*
X6979Y6173D01*
X6980Y6179D01*
X6981Y6186D01*
X6983Y6192D01*
X6985Y6198D01*
X6987Y6203D01*
X6990Y6209D01*
X6993Y6215D01*
X6997Y6221D01*
X6997Y6223D01*
X6998Y6224D01*
X6998Y6227D01*
X7000Y6230D01*
X6999Y6231D01*
X7000Y6235D01*
Y6327D01*
X7004Y6332D01*
X7328D01*
Y5073D01*
D02*
G37*
G36*
X7520Y1317D02*
X7520Y1312D01*
X7521Y1306D01*
X7524Y1299D01*
X7529Y1291D01*
X7536Y1282D01*
X7544Y1271D01*
X7566Y1247D01*
X7579Y1233D01*
X7561Y1215D01*
X7547Y1229D01*
X7498Y1273D01*
X7492Y1276D01*
X7487Y1279D01*
X7483Y1279D01*
X7481Y1278D01*
X7523Y1320D01*
X7520Y1317D01*
D02*
G37*
G36*
X7242Y1320D02*
X7246Y1270D01*
X7248Y1257D01*
X7251Y1245D01*
X7255Y1234D01*
X7259Y1225D01*
X7264Y1217D01*
X7269Y1211D01*
X7189Y1207D01*
X7194Y1213D01*
X7199Y1221D01*
X7203Y1230D01*
X7206Y1240D01*
X7209Y1253D01*
X7212Y1266D01*
X7214Y1281D01*
X7216Y1316D01*
X7216Y1336D01*
X7242Y1340D01*
X7242Y1320D01*
D02*
G37*
G36*
X7573Y1137D02*
X7573Y1134D01*
X7574Y1130D01*
X7574Y1127D01*
X7575Y1125D01*
X7575Y1122D01*
X7576Y1120D01*
X7578Y1117D01*
X7579Y1115D01*
X7581Y1113D01*
X7569Y1104D01*
X7568Y1105D01*
X7566Y1107D01*
X7563Y1108D01*
X7561Y1109D01*
X7558Y1110D01*
X7555Y1111D01*
X7552Y1112D01*
X7549Y1113D01*
X7541Y1114D01*
X7574Y1141D01*
X7573Y1137D01*
D02*
G37*
G36*
X7468Y1269D02*
X7469Y1267D01*
X7471Y1266D01*
X7481Y1257D01*
X7485Y1261D01*
X7488Y1259D01*
X7536Y1217D01*
X7550Y1204D01*
X7551Y1203D01*
X7671Y1083D01*
X7672Y1082D01*
X7685Y1068D01*
X7706Y1045D01*
X7714Y1035D01*
X7715Y1034D01*
X7703Y1022D01*
X7689Y1035D01*
X7688Y1038D01*
X7688Y1041D01*
X7686Y1043D01*
X7685Y1046D01*
X7681Y1047D01*
X7679Y1050D01*
X7676Y1049D01*
X7675Y1050D01*
X7656Y1069D01*
X7652Y1066D01*
X7643Y1074D01*
X7636Y1081D01*
X7634Y1082D01*
X7594Y1122D01*
X7593Y1124D01*
X7593Y1124D01*
X7593Y1124D01*
X7592Y1125D01*
X7591Y1126D01*
X7591Y1127D01*
X7591Y1128D01*
X7590Y1129D01*
X7590Y1130D01*
X7590Y1132D01*
X7590Y1134D01*
X7590Y1136D01*
X7590Y1139D01*
X7589Y1141D01*
X7590Y1144D01*
X7586Y1161D01*
X7576Y1176D01*
X7561Y1186D01*
X7544Y1189D01*
X7526Y1186D01*
X7511Y1176D01*
X7501Y1161D01*
X7498Y1144D01*
X7501Y1126D01*
X7509Y1115D01*
X7443Y1181D01*
Y1295D01*
X7468Y1269D01*
D02*
G37*
G36*
X7526Y1101D02*
X7537Y1099D01*
X7539Y1097D01*
X7546Y1097D01*
X7549Y1096D01*
X7551Y1096D01*
X7553Y1095D01*
X7554Y1094D01*
X7556Y1094D01*
X7557Y1093D01*
X7557Y1093D01*
X7558Y1092D01*
X7560Y1091D01*
X7601Y1050D01*
X7602Y1048D01*
X7610Y1040D01*
X7618Y1031D01*
X7607Y1021D01*
X7607Y1021D01*
X7605Y1019D01*
X7515Y1109D01*
X7526Y1101D01*
D02*
G37*
G36*
X7715Y1097D02*
X7750Y1067D01*
X7759Y1061D01*
X7767Y1056D01*
X7774Y1053D01*
X7779Y1051D01*
X7784Y1051D01*
X7787Y1053D01*
X7741Y1007D01*
X7743Y1010D01*
X7743Y1015D01*
X7742Y1021D01*
X7739Y1028D01*
X7734Y1036D01*
X7727Y1045D01*
X7719Y1055D01*
X7697Y1079D01*
X7683Y1093D01*
X7701Y1111D01*
X7715Y1097D01*
D02*
G37*
G36*
X7632Y1062D02*
X7658Y1040D01*
X7662Y1037D01*
X7666Y1035D01*
X7669Y1033D01*
X7672Y1033D01*
X7673Y1034D01*
X7646Y1006D01*
X7647Y1009D01*
X7648Y1012D01*
X7647Y1016D01*
X7646Y1020D01*
X7643Y1025D01*
X7639Y1030D01*
X7634Y1037D01*
X7622Y1051D01*
X7614Y1059D01*
X7624Y1070D01*
X7632Y1062D01*
D02*
G37*
%LPC*%
G36*
X7298Y7453D02*
X7192Y7347D01*
X7263Y7276D01*
X7263Y7276D01*
X7333Y7206D01*
X7439Y7312D01*
X7369Y7382D01*
X7298Y7453D01*
D02*
G37*
G36*
X7140Y5336D02*
X7023D01*
X7082Y5278D01*
X7140Y5336D01*
D02*
G37*
G36*
X7175Y5301D02*
X7117Y5243D01*
X7175Y5185D01*
Y5301D01*
D02*
G37*
G36*
X6988Y5301D02*
Y5185D01*
X7046Y5243D01*
X6988Y5301D01*
D02*
G37*
G36*
X7082Y5207D02*
X7023Y5149D01*
X7140D01*
X7082Y5207D01*
D02*
G37*
%LPD*%
G36*
X4987Y6528D02*
X4986Y6532D01*
X4984Y6536D01*
X4981Y6539D01*
X4977Y6542D01*
X4972Y6544D01*
X4965Y6546D01*
X4957Y6548D01*
X4948Y6549D01*
X4938Y6549D01*
X4927Y6550D01*
Y6565D01*
X4938Y6565D01*
X4957Y6567D01*
X4965Y6568D01*
X4972Y6570D01*
X4977Y6572D01*
X4981Y6575D01*
X4984Y6578D01*
X4986Y6582D01*
X4987Y6586D01*
Y6528D01*
D02*
G37*
G36*
X4804Y6580D02*
X4806Y6577D01*
X4809Y6574D01*
X4813Y6571D01*
X4819Y6569D01*
X4825Y6568D01*
X4833Y6566D01*
X4842Y6565D01*
X4864Y6565D01*
Y6550D01*
X4852Y6549D01*
X4833Y6548D01*
X4825Y6546D01*
X4819Y6544D01*
X4813Y6542D01*
X4809Y6539D01*
X4806Y6535D01*
X4804Y6531D01*
X4804Y6527D01*
Y6584D01*
X4804Y6580D01*
D02*
G37*
G36*
X8089Y6510D02*
X8089Y6515D01*
X8087Y6519D01*
X8084Y6522D01*
X8080Y6525D01*
X8074Y6527D01*
X8068Y6529D01*
X8060Y6531D01*
X8051Y6532D01*
X8041Y6533D01*
X8029Y6533D01*
Y6548D01*
X8041Y6548D01*
X8080Y6550D01*
X8084Y6551D01*
X8087Y6552D01*
X8089Y6553D01*
X8089Y6554D01*
X8089Y6510D01*
D02*
G37*
G36*
X7943Y6584D02*
X7966Y6564D01*
X7973Y6559D01*
X7979Y6555D01*
X7985Y6552D01*
X7991Y6550D01*
X7996Y6548D01*
X8000Y6548D01*
Y6533D01*
X7996Y6532D01*
X7991Y6531D01*
X7985Y6529D01*
X7979Y6526D01*
X7973Y6522D01*
X7966Y6517D01*
X7951Y6504D01*
X7943Y6496D01*
X7934Y6488D01*
Y6593D01*
X7943Y6584D01*
D02*
G37*
G36*
X4393Y6457D02*
X4393Y6453D01*
X4413Y6452D01*
X4410Y6449D01*
X4403Y6441D01*
X4400Y6438D01*
X4398Y6434D01*
X4396Y6432D01*
X4398Y6428D01*
X4400Y6421D01*
X4402Y6414D01*
X4405Y6408D01*
X4409Y6402D01*
X4412Y6396D01*
X4355Y6396D01*
X4360Y6397D01*
X4363Y6399D01*
X4367Y6402D01*
X4370Y6407D01*
X4372Y6413D01*
X4374Y6421D01*
X4375Y6429D01*
X4374Y6432D01*
X4373Y6435D01*
X4370Y6439D01*
X4368Y6442D01*
X4361Y6450D01*
X4358Y6455D01*
X4377Y6454D01*
X4378Y6464D01*
X4393D01*
X4393Y6457D01*
D02*
G37*
G36*
X8080Y6256D02*
X8079Y6261D01*
X8077Y6265D01*
X8074Y6268D01*
X8070Y6271D01*
X8065Y6273D01*
X8058Y6275D01*
X8050Y6277D01*
X8041Y6278D01*
X8031Y6279D01*
X8020Y6279D01*
Y6294D01*
X8031Y6294D01*
X8070Y6296D01*
X8074Y6297D01*
X8077Y6298D01*
X8079Y6299D01*
X8080Y6300D01*
Y6256D01*
D02*
G37*
G36*
X7943Y6330D02*
X7966Y6310D01*
X7973Y6305D01*
X7979Y6301D01*
X7985Y6298D01*
X7991Y6296D01*
X7996Y6294D01*
X8000Y6294D01*
Y6279D01*
X7996Y6278D01*
X7991Y6277D01*
X7985Y6275D01*
X7979Y6272D01*
X7973Y6268D01*
X7966Y6263D01*
X7951Y6250D01*
X7943Y6242D01*
X7934Y6234D01*
Y6339D01*
X7943Y6330D01*
D02*
G37*
G36*
X4210Y6267D02*
X4206Y6260D01*
X4203Y6254D01*
X4200Y6247D01*
X4200Y6246D01*
X4203Y6243D01*
X4206Y6239D01*
X4213Y6231D01*
X4196D01*
X4195Y6226D01*
X4193Y6219D01*
X4193Y6212D01*
X4193Y6204D01*
X4178D01*
X4177Y6212D01*
X4177Y6219D01*
X4176Y6226D01*
X4175Y6231D01*
X4157D01*
X4161Y6235D01*
X4168Y6243D01*
X4170Y6246D01*
X4170Y6247D01*
X4167Y6254D01*
X4164Y6260D01*
X4160Y6267D01*
X4156Y6273D01*
X4214D01*
X4210Y6267D01*
D02*
G37*
G36*
X2733Y4922D02*
X2416D01*
Y5956D01*
X2733D01*
Y4922D01*
D02*
G37*
D14*
X7290Y1139D02*
Y1148D01*
Y1139D02*
X7547Y882D01*
X7560Y869D02*
X7565D01*
X7414Y1169D02*
X7624Y960D01*
X7414Y1169D02*
Y1351D01*
X7422Y1359D02*
Y1379D01*
X7414Y1351D02*
X7422Y1359D01*
X6645Y6703D02*
X7116D01*
X7225Y6594D01*
X6528Y6586D02*
X6645Y6703D01*
X6912Y5751D02*
X7017Y5856D01*
Y5952D01*
X6843Y5751D02*
X6912D01*
X6528Y6338D02*
Y6586D01*
X6358Y6168D02*
X6528Y6338D01*
X6358Y2377D02*
Y6168D01*
Y2377D02*
X7229Y1506D01*
Y1209D02*
Y1506D01*
X6398Y2403D02*
Y6149D01*
Y2403D02*
X7422Y1379D01*
X7483Y1312D02*
X7786Y1008D01*
X7483Y1312D02*
Y1318D01*
X6530Y6281D02*
X6860D01*
X6398Y6149D02*
X6530Y6281D01*
X5725Y128D02*
X5727Y126D01*
X3756Y3782D02*
Y4782D01*
Y3782D02*
X4756D01*
Y4782D01*
X3756D02*
X4756D01*
X1401Y324D02*
X1598Y126D01*
X3577D01*
Y1926D01*
X4977D01*
X4977Y126D02*
X4977Y1926D01*
X4977Y126D02*
X6952D01*
X8457Y1632D01*
Y3607D01*
X6657D02*
X8457D01*
X6657D02*
Y5007D01*
X8463D01*
Y6982D01*
X6957Y8487D02*
X8463Y6982D01*
X6957Y8488D02*
X6957Y8487D01*
X4982Y8488D02*
X6957D01*
X4982Y6686D02*
Y8488D01*
X3582Y6686D02*
X4982D01*
X3582D02*
Y8488D01*
X1607D02*
X3582D01*
X101Y6983D02*
X1607Y8488D01*
X101Y5008D02*
Y6983D01*
Y5008D02*
X1906D01*
Y3608D02*
Y5008D01*
X106Y3608D02*
X1906D01*
X106Y1633D02*
Y3608D01*
Y1633D02*
X312Y1427D01*
X460Y1576D01*
X1556Y480D01*
X1401Y324D02*
X1556Y480D01*
D15*
X3607Y3820D02*
Y5300D01*
X1596Y2132D02*
X1657Y2192D01*
X1979D01*
X3607Y3820D01*
X1596Y2120D02*
Y2132D01*
X1532Y2055D02*
X1596Y2120D01*
X1427Y2011D02*
X1470Y2055D01*
X1532D01*
X1630Y1858D02*
X1635D01*
X1737Y1959D01*
X1782Y1957D02*
X1784Y1959D01*
X1737D02*
X1752D01*
X1754Y1957D02*
X1782D01*
X1752Y1959D02*
X1754Y1957D01*
X1606Y1832D02*
X1630Y1855D01*
X4407Y5924D02*
Y5945D01*
Y5924D02*
X4409Y5921D01*
X4431Y5921D02*
X4910D01*
X4409Y5921D02*
X4431D01*
X4431Y5921D01*
X4910D02*
X4986Y5997D01*
X5425D01*
X4287Y5945D02*
Y6308D01*
X4284Y6311D02*
X4287Y6308D01*
X4167Y5945D02*
Y6035D01*
X4081Y6121D02*
X4167Y6035D01*
X3332Y6264D02*
X3510Y6086D01*
X3247Y6264D02*
X3332D01*
X4127Y5945D02*
Y6015D01*
X4056Y6086D02*
X4127Y6015D01*
X4067Y5885D02*
Y6012D01*
X3496Y6051D02*
X4027D01*
X4067Y6012D01*
X3510Y6086D02*
X4056D01*
X3528Y6121D02*
X4081D01*
X3675Y5278D02*
X3942Y5545D01*
X4127D01*
X6824Y5931D02*
X6845Y5952D01*
X6822Y5878D02*
X6824Y5879D01*
Y5931D01*
X6845Y5952D02*
X6892D01*
X6716Y5878D02*
X6822D01*
X6829Y5871D02*
X6910D01*
X6953Y5914D02*
Y5991D01*
X6910Y5871D02*
X6953Y5914D01*
X6706Y5867D02*
X6716Y5878D01*
X6822D02*
X6829Y5871D01*
X4385Y6380D02*
X4387Y6379D01*
X1596Y1811D02*
X1641D01*
X5497Y3548D02*
Y5550D01*
X5651Y3274D02*
Y3394D01*
X5497Y3548D02*
X5651Y3394D01*
Y1199D02*
Y1460D01*
X5370Y1741D02*
X5651Y1460D01*
X5652Y1727D02*
Y1948D01*
X5407Y2193D02*
X5652Y1948D01*
X5437Y2715D02*
X5652Y2499D01*
Y2240D02*
Y2499D01*
X5437Y2715D02*
Y5425D01*
X5652Y2769D02*
Y2981D01*
X5467Y3167D02*
X5652Y2981D01*
X5666Y3330D02*
X5681Y3315D01*
X5686D01*
X5467Y3167D02*
Y5537D01*
X5407Y2193D02*
Y5388D01*
X5370Y1741D02*
Y5382D01*
X3607Y5300D02*
X3951Y5645D01*
X4067D01*
X3959Y5604D02*
X4066D01*
X3642Y5288D02*
X3959Y5604D01*
X1789Y1959D02*
X3642Y3812D01*
Y5288D01*
X3424Y3416D02*
Y3551D01*
X3675Y3802D01*
Y5278D01*
X5398Y5605D02*
X5467Y5537D01*
X4467Y5605D02*
X5398D01*
X4468Y5646D02*
X5401D01*
X5497Y5550D01*
X4407Y5545D02*
X5317D01*
X5437Y5425D01*
X4367Y5493D02*
X4402Y5458D01*
X5337D01*
X5407Y5388D01*
X4287Y5476D02*
X4503Y5260D01*
X4287Y5476D02*
Y5545D01*
X4503Y5164D02*
Y5260D01*
X5324Y5428D02*
X5370Y5382D01*
X4381Y5428D02*
X5324D01*
X4327Y5483D02*
Y5545D01*
Y5483D02*
X4381Y5428D01*
X4367Y5545D02*
X4367Y5545D01*
Y5493D02*
Y5545D01*
X4408Y5037D02*
X4459D01*
X4500Y5078D02*
X4503D01*
X4459Y5037D02*
X4500Y5078D01*
X5542Y6716D02*
Y7558D01*
X5893Y7910D01*
X5489Y6662D02*
X5542Y6716D01*
X4869Y6311D02*
X5397D01*
X5489Y6403D01*
X5015Y5893D02*
X5451D01*
X5637Y4877D02*
Y5189D01*
X5532Y5293D02*
X5637Y5189D01*
X5532Y5293D02*
Y5763D01*
X5637Y5387D02*
Y5707D01*
X5451Y5893D02*
X5637Y5707D01*
X5443Y5852D02*
X5532Y5763D01*
X5604Y5890D02*
X5637D01*
X5568Y5926D02*
X5604Y5890D01*
X5425Y5997D02*
X5519Y6091D01*
X5446Y5964D02*
X5637Y6155D01*
Y6396D01*
X5519Y6091D02*
Y6647D01*
X5637Y6396D02*
X5637Y6396D01*
X5489Y6403D02*
Y6662D01*
X5519Y6647D02*
X5637Y6765D01*
Y6905D01*
X4675Y6315D02*
X4679Y6311D01*
X4635Y6315D02*
X4675D01*
X4561Y6389D02*
X4635Y6315D01*
X4510Y6389D02*
X4561D01*
X4367Y5945D02*
Y6089D01*
X4510Y6233D02*
Y6305D01*
X4367Y6089D02*
X4510Y6233D01*
X4185Y6203D02*
Y6291D01*
X4385Y6481D02*
X4387Y6482D01*
X4385Y6380D02*
Y6481D01*
X4384Y6377D02*
X4385D01*
X4387Y6379D01*
X7544Y1140D02*
X7688Y996D01*
Y992D02*
Y996D01*
X7544Y1140D02*
Y1144D01*
X7223Y6403D02*
X7225Y6406D01*
X6671Y6474D02*
X6741Y6403D01*
X6668Y6474D02*
X6671D01*
X6741Y6403D02*
X7223D01*
X6955Y6281D02*
X6955Y6281D01*
Y5992D02*
X6955Y5992D01*
X6955Y5992D02*
Y6281D01*
X2842Y5650D02*
X2976D01*
X3038Y5588D01*
X2842Y5650D02*
X2869Y5677D01*
X2849Y5022D02*
Y5468D01*
X2842Y5650D02*
X2849Y5642D01*
Y5468D02*
Y5642D01*
X2869Y5677D02*
Y5849D01*
X3581Y5762D02*
X3585Y5765D01*
X3404Y5762D02*
X3581D01*
X3401Y5758D02*
X3404Y5762D01*
X3378Y6170D02*
X3496Y6051D01*
X7881Y6286D02*
X8097D01*
X8109Y6274D01*
X8106Y6540D02*
X8119Y6528D01*
X7881Y6540D02*
X8106D01*
X7419Y6505D02*
Y6617D01*
X7320Y6406D02*
X7419Y6505D01*
X7225Y6406D02*
X7320D01*
X4973Y5725D02*
X5042Y5794D01*
X4467Y5725D02*
X4973D01*
X5037Y5715D02*
X5050D01*
X5007Y5685D02*
X5037Y5715D01*
X4467Y5685D02*
X5007D01*
X6671Y6560D02*
X6700Y6530D01*
X6668Y6560D02*
X6671D01*
X6700Y6530D02*
X6860D01*
X6953Y5991D02*
X6955Y5992D01*
X4774Y6535D02*
X4796Y6557D01*
X4774Y6531D02*
Y6535D01*
X4796Y6557D02*
X5016D01*
X2325Y6170D02*
X3378D01*
X2229Y6266D02*
X2325Y6170D01*
X2229Y6266D02*
Y6266D01*
X3287Y6363D02*
X3528Y6121D01*
X2836Y6363D02*
X3287D01*
X2736Y6263D02*
X2836Y6363D01*
X2869Y5849D02*
X2873Y5845D01*
X4067D01*
X3655Y5765D02*
X4067D01*
X5024Y5852D02*
X5442D01*
X4937Y5765D02*
X5024Y5852D01*
X4927Y5805D02*
X5015Y5893D01*
X4467Y5765D02*
X4937D01*
X4467Y5805D02*
X4927D01*
X4467Y5885D02*
X4920D01*
X4999Y5964D02*
X5446D01*
X4920Y5885D02*
X4999Y5964D01*
X5004Y5926D02*
X5614D01*
X4923Y5845D02*
X5004Y5926D01*
X4467Y5845D02*
X4923D01*
X4467Y5645D02*
X4468Y5646D01*
X3981Y5084D02*
X4090D01*
X4102Y5071D01*
X4238Y5171D02*
X4244Y5166D01*
X4209Y5199D02*
X4237Y5171D01*
X4244Y5166D02*
X4364D01*
X4209Y5199D02*
Y5543D01*
X4237Y5171D02*
X4237D01*
X4207Y5545D02*
X4209Y5543D01*
X4167Y5131D02*
Y5545D01*
X4102Y5071D02*
X4130Y5099D01*
X4135D01*
X4167Y5131D01*
D18*
X7225Y6264D02*
D03*
Y6406D02*
D03*
X6706Y5867D02*
D03*
Y6009D02*
D03*
D19*
X6668Y6560D02*
D03*
Y6474D02*
D03*
X8109Y6274D02*
D03*
Y6188D02*
D03*
X8119Y6528D02*
D03*
Y6614D02*
D03*
D20*
X7017Y6032D02*
D03*
Y5992D02*
D03*
Y5952D02*
D03*
X6892D02*
D03*
Y5992D02*
D03*
Y6032D02*
D03*
D21*
X6860Y6281D02*
D03*
X6955D02*
D03*
X7050D02*
D03*
Y6530D02*
D03*
X6860D02*
D03*
D22*
X7280Y7365D02*
D03*
X7351Y7294D02*
D03*
D23*
X7208Y7437D02*
D03*
X7423Y7222D02*
D03*
D24*
X7121Y7524D02*
D03*
X7510Y7135D02*
D03*
D25*
X2842Y5650D02*
D03*
X2663D02*
D03*
D26*
X3655Y5765D02*
D03*
X3585D02*
D03*
D27*
X2783Y5849D02*
D03*
X2869D02*
D03*
D28*
X4774Y6531D02*
D03*
X4869Y6311D02*
D03*
X4679D02*
D03*
D29*
X5016Y6557D02*
D03*
Y6473D02*
D03*
X4510Y6305D02*
D03*
Y6389D02*
D03*
D30*
X4102Y5071D02*
D03*
X4237D02*
D03*
Y5171D02*
D03*
X4102D02*
D03*
D31*
X3981Y5170D02*
D03*
Y5084D02*
D03*
X4365Y5079D02*
D03*
Y5165D02*
D03*
X4503Y5078D02*
D03*
Y5164D02*
D03*
X4384Y6377D02*
D03*
Y6291D02*
D03*
X4185Y6377D02*
D03*
Y6291D02*
D03*
D32*
X4267Y5745D02*
D03*
D33*
X4127Y5945D02*
D03*
X4167D02*
D03*
X4207D02*
D03*
X4247D02*
D03*
X4287D02*
D03*
X4327D02*
D03*
X4367D02*
D03*
X4407D02*
D03*
Y5545D02*
D03*
X4367D02*
D03*
X4327D02*
D03*
X4287D02*
D03*
X4247D02*
D03*
X4207D02*
D03*
X4167D02*
D03*
X4127D02*
D03*
D34*
X4067Y5605D02*
D03*
Y5645D02*
D03*
Y5685D02*
D03*
Y5725D02*
D03*
Y5765D02*
D03*
Y5805D02*
D03*
Y5845D02*
D03*
Y5885D02*
D03*
X4467D02*
D03*
Y5725D02*
D03*
Y5685D02*
D03*
Y5645D02*
D03*
Y5605D02*
D03*
Y5765D02*
D03*
Y5805D02*
D03*
Y5845D02*
D03*
D35*
X7483Y736D02*
D03*
X7768Y1021D02*
D03*
D36*
X7499Y834D02*
D03*
X7547Y882D02*
D03*
X7622Y957D02*
D03*
X7670Y1005D02*
D03*
D37*
X1784Y1959D02*
D03*
X1845Y1898D02*
D03*
X1596Y2132D02*
D03*
X1536Y2192D02*
D03*
X7483Y1318D02*
D03*
X7422Y1379D02*
D03*
X7290Y1148D02*
D03*
X7229Y1209D02*
D03*
D38*
X4284Y6311D02*
D03*
Y6381D02*
D03*
D71*
X7285Y7909D02*
D03*
X7896Y7298D02*
D03*
X7016Y7640D02*
D03*
X7627Y7030D02*
D03*
D73*
X2499Y5468D02*
D03*
Y5022D02*
D03*
X2849D02*
D03*
Y5468D02*
D03*
D74*
X6955Y5992D02*
D03*
D75*
X5507Y657D02*
D03*
X3051Y7958D02*
D03*
D76*
X477Y7103D02*
D03*
X1411Y8037D02*
D03*
X1950Y7228D02*
D03*
X1618Y6896D02*
D03*
X1286Y6564D02*
D03*
D77*
X7082Y5243D02*
D03*
X5851Y2240D02*
D03*
Y3274D02*
D03*
X3624Y3416D02*
D03*
X5852Y2769D02*
D03*
X5837Y4907D02*
D03*
X5837Y5387D02*
D03*
X5837Y5890D02*
D03*
X5837Y6396D02*
D03*
Y6905D02*
D03*
X5851Y1199D02*
D03*
X5852Y1727D02*
D03*
D78*
X6882Y5243D02*
D03*
X5651Y2240D02*
D03*
Y3274D02*
D03*
X3424Y3416D02*
D03*
X5652Y2769D02*
D03*
X5637Y4907D02*
D03*
X5637Y5387D02*
D03*
X5637Y5890D02*
D03*
X5637Y6396D02*
D03*
Y6905D02*
D03*
X2736Y6263D02*
D03*
X3247Y6264D02*
D03*
X5651Y1199D02*
D03*
X5652Y1727D02*
D03*
X2229Y6266D02*
D03*
D79*
X1451Y2037D02*
D03*
X1630Y1858D02*
D03*
X1810Y1678D02*
D03*
D80*
X1989Y1498D02*
D03*
D81*
X2736Y6463D02*
D03*
X3247Y6464D02*
D03*
X2229Y6466D02*
D03*
D82*
X7627Y6540D02*
D03*
D83*
X7881D02*
D03*
X7627Y6286D02*
D03*
X7881D02*
D03*
X7627Y6032D02*
D03*
X7881D02*
D03*
X7627Y5778D02*
D03*
X7881D02*
D03*
X7627Y5524D02*
D03*
X7881D02*
D03*
D84*
X5893Y7910D02*
D03*
X6293D02*
D03*
D85*
X7225Y6594D02*
D03*
X3038Y5588D02*
D03*
D86*
X6822Y5878D02*
D03*
X4185Y6203D02*
D03*
X4387Y6482D02*
D03*
X3401Y5758D02*
D03*
X7419Y6617D02*
D03*
X6843Y5751D02*
D03*
X4370Y5645D02*
D03*
X4268Y5644D02*
D03*
X4172D02*
D03*
X4370Y5741D02*
D03*
X4267Y5742D02*
D03*
X4170Y5744D02*
D03*
X4267Y5844D02*
D03*
X4370Y5841D02*
D03*
X4167Y5844D02*
D03*
D87*
X7544Y1144D02*
D03*
X5042Y5794D02*
D03*
X5050Y5715D02*
D03*
D88*
X2499Y5849D02*
D03*
M02*
