G04*
G04 #@! TF.GenerationSoftware,Altium Limited,Altium Designer,21.8.1 (53)*
G04*
G04 Layer_Color=128*
%FSLAX42Y42*%
%MOMM*%
G71*
G04*
G04 #@! TF.SameCoordinates,4C7B3126-2604-42B9-8956-4212446E7276*
G04*
G04*
G04 #@! TF.FilePolarity,Positive*
G04*
G01*
G75*
%ADD14C,0.25*%
%ADD90C,0.05*%
D14*
X5725Y128D02*
X5727Y126D01*
X3756Y3782D02*
Y4782D01*
Y3782D02*
X4756D01*
Y4782D01*
X3756D02*
X4756D01*
X1401Y324D02*
X1598Y126D01*
X3577D01*
Y1926D01*
X4977D01*
X4977Y126D02*
X4977Y1926D01*
X4977Y126D02*
X6952D01*
X8457Y1632D01*
Y3607D01*
X6657D02*
X8457D01*
X6657D02*
Y5007D01*
X8463D01*
Y6982D01*
X6957Y8487D02*
X8463Y6982D01*
X6957Y8488D02*
X6957Y8487D01*
X4982Y8488D02*
X6957D01*
X4982Y6686D02*
Y8488D01*
X3582Y6686D02*
X4982D01*
X3582D02*
Y8488D01*
X1607D02*
X3582D01*
X101Y6983D02*
X1607Y8488D01*
X101Y5008D02*
Y6983D01*
Y5008D02*
X1906D01*
Y3608D02*
Y5008D01*
X106Y3608D02*
X1906D01*
X106Y1633D02*
Y3608D01*
Y1633D02*
X312Y1427D01*
X460Y1576D01*
X1556Y480D01*
X1401Y324D02*
X1556Y480D01*
D90*
X5372Y657D02*
X5642D01*
X5507Y522D02*
Y792D01*
X2916Y7958D02*
X3186D01*
X3051Y7823D02*
Y8093D01*
X385Y7103D02*
X570D01*
X477Y7010D02*
Y7195D01*
X1319Y8037D02*
X1504D01*
X1411Y7945D02*
Y8130D01*
X1858Y7228D02*
X2043D01*
X1950Y7136D02*
Y7321D01*
X1525Y6896D02*
X1710D01*
X1618Y6804D02*
Y6989D01*
X1193Y6564D02*
X1378D01*
X1286Y6471D02*
Y6656D01*
X7039Y5243D02*
X7125D01*
X7082Y5200D02*
Y5286D01*
X6839Y5243D02*
X6925D01*
X6882Y5200D02*
Y5286D01*
X5808Y2240D02*
X5894D01*
X5851Y2197D02*
Y2283D01*
X5608Y2240D02*
X5694D01*
X5651Y2197D02*
Y2283D01*
X5608Y3274D02*
X5694D01*
X5651Y3231D02*
Y3317D01*
X5808Y3274D02*
X5894D01*
X5851Y3231D02*
Y3317D01*
X3381Y3416D02*
X3467D01*
X3424Y3373D02*
Y3459D01*
X3581Y3416D02*
X3667D01*
X3624Y3373D02*
Y3459D01*
X1400Y2037D02*
X1502D01*
X1451Y1986D02*
Y2088D01*
X1579Y1858D02*
X1681D01*
X1630Y1807D02*
Y1909D01*
X1759Y1678D02*
X1861D01*
X1810Y1627D02*
Y1729D01*
X1938Y1498D02*
X2040D01*
X1989Y1447D02*
Y1549D01*
X5809Y2769D02*
X5895D01*
X5852Y2726D02*
Y2812D01*
X5609Y2769D02*
X5695D01*
X5652Y2726D02*
Y2812D01*
X5594Y4907D02*
X5680D01*
X5637Y4864D02*
Y4950D01*
X5794Y4907D02*
X5880D01*
X5837Y4864D02*
Y4950D01*
X5594Y5387D02*
X5680D01*
X5637Y5344D02*
Y5430D01*
X5794Y5387D02*
X5880D01*
X5837Y5344D02*
Y5430D01*
X5594Y5890D02*
X5680D01*
X5637Y5847D02*
Y5933D01*
X5794Y5890D02*
X5880D01*
X5837Y5847D02*
Y5933D01*
X5794Y6396D02*
X5880D01*
X5837Y6353D02*
Y6439D01*
X5594Y6396D02*
X5680D01*
X5637Y6353D02*
Y6439D01*
X5594Y6905D02*
X5680D01*
X5637Y6862D02*
Y6948D01*
X5794Y6905D02*
X5880D01*
X5837Y6862D02*
Y6948D01*
X2693Y6263D02*
X2779D01*
X2736Y6220D02*
Y6306D01*
X2693Y6463D02*
X2779D01*
X2736Y6420D02*
Y6506D01*
X7582Y6540D02*
X7672D01*
X7627Y6495D02*
Y6585D01*
X7836Y6540D02*
X7926D01*
X7881Y6495D02*
Y6585D01*
X7582Y6286D02*
X7672D01*
X7627Y6241D02*
Y6331D01*
X7836Y6286D02*
X7926D01*
X7881Y6241D02*
Y6331D01*
X7582Y6032D02*
X7672D01*
X7627Y5987D02*
Y6077D01*
X7836Y6032D02*
X7926D01*
X7881Y5987D02*
Y6077D01*
X7582Y5778D02*
X7672D01*
X7627Y5733D02*
Y5823D01*
X7836Y5778D02*
X7926D01*
X7881Y5733D02*
Y5823D01*
X7582Y5524D02*
X7672D01*
X7627Y5479D02*
Y5569D01*
X7836Y5524D02*
X7926D01*
X7881Y5479D02*
Y5569D01*
X3204Y6264D02*
X3290D01*
X3247Y6221D02*
Y6307D01*
X3204Y6464D02*
X3290D01*
X3247Y6421D02*
Y6507D01*
X5808Y1199D02*
X5894D01*
X5851Y1156D02*
Y1242D01*
X5608Y1199D02*
X5694D01*
X5651Y1156D02*
Y1242D01*
X7255Y7909D02*
X7315D01*
X7285Y7879D02*
Y7939D01*
X7866Y7298D02*
X7926D01*
X7896Y7268D02*
Y7328D01*
X6986Y7640D02*
X7046D01*
X7016Y7610D02*
Y7670D01*
X7597Y7030D02*
X7657D01*
X7627Y7000D02*
Y7060D01*
X5853Y7910D02*
X5933D01*
X5893Y7870D02*
Y7950D01*
X6253Y7910D02*
X6333D01*
X6293Y7870D02*
Y7950D01*
X5609Y1727D02*
X5695D01*
X5652Y1684D02*
Y1770D01*
X5809Y1727D02*
X5895D01*
X5852Y1684D02*
Y1770D01*
X2186Y6266D02*
X2272D01*
X2229Y6223D02*
Y6309D01*
X2186Y6466D02*
X2272D01*
X2229Y6423D02*
Y6509D01*
X7200Y6594D02*
X7250D01*
X7225Y6569D02*
Y6619D01*
X6802Y5878D02*
X6842D01*
X6822Y5858D02*
Y5898D01*
X4165Y6203D02*
X4205D01*
X4185Y6183D02*
Y6223D01*
X4367Y6482D02*
X4407D01*
X4387Y6462D02*
Y6502D01*
X7529Y1144D02*
X7559D01*
X7544Y1129D02*
Y1159D01*
X3013Y5588D02*
X3063D01*
X3038Y5563D02*
Y5613D01*
X2464Y5849D02*
X2535D01*
X2499Y5814D02*
Y5885D01*
X3381Y5758D02*
X3421D01*
X3401Y5738D02*
Y5778D01*
X7399Y6617D02*
X7439D01*
X7419Y6597D02*
Y6637D01*
X5027Y5794D02*
X5057D01*
X5042Y5779D02*
Y5809D01*
X5035Y5715D02*
X5065D01*
X5050Y5700D02*
Y5730D01*
X6823Y5751D02*
X6863D01*
X6843Y5731D02*
Y5771D01*
X4350Y5645D02*
X4390D01*
X4370Y5625D02*
Y5665D01*
X4248Y5644D02*
X4288D01*
X4268Y5624D02*
Y5664D01*
X4152Y5644D02*
X4192D01*
X4172Y5624D02*
Y5664D01*
X4350Y5741D02*
X4390D01*
X4370Y5721D02*
Y5761D01*
X4247Y5742D02*
X4287D01*
X4267Y5722D02*
Y5762D01*
X4150Y5744D02*
X4190D01*
X4170Y5724D02*
Y5764D01*
X4247Y5844D02*
X4287D01*
X4267Y5824D02*
Y5864D01*
X4350Y5841D02*
X4390D01*
X4370Y5821D02*
Y5861D01*
X4147Y5844D02*
X4187D01*
X4167Y5824D02*
Y5864D01*
M02*
